<svg xmlns="http://www.w3.org/2000/svg" width="32" height="32" fill="#FFFFFF" xmlns:v="https://vecta.io/nano"><path d="M21.844 11.031h-1.466c-.319 0-.622.153-.809.416l-4.912 6.813-2.225-3.087a1 1 0 0 0-.809-.416h-1.466c-.203 0-.322.231-.203.397l3.894 5.4a.99.99 0 0 0 .354.305c.141.072.296.11.454.11s.314-.038.454-.11a1 1 0 0 0 .354-.305l6.581-9.125a.25.25 0 0 0-.2-.397zM16 2C8.269 2 2 8.269 2 16s6.269 14 14 14 14-6.269 14-14S23.731 2 16 2zm0 25.625A11.63 11.63 0 0 1 4.375 16 11.63 11.63 0 0 1 16 4.375 11.63 11.63 0 0 1 27.625 16 11.63 11.63 0 0 1 16 27.625z"/></svg>