<svg width="61" height="49" viewBox="0 0 61 49" fill="none" xmlns="http://www.w3.org/2000/svg">
<path d="M23.0079 8.04386C23.0079 9.63092 23.5919 11.153 24.6314 12.2752C25.671 13.3974 27.0809 14.0279 28.551 14.0279C30.0211 14.0279 31.431 13.3974 32.4705 12.2752C33.51 11.153 34.094 9.63092 34.094 8.04386C34.094 6.45679 33.51 4.93473 32.4705 3.8125C31.431 2.69027 30.0211 2.05981 28.551 2.05981C27.0809 2.05981 25.671 2.69027 24.6314 3.8125C23.5919 4.93473 23.0079 6.45679 23.0079 8.04386V8.04386Z" stroke="#006BFF" stroke-width="3" stroke-linecap="round" stroke-linejoin="round"></path>
<path d="M36.8655 28.9881V25.9961C36.8655 23.6155 35.9895 21.3324 34.4303 19.649C32.871 17.9657 30.7561 17.02 28.551 17.02C26.3458 17.02 24.231 17.9657 22.6717 19.649C21.1124 21.3324 20.2365 23.6155 20.2365 25.9961V31.9801H23.008L24.3937 46.9402H32.7083L33.9554 33.4761" stroke="#006BFF" stroke-width="3" stroke-linecap="round" stroke-linejoin="round"></path>
<path d="M37.0317 25.9362H55.6563C56.4795 25.9362 57.2691 25.6209 57.8512 25.0598C58.4333 24.4987 58.7604 23.7377 58.7604 22.9442V4.99202C58.7604 4.19849 58.4333 3.43746 57.8512 2.87634C57.2691 2.31523 56.4795 2 55.6563 2H33.9276" stroke="#006BFF" stroke-width="3" stroke-linecap="round" stroke-linejoin="round"></path>
<path d="M52.5522 20.1917L38.3621 20.1917" stroke="#006BFF" stroke-width="3" stroke-linecap="round" stroke-linejoin="round"></path>
<path d="M45.0695 20.012V8.04395" stroke="#006BFF" stroke-width="3" stroke-linecap="round" stroke-linejoin="round"></path>
<path d="M39.5262 20.012V12.532" stroke="#006BFF" stroke-width="3" stroke-linecap="round" stroke-linejoin="round"></path>
<path d="M4.77136 7.98404C4.77136 9.57111 5.35536 11.0932 6.39488 12.2154C7.4344 13.3376 8.84429 13.9681 10.3144 13.9681C11.7845 13.9681 13.1944 13.3376 14.2339 12.2154C15.2734 11.0932 15.8574 9.57111 15.8574 7.98404C15.8574 6.39698 15.2734 4.87491 14.2339 3.75269C13.1944 2.63046 11.7845 2 10.3144 2C8.84429 2 7.4344 2.63046 6.39488 3.75269C5.35536 4.87491 4.77136 6.39698 4.77136 7.98404V7.98404Z" stroke="#006BFF" stroke-width="3" stroke-linecap="round" stroke-linejoin="round"></path>
<path d="M18.6291 28.9283V25.9363C18.6291 23.5557 17.7531 21.2726 16.1938 19.5892C14.6345 17.9059 12.5197 16.9602 10.3145 16.9602C8.10939 16.9602 5.99455 17.9059 4.43527 19.5892C2.87599 21.2726 2 23.5557 2 25.9363V31.9203H4.77151L6.15727 46.8804H14.4718L15.719 33.4163" stroke="#006BFF" stroke-width="3" stroke-linecap="round" stroke-linejoin="round"></path>
<g clip-path="url(#clip0_2_138)">
<path d="M44.9584 39.8792C44.9584 40.6569 45.2445 41.4027 45.7539 41.9526C46.2633 42.5025 46.9541 42.8114 47.6745 42.8114C48.3948 42.8114 49.0857 42.5025 49.595 41.9526C50.1044 41.4027 50.3905 40.6569 50.3905 39.8792C50.3905 39.1015 50.1044 38.3557 49.595 37.8058C49.0857 37.2559 48.3948 36.947 47.6745 36.947C46.9541 36.947 46.2633 37.2559 45.7539 37.8058C45.2445 38.3557 44.9584 39.1015 44.9584 39.8792V39.8792Z" stroke="#006BFF" stroke-width="3" stroke-linecap="round" stroke-linejoin="round"></path>
<path d="M51.5545 46.2821C51.1795 45.5229 50.6203 44.888 49.9369 44.4453C49.2535 44.0026 48.4714 43.7688 47.6744 43.7688C46.8774 43.7688 46.0954 44.0026 45.412 44.4453C44.7285 44.888 44.1694 45.5229 43.7943 46.2821" stroke="#006BFF" stroke-width="3" stroke-linecap="round" stroke-linejoin="round"></path>
<path d="M52.8448 39.8792C52.8448 40.2643 52.9151 40.6456 53.0516 41.0013C53.1881 41.357 53.3882 41.6803 53.6404 41.9526C53.8926 42.2248 54.192 42.4408 54.5215 42.5882C54.8511 42.7355 55.2043 42.8114 55.5609 42.8114C55.9176 42.8114 56.2708 42.7355 56.6003 42.5882C56.9299 42.4408 57.2293 42.2248 57.4815 41.9526C57.7337 41.6803 57.9338 41.357 58.0703 41.0013C58.2068 40.6456 58.277 40.2643 58.277 39.8792C58.277 39.4941 58.2068 39.1129 58.0703 38.7571C57.9338 38.4014 57.7337 38.0781 57.4815 37.8058C57.2293 37.5336 56.9299 37.3176 56.6003 37.1702C56.2708 37.0229 55.9176 36.947 55.5609 36.947C55.2043 36.947 54.8511 37.0229 54.5215 37.1702C54.192 37.3176 53.8926 37.5336 53.6404 37.8058C53.3882 38.0781 53.1881 38.4014 53.0516 38.7571C52.9151 39.1129 52.8448 39.4941 52.8448 39.8792V39.8792Z" stroke="#006BFF" stroke-width="3" stroke-linecap="round" stroke-linejoin="round"></path>
<path d="M59.3148 45.8693C58.8675 45.1861 58.2676 44.6358 57.5708 44.2697C56.8739 43.9036 56.1027 43.7334 55.3286 43.7749C54.5545 43.8165 53.8028 44.0684 53.143 44.5074C52.4832 44.9464 51.9368 45.5582 51.5546 46.286" stroke="#006BFF" stroke-width="3" stroke-linecap="round" stroke-linejoin="round"></path>
<path d="M37.0719 39.8792C37.0719 40.2643 37.1422 40.6456 37.2786 41.0013C37.4151 41.357 37.6152 41.6803 37.8674 41.9526C38.1196 42.2248 38.4191 42.4408 38.7486 42.5882C39.0781 42.7355 39.4313 42.8114 39.788 42.8114C40.1447 42.8114 40.4979 42.7355 40.8274 42.5882C41.1569 42.4408 41.4563 42.2248 41.7085 41.9526C41.9608 41.6803 42.1608 41.357 42.2973 41.0013C42.4338 40.6456 42.5041 40.2643 42.5041 39.8792C42.5041 39.4941 42.4338 39.1129 42.2973 38.7571C42.1608 38.4014 41.9608 38.0781 41.7085 37.8058C41.4563 37.5336 41.1569 37.3176 40.8274 37.1702C40.4979 37.0229 40.1447 36.947 39.788 36.947C39.4313 36.947 39.0781 37.0229 38.7486 37.1702C38.4191 37.3176 38.1196 37.5336 37.8674 37.8058C37.6152 38.0781 37.4151 38.4014 37.2786 38.7571C37.1422 39.1129 37.0719 39.4941 37.0719 39.8792V39.8792Z" stroke="#006BFF" stroke-width="3" stroke-linecap="round" stroke-linejoin="round"></path>
<path d="M36.0341 45.8693C36.4813 45.1861 37.0812 44.6358 37.7781 44.2697C38.475 43.9036 39.2462 43.7334 40.0203 43.7749C40.7943 43.8165 41.5461 44.0684 42.2059 44.5074C42.8656 44.9464 43.412 45.5582 43.7943 46.286" stroke="#006BFF" stroke-width="3" stroke-linecap="round" stroke-linejoin="round"></path>
</g>
<defs>
<clipPath id="clip0_2_138">
<rect width="24.8328" height="26.8085" fill="white" transform="translate(35.2581 20.1917)"></rect>
</clipPath>
</defs>
</svg>