<svg width="444" height="344" viewBox="0 0 444 344" fill="none" xmlns="http://www.w3.org/2000/svg">
<g clip-path="url(#clip0)">
<mask id="mask0" mask-type="alpha" maskUnits="userSpaceOnUse" x="0" y="0" width="444" height="344">
<path d="M443.5 0H0V344H443.5V0Z" fill="white"/>
</mask>
<g mask="url(#mask0)">
<mask id="mask1" mask-type="alpha" maskUnits="userSpaceOnUse" x="-3" y="0" width="451" height="347">
<rect x="-3" width="450.84" height="347" fill="#C4C4C4"/>
</mask>
<g mask="url(#mask1)">
<path d="M168.992 193.719C142.498 157.765 168.734 107.036 213.389 107.879C230.441 108.201 246.593 100.428 256.991 87.0114L245.09 39.5387C234.093 -4.3356 175.537 -13.0118 152.292 25.7895C137.88 49.8408 106.699 57.659 82.6438 43.2464C43.844 19.9978 -3.6932 55.2672 7.30365 99.1415L24.6586 168.389C24.9441 169.524 25.3181 170.615 25.6724 171.715C25.8753 172.851 26.0614 173.989 26.3468 175.124L43.7018 244.371C54.6987 288.245 113.255 296.921 136.5 258.12C145.802 242.6 162.081 233.845 178.924 233.454C180.957 219.548 177.484 205.246 168.992 193.719Z" fill="#FFA700"/>
<path d="M342.858 187.116C344.156 170.672 353.893 156.775 368.903 149.939L393.789 138.605C392.184 137.926 390.53 137.303 388.813 136.76C371.911 131.392 358.729 118.053 353.569 101.085C340.57 58.3567 284.218 49.0813 258.213 85.3861C257.819 85.9378 257.41 86.4787 256.995 87.0131L262.454 108.786C262.739 109.921 262.926 111.058 263.129 112.195C263.483 113.294 263.858 114.382 264.142 115.521L281.497 184.768C292.494 228.642 244.957 263.912 206.157 240.663C197.622 235.552 188.193 233.239 178.933 233.454C178.45 236.774 177.656 240.071 176.54 243.299C161.941 285.506 202.077 326.132 244.458 312.05C261.288 306.457 279.79 309.503 293.941 320.193C329.57 347.121 380.612 321.504 380.314 276.842C380.239 265.63 383.657 254.854 389.852 245.876L362.747 227.92C348.991 218.814 341.556 203.558 342.858 187.116Z" fill="#E55CFF"/>
<path d="M354.113 188.005C353.142 200.295 358.698 211.701 368.978 218.506L397.268 237.243C399.158 235.463 401.187 233.805 403.35 232.295C434.442 210.59 432.938 166.626 405.73 145.568L373.583 160.212C362.361 165.323 355.084 175.716 354.113 188.005Z" fill="#E55CFF"/>
<path d="M368.976 218.51C358.698 211.701 353.14 200.299 354.111 188.009C355.083 175.72 362.363 165.328 373.581 160.216L405.728 145.572C402.178 142.826 398.194 140.469 393.785 138.603L368.899 149.937C353.89 156.773 344.152 170.67 342.854 187.114C341.556 203.558 348.991 218.813 362.742 227.922L389.847 245.878C391.995 242.767 394.477 239.869 397.263 237.246L368.976 218.51Z" fill="#E55CFF"/>
</g>
</g>
</g>
<defs>
<clipPath id="clip0">
<rect width="443.5" height="344" fill="white"/>
</clipPath>
</defs>
</svg>
