<svg width="306" height="42" viewBox="0 0 306 42" fill="none" xmlns="http://www.w3.org/2000/svg">
<path d="M66.8194 35.6445C60.74 35.6816 55.2384 32.0471 52.8866 26.4408C50.5347 20.8345 51.796 14.3635 56.0825 10.0514C60.3682 5.73929 66.8318 4.4385 72.4521 6.75652C78.0724 9.07455 81.7399 14.5539 81.7399 20.6334C81.7539 28.894 75.0801 35.6082 66.8194 35.6445ZM66.8194 0.000284377C58.4747 -0.0434053 50.9271 4.95041 47.704 12.6472C44.48 20.3448 46.2169 29.2262 52.1018 35.1424C57.9875 41.0587 66.8598 42.8417 74.574 39.6581C82.2881 36.4746 87.3206 28.9533 87.3206 20.6086C87.3206 9.26827 78.159 0.0596364 66.8194 0.000284377" fill="#1A1A1A"/>
<path d="M142.947 1.18733C142.757 1.18898 142.582 1.28873 142.485 1.45112L121.357 30.1791L100.23 1.45112C100.131 1.28625 99.9518 1.18568 99.7598 1.18733C99.4531 1.18733 99.2033 1.43298 99.1992 1.73964V40.0134H104.788V17.4102L121.028 39.3375C121.109 39.4356 121.23 39.4925 121.357 39.4925C121.485 39.4925 121.605 39.4356 121.687 39.3375L137.926 17.4102V40.0134H143.515V1.73964C143.513 1.59126 143.452 1.44947 143.346 1.34561C143.238 1.24174 143.095 1.18486 142.947 1.18733" fill="#1A1A1A"/>
<path d="M177.684 20.4768H164.66V6.79285H177.684C181.458 6.79285 184.518 9.85278 184.518 13.6266C184.518 17.4004 181.458 20.4603 177.684 20.4603V20.4768ZM177.684 1.1709H159.054V39.997H164.643V26.0987H177.668C184.547 26.0987 190.123 20.5221 190.123 13.6431C190.123 6.764 184.547 1.18739 177.668 1.18739" fill="#1A1A1A"/>
<path d="M20.6735 35.6452C13.6304 35.6848 7.50638 30.822 5.94921 23.9537C4.39205 17.0845 7.81963 10.0562 14.1917 7.05483C20.563 4.05261 28.165 5.8851 32.4697 11.4592L36.4842 7.4942C30.9438 0.800615 21.8003 -1.69959 13.6254 1.24493C5.44967 4.18945 0 11.9448 0 20.6341C0 29.3234 5.44967 37.0787 13.6254 40.0232C21.8003 42.9677 30.9438 40.4675 36.4842 33.774L32.4697 29.8089C29.6628 33.4871 25.3004 35.6452 20.6735 35.6452" fill="#1A1A1A"/>
<path d="M256.383 17.0558L252.105 16.0831C247.505 15.0939 247.159 11.9614 247.159 10.9805C247.159 7.80678 249.69 5.98501 254.1 5.98501C258.634 5.98501 261.947 9.05977 262.961 10.1067L266.893 6.24055C263.2 2.36618 259.021 0.470215 254.1 0.470215C246.607 0.470215 241.57 4.68256 241.57 10.9557C241.57 12.9506 241.57 19.0177 251.643 21.499L256.325 22.6036C260.67 23.7988 262.78 25.9009 262.78 29.0169C262.78 32.6687 259.26 35.2159 254.232 35.2159C248.849 35.2159 245.535 31.5146 244.546 30.2699L240.663 34.0948C243.309 37.1118 247.827 40.6894 254.289 40.6894C262.343 40.6894 268.418 35.661 268.418 29.0004C268.418 23.0322 264.297 18.8941 256.424 17.0393" fill="#1A1A1A"/>
<path d="M293.998 17.0558L289.719 16.0831C285.12 15.0939 284.773 11.9614 284.773 10.9805C284.773 7.80678 287.304 5.98501 291.714 5.98501C296.248 5.98501 299.562 9.05977 300.568 10.1067L304.508 6.24055C300.815 2.36618 296.627 0.470215 291.714 0.470215C284.221 0.470215 279.184 4.68256 279.184 10.9557C279.184 12.9506 279.184 19.0177 289.258 21.499L293.965 22.5788C298.301 23.7741 300.411 25.8762 300.411 28.9921C300.411 32.6439 296.899 35.1911 291.871 35.1911C286.488 35.1911 283.166 31.4899 282.185 30.2451L278.245 34.1113C280.891 37.1283 285.408 40.7059 291.871 40.7059C299.925 40.7059 306 35.6775 306 29.0169C306 23.0487 301.878 18.9106 294.006 17.0558" fill="#1A1A1A"/>
<path d="M206.429 24.4417L212.826 12.2416L219.231 24.4417H206.429ZM212.826 0.841064C212.606 0.842713 212.407 0.971309 212.315 1.1708L191.945 40.0134H198.268L203.478 30.0637H222.165L227.383 40.0134H233.698L213.337 1.1708C213.243 0.972958 213.045 0.845186 212.826 0.841064V0.841064Z" fill="#1A1A1A"/>
<path d="M58.0073 25.4887L61.9559 29.462L75.6233 15.7204L71.6665 11.7471L58.0073 25.4887Z" fill="#1A1A1A"/>
</svg>
