<svg width="75" height="31" viewBox="0 0 75 31" fill="none" xmlns="http://www.w3.org/2000/svg">
<path fill-rule="evenodd" clip-rule="evenodd" d="M9.67882 6.99707C4.44208 6.99707 0.078125 9.23316 0.078125 15.9797C0.078125 21.3244 3.01261 24.69 9.81414 24.69C17.8202 24.69 18.3334 19.3821 18.3334 19.3821H14.4541C14.4541 19.3821 13.6225 22.2402 9.57766 22.2402C6.28325 22.2402 3.91399 20.0004 3.91399 16.8608H18.7392V14.8909C18.7392 11.7848 16.7801 6.99707 9.67901 6.99707H9.67882ZM9.54369 9.51489C12.6798 9.51489 14.8176 11.4487 14.8176 14.3467H3.99956C3.99956 11.2701 6.79 9.51489 9.54369 9.51489Z" fill="#333333"/>
<path fill-rule="evenodd" clip-rule="evenodd" d="M18.7382 0.464844V21.3026C18.7382 22.4854 18.6543 24.1463 18.6543 24.1463H22.3543C22.3543 24.1463 22.487 22.9536 22.487 21.8633C22.487 21.8633 24.315 24.7419 29.2856 24.7419C34.5199 24.7419 38.0753 21.0844 38.0753 15.8444C38.0753 10.9696 34.8095 7.04889 29.2941 7.04889C24.1294 7.04889 22.5245 9.8561 22.5245 9.8561V0.46503H18.7382V0.464844ZM28.3389 9.62612C31.8934 9.62612 34.1535 12.2813 34.1535 15.8442C34.1535 19.6649 31.5431 22.1642 28.3645 22.1642C24.5708 22.1642 22.5245 19.1831 22.5245 15.878C22.5245 12.7986 24.3607 9.62594 28.3391 9.62594L28.3389 9.62612Z" fill="#333333"/>
<path fill-rule="evenodd" clip-rule="evenodd" d="M47.2687 6.99744C39.3902 6.99744 38.8849 11.3394 38.8849 12.0333H42.8063C42.8063 12.0333 43.0118 9.49828 46.9982 9.49828C49.5886 9.49828 51.5957 10.6917 51.5957 12.9859V13.8025H46.9982C40.8946 13.8025 37.668 15.5994 37.668 19.2464C37.668 22.8353 40.6492 24.7884 44.6785 24.7884C50.1694 24.7884 51.9382 21.7346 51.9382 21.7346C51.9382 22.9489 52.0314 24.1459 52.0314 24.1459H55.5174C55.5174 24.1459 55.3822 22.6623 55.3822 21.7131V13.5087C55.3822 8.12923 51.0712 6.99707 47.2689 6.99707L47.2687 6.99744ZM51.5957 16.2524V17.3412C51.5957 18.7612 50.7252 22.2919 45.5994 22.2919C42.7926 22.2919 41.5892 20.8821 41.5892 19.2466C41.5892 16.2716 45.6419 16.2524 51.5957 16.2524Z" fill="#333333"/>
<path fill-rule="evenodd" clip-rule="evenodd" d="M53.2697 7.6792H57.6812L64.0125 20.446L70.3296 7.6792H74.3258L62.8197 30.4078H58.6278L61.948 24.0721L53.2695 7.6792H53.2697Z" fill="#333333"/>
</svg>

