<svg width="603" height="156" viewBox="0 0 603 156" fill="none" xmlns="http://www.w3.org/2000/svg">
<g filter="url(#filter0_d)">
<rect x="11" y="5" width="583" height="138" fill="#004796"/>
</g>
<mask id="mask0" mask-type="alpha" maskUnits="userSpaceOnUse" x="9" y="5" width="583" height="138">
<rect x="9" y="5" width="583" height="138" fill="#0AE8F0"/>
</mask>
<g mask="url(#mask0)">
<path d="M-82.5168 454.251L69.5535 474.092L71.6089 465.159C74.9289 450.763 74.6853 435.537 70.9027 421.012C67.12 406.487 59.9316 393.174 50.0599 382.413L-66.7013 255.011C-76.5721 244.25 -88.7793 236.421 -102.095 232.311C-115.41 228.201 -129.364 227.955 -142.552 231.598C-155.744 235.233 -169.699 234.98 -183.015 230.866C-196.331 226.752 -208.538 218.92 -218.41 208.158L-249.459 174.324C-259.326 163.561 -271.528 155.728 -284.841 151.612C-298.153 147.496 -312.105 147.243 -325.294 150.878L-481.456 193.909C-494.645 197.543 -506.606 204.936 -516.135 215.346C-525.665 225.756 -532.427 238.815 -535.741 253.21L-574.953 423.591C-578.273 437.988 -578.029 453.214 -574.247 467.739C-570.464 482.264 -563.276 495.576 -553.404 506.338L-436.643 633.74C-426.767 644.476 -414.564 652.284 -401.259 656.381C-387.953 660.478 -374.013 660.719 -360.836 657.082C-347.647 653.447 -333.695 653.697 -320.381 657.807C-307.067 661.917 -294.859 669.741 -284.985 680.495L-253.928 714.355C-244.547 724.616 -233.037 732.233 -220.45 736.511C-207.863 740.789 -194.6 741.591 -181.875 738.843L-165.227 527.241C-163.495 505.265 -153.812 485.235 -138.304 471.549C-122.796 457.864 -102.731 451.642 -82.5168 454.251Z" fill="black"/>
<path d="M178.86 49.6233V86.0233H188.168V49.6233H178.86ZM208.867 59.2953C205.643 59.2953 203.095 60.5433 201.639 62.6233V60.0233H193.007V86.0233H201.639V72.1913C201.639 69.0713 203.251 67.4593 205.903 67.4593C208.139 67.4593 209.803 68.7593 209.803 71.5673V86.0233H218.435V70.4753C218.435 62.9873 214.223 59.2953 208.867 59.2953ZM238.721 68.2913V60.0233H233.313V52.7433L224.681 55.3433V60.0233H220.781V68.2913H224.681V76.0393C224.681 84.0473 228.113 87.3233 238.721 86.0233V78.2233C235.237 78.4313 233.313 78.2753 233.313 75.8313V68.2913H238.721ZM249.429 76.1953H267.369C267.629 75.1033 267.733 74.0633 267.733 72.9713C267.733 65.1713 262.117 59.2953 254.317 59.2953C246.205 59.2953 240.485 65.2753 240.485 73.0753C240.485 80.7713 246.049 86.7513 255.045 86.7513C259.673 86.7513 263.625 85.1913 266.225 81.9153L259.985 77.5473C258.737 78.7433 257.125 79.3673 255.253 79.3673C252.757 79.3673 250.469 78.6913 249.429 76.1953ZM249.325 70.2153C250.053 67.8233 251.925 66.5753 254.421 66.5753C256.501 66.5753 258.529 67.5113 259.309 70.2153H249.325ZM289.434 60.0233V62.5193C287.77 60.4913 285.378 59.2953 282.154 59.2953C274.926 59.2953 269.778 65.2753 269.778 72.5033C269.778 79.7313 274.926 85.7113 282.154 85.7113C285.378 85.7113 287.77 84.5153 289.434 82.4873V84.9833C289.434 88.2073 287.094 89.6633 284.182 89.6633C281.374 89.6633 279.814 88.5193 278.67 86.6993L271.494 90.8593C273.834 95.0713 278.618 97.2033 284.286 97.2033C291.098 97.2033 297.962 93.6673 297.962 84.9833V60.0233H289.434ZM283.922 77.9113C280.646 77.9113 278.41 75.6233 278.41 72.5033C278.41 69.3833 280.646 67.0953 283.922 67.0953C287.198 67.0953 289.434 69.3833 289.434 72.5033C289.434 75.6233 287.198 77.9113 283.922 77.9113ZM311.075 64.8593V60.0233H302.443V86.0233H311.075V75.2593C311.075 70.1113 315.443 68.5513 318.875 69.0713V59.5033C315.391 59.5033 312.115 61.3233 311.075 64.8593ZM339.322 60.0233V62.4153C337.658 60.4393 335.266 59.2953 331.938 59.2953C324.97 59.2953 319.718 65.2233 319.718 73.0233C319.718 80.8233 324.97 86.7513 331.938 86.7513C335.266 86.7513 337.658 85.6073 339.322 83.6313V86.0233H347.954V60.0233H339.322ZM333.862 78.6913C330.638 78.6913 328.402 76.4033 328.402 73.0233C328.402 69.6433 330.638 67.3553 333.862 67.3553C337.086 67.3553 339.322 69.6433 339.322 73.0233C339.322 76.4033 337.086 78.6913 333.862 78.6913ZM368.558 68.2913V60.0233H363.15V52.7433L354.518 55.3433V60.0233H350.618V68.2913H354.518V76.0393C354.518 84.0473 357.95 87.3233 368.558 86.0233V78.2233C365.074 78.4313 363.15 78.2753 363.15 75.8313V68.2913H368.558ZM376.343 57.8913C379.047 57.8913 381.335 55.6033 381.335 52.8993C381.335 50.1953 379.047 47.9593 376.343 47.9593C373.639 47.9593 371.351 50.1953 371.351 52.8993C371.351 55.6033 373.639 57.8913 376.343 57.8913ZM372.027 86.0233H380.659V60.0233H372.027V86.0233ZM397.702 86.7513C405.45 86.7513 411.586 80.7713 411.586 73.0233C411.586 65.2753 405.45 59.2953 397.702 59.2953C390.006 59.2953 383.818 65.2753 383.818 73.0233C383.818 80.7713 390.058 86.7513 397.702 86.7513ZM397.702 78.4313C394.738 78.4313 392.502 76.2473 392.502 73.0233C392.502 69.7993 394.738 67.6153 397.702 67.6153C400.718 67.6153 402.954 69.7993 402.954 73.0233C402.954 76.2473 400.718 78.4313 397.702 78.4313ZM430.722 59.2953C427.498 59.2953 424.95 60.5433 423.494 62.6233V60.0233H414.862V86.0233H423.494V72.1913C423.494 69.0713 425.106 67.4593 427.758 67.4593C429.994 67.4593 431.658 68.7593 431.658 71.5673V86.0233H440.29V70.4753C440.29 62.9873 436.078 59.2953 430.722 59.2953ZM452.724 67.6153C452.724 66.8353 453.452 66.3673 454.648 66.3673C456.104 66.3673 457.144 67.1473 457.872 68.6033L465.152 65.3273C463.02 61.0633 459.12 59.2953 454.44 59.2953C449.136 59.2953 443.988 62.1553 443.988 68.0313C443.988 77.2353 456.676 75.5193 456.676 78.2233C456.676 79.1593 455.844 79.6273 454.336 79.6273C452.308 79.6273 450.956 78.6913 450.28 76.7673L442.74 80.5633C444.82 84.9833 448.928 86.7513 454.388 86.7513C459.692 86.7513 465.62 84.5153 465.62 78.0153C465.62 68.1353 452.724 70.4753 452.724 67.6153Z" fill="white"/>
</g>
<defs>
<filter id="filter0_d" x="2" y="0" width="601" height="156" filterUnits="userSpaceOnUse" color-interpolation-filters="sRGB">
<feFlood flood-opacity="0" result="BackgroundImageFix"/>
<feColorMatrix in="SourceAlpha" type="matrix" values="0 0 0 0 0 0 0 0 0 0 0 0 0 0 0 0 0 0 127 0"/>
<feOffset dy="4"/>
<feGaussianBlur stdDeviation="4.5"/>
<feColorMatrix type="matrix" values="0 0 0 0 0 0 0 0 0 0 0 0 0 0 0 0 0 0 0.25 0"/>
<feBlend mode="normal" in2="BackgroundImageFix" result="effect1_dropShadow"/>
<feBlend mode="normal" in="SourceGraphic" in2="effect1_dropShadow" result="shape"/>
</filter>
</defs>
</svg>
