<svg width="601" height="156" viewBox="0 0 601 156" fill="none" xmlns="http://www.w3.org/2000/svg">
<g filter="url(#filter0_d)">
<rect x="9" y="5" width="583" height="138" fill="white"/>
</g>
<path d="M80.1077 103.252C82.4297 103.252 84.4637 102.082 85.5257 100.282L83.3837 99.04C82.7897 100.138 81.5477 100.822 80.1077 100.822C77.6417 100.822 76.0217 99.112 76.0217 96.7C76.0217 94.27 77.6417 92.56 80.1077 92.56C81.5477 92.56 82.7717 93.244 83.3837 94.36L85.5257 93.118C84.4457 91.318 82.4117 90.148 80.1077 90.148C76.2917 90.148 73.5557 93.01 73.5557 96.7C73.5557 100.372 76.2917 103.252 80.1077 103.252ZM93.6563 94V95.062C93.0083 94.252 92.0363 93.748 90.7223 93.748C88.3283 93.748 86.3483 95.818 86.3483 98.5C86.3483 101.182 88.3283 103.252 90.7223 103.252C92.0363 103.252 93.0083 102.748 93.6563 101.938V103H95.9783V94H93.6563ZM91.1543 101.038C89.7323 101.038 88.6703 100.012 88.6703 98.5C88.6703 96.988 89.7323 95.962 91.1543 95.962C92.5943 95.962 93.6563 96.988 93.6563 98.5C93.6563 100.012 92.5943 101.038 91.1543 101.038ZM97.9039 103H100.226V89.86H97.9039V103ZM104.133 99.454H110.919C110.973 99.148 111.009 98.842 111.009 98.5C111.009 95.854 109.119 93.748 106.455 93.748C103.629 93.748 101.703 95.818 101.703 98.5C101.703 101.182 103.611 103.252 106.635 103.252C108.363 103.252 109.713 102.55 110.559 101.326L108.687 100.246C108.291 100.768 107.571 101.146 106.671 101.146C105.447 101.146 104.457 100.642 104.133 99.454ZM104.097 97.654C104.367 96.502 105.213 95.836 106.455 95.836C107.427 95.836 108.399 96.358 108.687 97.654H104.097ZM117.454 93.748C116.248 93.748 115.312 94.198 114.772 95.008V94H112.45V103H114.772V98.14C114.772 96.574 115.618 95.908 116.752 95.908C117.796 95.908 118.534 96.538 118.534 97.762V103H120.856V97.474C120.856 95.08 119.362 93.748 117.454 93.748ZM129.481 90.4V95.062C128.833 94.234 127.879 93.748 126.565 93.748C124.153 93.748 122.173 95.818 122.173 98.5C122.173 101.182 124.153 103.252 126.565 103.252C127.879 103.252 128.833 102.766 129.481 101.938V103H131.803V90.4H129.481ZM126.997 101.038C125.557 101.038 124.495 100.012 124.495 98.5C124.495 96.988 125.557 95.962 126.997 95.962C128.419 95.962 129.481 96.988 129.481 98.5C129.481 100.012 128.419 101.038 126.997 101.038ZM140.586 94V95.062C139.938 94.252 138.966 93.748 137.652 93.748C135.258 93.748 133.278 95.818 133.278 98.5C133.278 101.182 135.258 103.252 137.652 103.252C138.966 103.252 139.938 102.748 140.586 101.938V103H142.908V94H140.586ZM138.084 101.038C136.662 101.038 135.6 100.012 135.6 98.5C135.6 96.988 136.662 95.962 138.084 95.962C139.524 95.962 140.586 96.988 140.586 98.5C140.586 100.012 139.524 101.038 138.084 101.038ZM147.156 95.548V94H144.834V103H147.156V98.698C147.156 96.808 148.686 96.268 149.892 96.412V93.82C148.758 93.82 147.624 94.324 147.156 95.548ZM152.931 96.556C152.931 96.07 153.399 95.818 153.975 95.818C154.641 95.818 155.145 96.16 155.415 96.736L157.395 95.656C156.693 94.414 155.433 93.748 153.975 93.748C152.121 93.748 150.555 94.774 150.555 96.61C150.555 99.778 155.199 99.058 155.199 100.372C155.199 100.894 154.695 101.146 153.957 101.146C153.057 101.146 152.445 100.714 152.193 99.976L150.177 101.11C150.825 102.496 152.157 103.252 153.957 103.252C155.883 103.252 157.575 102.316 157.575 100.372C157.575 97.06 152.931 97.888 152.931 96.556ZM171.288 95.602H168.318V92.65H166.14V95.602H163.188V97.78H166.14V100.75H168.318V97.78H171.288V95.602ZM53.383 123H56.461L60.709 110.4H57.991L54.931 120.084L51.853 110.4H49.153L53.383 123ZM62.4358 112.92C63.2278 112.92 63.8758 112.272 63.8758 111.498C63.8758 110.724 63.2278 110.058 62.4358 110.058C61.6618 110.058 61.0138 110.724 61.0138 111.498C61.0138 112.272 61.6618 112.92 62.4358 112.92ZM61.2838 123H63.6058V114H61.2838V123ZM72.373 110.4V115.062C71.725 114.234 70.771 113.748 69.457 113.748C67.045 113.748 65.065 115.818 65.065 118.5C65.065 121.182 67.045 123.252 69.457 123.252C70.771 123.252 71.725 122.766 72.373 121.938V123H74.695V110.4H72.373ZM69.889 121.038C68.449 121.038 67.387 120.012 67.387 118.5C67.387 116.988 68.449 115.962 69.889 115.962C71.311 115.962 72.373 116.988 72.373 118.5C72.373 120.012 71.311 121.038 69.889 121.038ZM78.6006 119.454H85.3866C85.4406 119.148 85.4766 118.842 85.4766 118.5C85.4766 115.854 83.5866 113.748 80.9226 113.748C78.0966 113.748 76.1706 115.818 76.1706 118.5C76.1706 121.182 78.0786 123.252 81.1026 123.252C82.8306 123.252 84.1806 122.55 85.0266 121.326L83.1546 120.246C82.7586 120.768 82.0386 121.146 81.1386 121.146C79.9146 121.146 78.9246 120.642 78.6006 119.454ZM78.5646 117.654C78.8346 116.502 79.6806 115.836 80.9226 115.836C81.8946 115.836 82.8666 116.358 83.1546 117.654H78.5646ZM91.1313 123.252C93.7773 123.252 95.9013 121.182 95.9013 118.5C95.9013 115.818 93.7773 113.748 91.1313 113.748C88.4853 113.748 86.3793 115.818 86.3793 118.5C86.3793 121.182 88.4853 123.252 91.1313 123.252ZM91.1313 120.984C89.7633 120.984 88.7013 119.958 88.7013 118.5C88.7013 117.042 89.7633 116.016 91.1313 116.016C92.5173 116.016 93.5793 117.042 93.5793 118.5C93.5793 119.958 92.5173 120.984 91.1313 120.984ZM107.759 123.252C110.081 123.252 112.115 122.082 113.177 120.282L111.035 119.04C110.441 120.138 109.199 120.822 107.759 120.822C105.293 120.822 103.673 119.112 103.673 116.7C103.673 114.27 105.293 112.56 107.759 112.56C109.199 112.56 110.423 113.244 111.035 114.36L113.177 113.118C112.097 111.318 110.063 110.148 107.759 110.148C103.943 110.148 101.207 113.01 101.207 116.7C101.207 120.372 103.943 123.252 107.759 123.252ZM118.751 123.252C121.397 123.252 123.521 121.182 123.521 118.5C123.521 115.818 121.397 113.748 118.751 113.748C116.105 113.748 113.999 115.818 113.999 118.5C113.999 121.182 116.105 123.252 118.751 123.252ZM118.751 120.984C117.383 120.984 116.321 119.958 116.321 118.5C116.321 117.042 117.383 116.016 118.751 116.016C120.137 116.016 121.199 117.042 121.199 118.5C121.199 119.958 120.137 120.984 118.751 120.984ZM129.979 113.748C128.773 113.748 127.837 114.198 127.297 115.008V114H124.975V123H127.297V118.14C127.297 116.574 128.143 115.908 129.277 115.908C130.321 115.908 131.059 116.538 131.059 117.762V123H133.381V117.474C133.381 115.08 131.887 113.748 129.979 113.748ZM140.026 112.38V110.148C137.164 109.968 135.796 111.426 135.796 113.91V114H134.5V116.232H135.796V123H138.118V116.232H140.026V114H138.118V113.91C138.118 112.686 138.82 112.29 140.026 112.38ZM142.538 119.454H149.324C149.378 119.148 149.414 118.842 149.414 118.5C149.414 115.854 147.524 113.748 144.86 113.748C142.034 113.748 140.108 115.818 140.108 118.5C140.108 121.182 142.016 123.252 145.04 123.252C146.768 123.252 148.118 122.55 148.964 121.326L147.092 120.246C146.696 120.768 145.976 121.146 145.076 121.146C143.852 121.146 142.862 120.642 142.538 119.454ZM142.502 117.654C142.772 116.502 143.618 115.836 144.86 115.836C145.832 115.836 146.804 116.358 147.092 117.654H142.502ZM153.177 115.548V114H150.855V123H153.177V118.698C153.177 116.808 154.707 116.268 155.913 116.412V113.82C154.779 113.82 153.645 114.324 153.177 115.548ZM158.719 119.454H165.505C165.559 119.148 165.595 118.842 165.595 118.5C165.595 115.854 163.705 113.748 161.041 113.748C158.215 113.748 156.289 115.818 156.289 118.5C156.289 121.182 158.197 123.252 161.221 123.252C162.949 123.252 164.299 122.55 165.145 121.326L163.273 120.246C162.877 120.768 162.157 121.146 161.257 121.146C160.033 121.146 159.043 120.642 158.719 119.454ZM158.683 117.654C158.953 116.502 159.799 115.836 161.041 115.836C162.013 115.836 162.985 116.358 163.273 117.654H158.683ZM172.04 113.748C170.834 113.748 169.898 114.198 169.358 115.008V114H167.036V123H169.358V118.14C169.358 116.574 170.204 115.908 171.338 115.908C172.382 115.908 173.12 116.538 173.12 117.762V123H175.442V117.474C175.442 115.08 173.948 113.748 172.04 113.748ZM181.529 123.252C183.293 123.252 184.823 122.316 185.597 120.912L183.581 119.76C183.221 120.498 182.447 120.948 181.511 120.948C180.125 120.948 179.099 119.922 179.099 118.5C179.099 117.06 180.125 116.034 181.511 116.034C182.429 116.034 183.203 116.502 183.563 117.24L185.561 116.07C184.823 114.684 183.293 113.748 181.529 113.748C178.793 113.748 176.777 115.818 176.777 118.5C176.777 121.182 178.793 123.252 181.529 123.252ZM188.466 119.454H195.252C195.306 119.148 195.342 118.842 195.342 118.5C195.342 115.854 193.452 113.748 190.788 113.748C187.962 113.748 186.036 115.818 186.036 118.5C186.036 121.182 187.944 123.252 190.968 123.252C192.696 123.252 194.046 122.55 194.892 121.326L193.02 120.246C192.624 120.768 191.904 121.146 191.004 121.146C189.78 121.146 188.79 120.642 188.466 119.454ZM188.43 117.654C188.7 116.502 189.546 115.836 190.788 115.836C191.76 115.836 192.732 116.358 193.02 117.654H188.43Z" fill="black"/>
<path d="M134.734 52.5624L129.526 54.2681V52.5624C129.526 51.8838 129.251 51.233 128.763 50.7532C128.275 50.2733 127.612 50.0038 126.922 50.0038H116.504C115.814 50.0038 115.151 50.2733 114.663 50.7532C114.175 51.233 113.9 51.8838 113.9 52.5624V62.7968C113.9 63.4754 114.175 64.1261 114.663 64.606C115.151 65.0858 115.814 65.3554 116.504 65.3554H126.922C127.612 65.3554 128.275 65.0858 128.763 64.606C129.251 64.1261 129.526 63.4754 129.526 62.7968V61.091L134.734 62.7968V52.5624Z" stroke="#006BFF" stroke-width="2.84679" stroke-linecap="round" stroke-linejoin="round"/>
<path d="M98 29.5793H147.344V72.3445H98V29.5793Z" stroke="#006BFF" stroke-width="2.84679" stroke-linecap="round" stroke-linejoin="round"/>
<path d="M98 42.7379H147.344" stroke="#006BFF" stroke-width="2.84679" stroke-linecap="round" stroke-linejoin="round"/>
<path d="M111.159 34.5138V23.0001" stroke="#006BFF" stroke-width="2.84679" stroke-linecap="round" stroke-linejoin="round"/>
<path d="M134.185 34.5138V23.0001" stroke="#006BFF" stroke-width="2.84679" stroke-linecap="round" stroke-linejoin="round"/>
<path d="M221.352 103.252C223.674 103.252 225.708 102.082 226.77 100.282L224.628 99.04C224.034 100.138 222.792 100.822 221.352 100.822C218.886 100.822 217.266 99.112 217.266 96.7C217.266 94.27 218.886 92.56 221.352 92.56C222.792 92.56 224.016 93.244 224.628 94.36L226.77 93.118C225.69 91.318 223.656 90.148 221.352 90.148C217.536 90.148 214.8 93.01 214.8 96.7C214.8 100.372 217.536 103.252 221.352 103.252ZM235.028 103H237.71L234.92 98.248C236.36 97.582 237.35 96.16 237.35 94.576C237.35 92.272 235.478 90.4 233.156 90.4H228.116V103H230.6V98.626H232.49L235.028 103ZM230.6 92.722H233.156C234.092 92.722 234.866 93.532 234.866 94.576C234.866 95.62 234.092 96.448 233.156 96.448H230.6V92.722ZM251.322 90.4H248.766L245.166 96.358L241.548 90.4H238.992V103H241.476V94.846L245.022 100.678H245.31L248.856 94.828V103H251.322V90.4ZM265.694 95.602H262.724V92.65H260.546V95.602H257.594V97.78H260.546V100.75H262.724V97.78H265.694V95.602ZM276.236 103.252C278.918 103.252 280.808 101.812 280.808 99.454C280.808 96.88 278.684 96.214 276.686 95.584C274.778 95.008 274.292 94.594 274.292 93.82C274.292 93.1 274.904 92.56 275.948 92.56C277.226 92.56 277.91 93.226 278.36 94.18L280.448 92.974C279.602 91.21 278.018 90.148 275.948 90.148C273.788 90.148 271.808 91.516 271.808 93.892C271.808 96.286 273.68 97.096 275.606 97.654C277.478 98.194 278.324 98.554 278.324 99.49C278.324 100.192 277.802 100.822 276.308 100.822C274.742 100.822 273.86 100.066 273.41 98.896L271.286 100.138C271.97 102.01 273.662 103.252 276.236 103.252ZM289.227 94V95.062C288.579 94.252 287.607 93.748 286.293 93.748C283.899 93.748 281.919 95.818 281.919 98.5C281.919 101.182 283.899 103.252 286.293 103.252C287.607 103.252 288.579 102.748 289.227 101.938V103H291.549V94H289.227ZM286.725 101.038C285.303 101.038 284.241 100.012 284.241 98.5C284.241 96.988 285.303 95.962 286.725 95.962C288.165 95.962 289.227 96.988 289.227 98.5C289.227 100.012 288.165 101.038 286.725 101.038ZM293.474 103H295.796V89.86H293.474V103ZM299.704 99.454H306.49C306.544 99.148 306.58 98.842 306.58 98.5C306.58 95.854 304.69 93.748 302.026 93.748C299.2 93.748 297.274 95.818 297.274 98.5C297.274 101.182 299.182 103.252 302.206 103.252C303.934 103.252 305.284 102.55 306.13 101.326L304.258 100.246C303.862 100.768 303.142 101.146 302.242 101.146C301.018 101.146 300.028 100.642 299.704 99.454ZM299.668 97.654C299.938 96.502 300.784 95.836 302.026 95.836C302.998 95.836 303.97 96.358 304.258 97.654H299.668ZM309.811 96.556C309.811 96.07 310.279 95.818 310.855 95.818C311.521 95.818 312.025 96.16 312.295 96.736L314.275 95.656C313.573 94.414 312.313 93.748 310.855 93.748C309.001 93.748 307.435 94.774 307.435 96.61C307.435 99.778 312.079 99.058 312.079 100.372C312.079 100.894 311.575 101.146 310.837 101.146C309.937 101.146 309.325 100.714 309.073 99.976L307.057 101.11C307.705 102.496 309.037 103.252 310.837 103.252C312.763 103.252 314.455 102.316 314.455 100.372C314.455 97.06 309.811 97.888 309.811 96.556ZM253.261 110.4H243.991V112.776H247.375V123H249.859V112.776H253.261V110.4ZM257.009 123.252C259.655 123.252 261.779 121.182 261.779 118.5C261.779 115.818 259.655 113.748 257.009 113.748C254.363 113.748 252.257 115.818 252.257 118.5C252.257 121.182 254.363 123.252 257.009 123.252ZM257.009 120.984C255.641 120.984 254.579 119.958 254.579 118.5C254.579 117.042 255.641 116.016 257.009 116.016C258.395 116.016 259.457 117.042 259.457 118.5C259.457 119.958 258.395 120.984 257.009 120.984ZM267.517 123.252C270.163 123.252 272.287 121.182 272.287 118.5C272.287 115.818 270.163 113.748 267.517 113.748C264.871 113.748 262.765 115.818 262.765 118.5C262.765 121.182 264.871 123.252 267.517 123.252ZM267.517 120.984C266.149 120.984 265.087 119.958 265.087 118.5C265.087 117.042 266.149 116.016 267.517 116.016C268.903 116.016 269.965 117.042 269.965 118.5C269.965 119.958 268.903 120.984 267.517 120.984ZM273.74 123H276.062V109.86H273.74V123ZM280.079 116.556C280.079 116.07 280.547 115.818 281.123 115.818C281.789 115.818 282.293 116.16 282.563 116.736L284.543 115.656C283.841 114.414 282.581 113.748 281.123 113.748C279.269 113.748 277.703 114.774 277.703 116.61C277.703 119.778 282.347 119.058 282.347 120.372C282.347 120.894 281.843 121.146 281.105 121.146C280.205 121.146 279.593 120.714 279.341 119.976L277.325 121.11C277.973 122.496 279.305 123.252 281.105 123.252C283.031 123.252 284.723 122.316 284.723 120.372C284.723 117.06 280.079 117.888 280.079 116.556Z" fill="black"/>
<path d="M276.187 72.3445L264.972 60.6444C263.987 59.6599 263.337 58.3905 263.114 57.016C262.891 55.6415 263.106 54.2317 263.728 52.9862V52.9862C264.199 52.0458 264.886 51.2307 265.733 50.608C266.58 49.9852 267.563 49.5727 268.601 49.4043C269.639 49.236 270.702 49.3167 271.703 49.6397C272.703 49.9628 273.613 50.5189 274.356 51.2624L276.187 53.0936L278.019 51.2624C278.762 50.5189 279.672 49.9628 280.672 49.6397C281.673 49.3167 282.736 49.236 283.774 49.4043C284.811 49.5727 285.795 49.9852 286.642 50.608C287.489 51.2307 288.176 52.0458 288.646 52.9862V52.9862C289.269 54.2317 289.484 55.6415 289.261 57.016C289.038 58.3905 288.388 59.6599 287.403 60.6444L276.187 72.3445Z" stroke="#006BFF" stroke-width="2.84679" stroke-linecap="round" stroke-linejoin="round"/>
<path d="M246.579 36.1586V55.8963H256.448" stroke="#006BFF" stroke-width="2.84679" stroke-linecap="round" stroke-linejoin="round"/>
<path d="M246.579 49.317L252.477 43.4198C252.782 43.1141 253.145 42.8716 253.544 42.7062C253.943 42.5407 254.371 42.4556 254.804 42.4556C255.236 42.4556 255.664 42.5407 256.063 42.7062C256.462 42.8716 256.825 43.1141 257.13 43.4198L258.405 44.694C258.758 45.0471 259.187 45.3151 259.66 45.4775C260.132 45.6399 260.636 45.6926 261.132 45.6315C261.628 45.5704 262.103 45.3972 262.522 45.1249C262.941 44.8527 263.292 44.4885 263.55 44.0602L264.335 42.7444" stroke="#006BFF" stroke-width="2.84679" stroke-linecap="round" stroke-linejoin="round"/>
<path d="M254.803 65.7651H243.29C242.417 65.7651 241.58 65.4186 240.964 64.8016C240.347 64.1847 240 63.348 240 62.4755V26.2896C240 25.4172 240.347 24.5804 240.964 23.9635C241.58 23.3466 242.417 23 243.29 23H266.6C267.472 23.0002 268.308 23.3465 268.925 23.9628L275.223 30.2613C275.839 30.878 276.186 31.7141 276.186 32.586V42.7378" stroke="#006BFF" stroke-width="2.84679" stroke-linecap="round" stroke-linejoin="round"/>
<path d="M475.491 103H478.191L473.763 90.4H470.685L466.275 103H468.957L469.713 100.732H474.735L475.491 103ZM470.505 98.41L472.233 93.262L473.961 98.41H470.505ZM486.655 90.4H477.385V92.776H480.769V103H483.253V92.776H486.655V90.4ZM491.812 103.252C494.494 103.252 496.384 101.812 496.384 99.454C496.384 96.88 494.26 96.214 492.262 95.584C490.354 95.008 489.868 94.594 489.868 93.82C489.868 93.1 490.48 92.56 491.524 92.56C492.802 92.56 493.486 93.226 493.936 94.18L496.024 92.974C495.178 91.21 493.594 90.148 491.524 90.148C489.364 90.148 487.384 91.516 487.384 93.892C487.384 96.286 489.256 97.096 491.182 97.654C493.054 98.194 493.9 98.554 493.9 99.49C493.9 100.192 493.378 100.822 491.884 100.822C490.318 100.822 489.436 100.066 488.986 98.896L486.862 100.138C487.546 102.01 489.238 103.252 491.812 103.252ZM510.028 95.602H507.058V92.65H504.88V95.602H501.928V97.78H504.88V100.75H507.058V97.78H510.028V95.602ZM455.002 123H457.684L454.894 118.248C456.334 117.582 457.324 116.16 457.324 114.576C457.324 112.272 455.452 110.4 453.13 110.4H448.09V123H450.574V118.626H452.464L455.002 123ZM450.574 112.722H453.13C454.066 112.722 454.84 113.532 454.84 114.576C454.84 115.62 454.066 116.448 453.13 116.448H450.574V112.722ZM460.364 119.454H467.15C467.204 119.148 467.24 118.842 467.24 118.5C467.24 115.854 465.35 113.748 462.686 113.748C459.86 113.748 457.934 115.818 457.934 118.5C457.934 121.182 459.842 123.252 462.866 123.252C464.594 123.252 465.944 122.55 466.79 121.326L464.918 120.246C464.522 120.768 463.802 121.146 462.902 121.146C461.678 121.146 460.688 120.642 460.364 119.454ZM460.328 117.654C460.598 116.502 461.444 115.836 462.686 115.836C463.658 115.836 464.63 116.358 464.918 117.654H460.328ZM472.895 123.252C474.659 123.252 476.189 122.316 476.963 120.912L474.947 119.76C474.587 120.498 473.813 120.948 472.877 120.948C471.491 120.948 470.465 119.922 470.465 118.5C470.465 117.06 471.491 116.034 472.877 116.034C473.795 116.034 474.569 116.502 474.929 117.24L476.927 116.07C476.189 114.684 474.659 113.748 472.895 113.748C470.159 113.748 468.143 115.818 468.143 118.5C468.143 121.182 470.159 123.252 472.895 123.252ZM480.403 115.548V114H478.081V123H480.403V118.698C480.403 116.808 481.933 116.268 483.139 116.412V113.82C482.005 113.82 480.871 114.324 480.403 115.548ZM490.257 114V118.86C490.257 120.426 489.411 121.092 488.277 121.092C487.233 121.092 486.495 120.462 486.495 119.238V114H484.173V119.526C484.173 121.92 485.667 123.252 487.575 123.252C488.781 123.252 489.717 122.802 490.257 121.992V123H492.579V114H490.257ZM495.678 112.92C496.47 112.92 497.118 112.272 497.118 111.498C497.118 110.724 496.47 110.058 495.678 110.058C494.904 110.058 494.256 110.724 494.256 111.498C494.256 112.272 494.904 112.92 495.678 112.92ZM494.526 123H496.848V114H494.526V123ZM503.941 116.232V114H501.907V111.48L499.585 112.182V114H498.019V116.232H499.585V119.976C499.585 122.406 500.683 123.36 503.941 123V120.894C502.609 120.966 501.907 120.948 501.907 119.976V116.232H503.941ZM506.55 112.92C507.342 112.92 507.99 112.272 507.99 111.498C507.99 110.724 507.342 110.058 506.55 110.058C505.776 110.058 505.128 110.724 505.128 111.498C505.128 112.272 505.776 112.92 506.55 112.92ZM505.398 123H507.72V114H505.398V123ZM514.669 113.748C513.463 113.748 512.527 114.198 511.987 115.008V114H509.665V123H511.987V118.14C511.987 116.574 512.833 115.908 513.967 115.908C515.011 115.908 515.749 116.538 515.749 117.762V123H518.071V117.474C518.071 115.08 516.577 113.748 514.669 113.748ZM526.768 114V115.116C526.138 114.27 525.166 113.748 523.888 113.748C521.332 113.748 519.406 115.836 519.406 118.356C519.406 120.894 521.332 122.964 523.888 122.964C525.166 122.964 526.138 122.442 526.768 121.596V122.568C526.768 123.99 525.868 124.782 524.41 124.782C523.024 124.782 522.43 124.224 522.052 123.522L520.072 124.656C520.864 126.114 522.412 126.852 524.338 126.852C526.714 126.852 529.036 125.52 529.036 122.568V114H526.768ZM524.248 120.822C522.79 120.822 521.728 119.796 521.728 118.356C521.728 116.934 522.79 115.908 524.248 115.908C525.706 115.908 526.768 116.934 526.768 118.356C526.768 119.796 525.706 120.822 524.248 120.822Z" fill="black"/>
<path d="M512.152 72.3993L512.367 69.9858C512.509 68.4234 512.077 66.8629 511.151 65.596C510.226 64.3291 508.871 63.4426 507.34 63.1023L499.486 61.3578V49.0064C499.486 48.4634 499.376 47.9261 499.163 47.4265C498.951 46.9269 498.64 46.4753 498.248 46.0988C497.857 45.7223 497.394 45.4285 496.887 45.2351C496.379 45.0417 495.838 44.9526 495.296 44.9731C494.773 44.9705 494.254 45.0744 493.773 45.2783C493.291 45.4823 492.856 45.7822 492.494 46.1597C492.131 46.5371 491.85 46.9844 491.666 47.4741C491.482 47.9639 491.4 48.4859 491.424 49.0085V68.7984L488.247 66.415C487.612 65.9408 486.827 65.7111 486.037 65.768C485.246 65.8249 484.503 66.1645 483.942 66.7248C483.382 67.285 483.042 68.0284 482.985 68.8188C482.927 69.6092 483.157 70.3938 483.63 71.029L484.652 72.3907" stroke="#006BFF" stroke-width="2.84679" stroke-linecap="round" stroke-linejoin="round"/>
<path d="M476.906 63.9454H467.227C466.371 63.9454 465.55 63.6054 464.945 63.0003C464.34 62.3952 464 61.5745 464 60.7188V27.2266C464 26.3709 464.34 25.5502 464.945 24.9451C465.55 24.3399 466.371 24 467.227 24H496.266C497.122 24 497.943 24.3399 498.548 24.9451C499.153 25.5502 499.493 26.3709 499.493 27.2266V38.5197" stroke="#006BFF" stroke-width="2.84679" stroke-linecap="round" stroke-linejoin="round"/>
<path d="M476.098 36.0999C476.098 36.8414 476.244 37.5757 476.528 38.2608C476.812 38.9458 477.227 39.5683 477.752 40.0927C478.276 40.617 478.899 41.0329 479.584 41.3167C480.269 41.6004 481.003 41.7465 481.745 41.7465C482.486 41.7465 483.22 41.6004 483.905 41.3167C484.59 41.0329 485.213 40.617 485.737 40.0927C486.262 39.5683 486.678 38.9458 486.961 38.2608C487.245 37.5757 487.391 36.8414 487.391 36.0999C487.391 35.3584 487.245 34.6242 486.961 33.9391C486.678 33.254 486.262 32.6315 485.737 32.1072C485.213 31.5829 484.59 31.167 483.905 30.8832C483.22 30.5994 482.486 30.4534 481.745 30.4534C481.003 30.4534 480.269 30.5994 479.584 30.8832C478.899 31.167 478.276 31.5829 477.752 32.1072C477.227 32.6315 476.812 33.254 476.528 33.9391C476.244 34.6242 476.098 35.3584 476.098 36.0999V36.0999Z" stroke="#006BFF" stroke-width="2.84679" stroke-linecap="round" stroke-linejoin="round"/>
<path d="M486.084 44.3665C484.734 43.7016 483.249 43.3571 481.745 43.3598C479.749 43.3633 477.803 43.9859 476.176 45.1417C474.549 46.2975 473.32 47.9295 472.659 49.813C472.289 50.8488 472.097 51.9397 472.091 53.0396" stroke="#006BFF" stroke-width="2.84679" stroke-linecap="round" stroke-linejoin="round"/>
<path d="M472.065 53.0396H484.971" stroke="#006BFF" stroke-width="2.84679" stroke-linecap="round" stroke-linejoin="round"/>
<path d="M368.128 106H370.828L366.4 93.4H363.322L358.912 106H361.594L362.35 103.732H367.372L368.128 106ZM363.142 101.41L364.87 96.262L366.598 101.41H363.142ZM376.569 93.4H371.871V106H374.355V101.86H376.569C378.999 101.86 380.871 99.988 380.871 97.63C380.871 95.272 378.999 93.4 376.569 93.4ZM376.569 99.538H374.355V95.722H376.569C377.631 95.722 378.405 96.532 378.405 97.63C378.405 98.71 377.631 99.538 376.569 99.538ZM382.309 93.4V106H384.793V93.4H382.309ZM388.979 99.556C388.979 99.07 389.447 98.818 390.023 98.818C390.689 98.818 391.193 99.16 391.463 99.736L393.443 98.656C392.741 97.414 391.481 96.748 390.023 96.748C388.169 96.748 386.603 97.774 386.603 99.61C386.603 102.778 391.247 102.058 391.247 103.372C391.247 103.894 390.743 104.146 390.005 104.146C389.105 104.146 388.493 103.714 388.241 102.976L386.225 104.11C386.873 105.496 388.205 106.252 390.005 106.252C391.931 106.252 393.623 105.316 393.623 103.372C393.623 100.06 388.979 100.888 388.979 99.556Z" fill="black"/>
<path d="M385.241 57.8774C385.241 58.7584 385.591 59.6033 386.214 60.2262C386.837 60.8491 387.682 61.1991 388.563 61.1991C389.444 61.1991 390.289 60.8491 390.912 60.2262C391.535 59.6033 391.885 58.7584 391.885 57.8774C391.885 56.9965 391.535 56.1516 390.912 55.5287C390.289 54.9057 389.444 54.5558 388.563 54.5558C387.682 54.5558 386.837 54.9057 386.214 55.5287C385.591 56.1516 385.241 56.9965 385.241 57.8774V57.8774Z" stroke="#006BFF" stroke-width="2.84679" stroke-linecap="round" stroke-linejoin="round"/>
<path d="M391.384 45.0337L392.365 48.2491C392.526 48.7832 392.883 49.2363 393.366 49.5164C393.848 49.7964 394.419 49.8825 394.962 49.7571L398.224 49.002C398.842 48.8634 399.488 48.9261 400.067 49.181C400.647 49.4358 401.129 49.8694 401.445 50.4183C401.76 50.9672 401.891 51.6026 401.819 52.2315C401.748 52.8605 401.476 53.4499 401.045 53.9136L398.765 56.3738C398.384 56.7836 398.172 57.3223 398.172 57.8819C398.172 58.4414 398.384 58.9802 398.765 59.3899L401.045 61.8501C401.477 62.3137 401.749 62.9034 401.822 63.5328C401.894 64.1622 401.763 64.7982 401.447 65.3477C401.132 65.8971 400.649 66.3311 400.069 66.5859C399.489 66.8408 398.842 66.9032 398.224 66.7639L394.962 66.0066C394.419 65.8823 393.849 65.9688 393.367 66.2487C392.884 66.5286 392.526 66.9811 392.365 67.5146L391.384 70.7211C391.202 71.328 390.829 71.86 390.321 72.2382C389.813 72.6164 389.196 72.8207 388.563 72.8207C387.929 72.8207 387.313 72.6164 386.804 72.2382C386.296 71.86 385.923 71.328 385.742 70.7211L384.763 67.5036C384.599 66.9713 384.24 66.5205 383.758 66.241C383.276 65.9615 382.707 65.8738 382.163 65.9955L378.903 66.7529C378.285 66.8921 377.639 66.8297 377.059 66.5749C376.479 66.32 375.996 65.886 375.68 65.3366C375.365 64.7872 375.234 64.1511 375.306 63.5217C375.378 62.8923 375.65 62.3026 376.082 61.839L378.363 59.3788C378.744 58.9691 378.956 58.4303 378.956 57.8708C378.956 57.3113 378.744 56.7725 378.363 56.3628L376.082 53.9025C375.65 53.4393 375.377 52.8496 375.304 52.22C375.232 51.5905 375.363 50.9542 375.679 50.4046C375.994 49.8551 376.478 49.4212 377.058 49.1668C377.639 48.9123 378.285 48.8507 378.903 48.9909L382.163 49.746C382.707 49.8715 383.278 49.7855 383.761 49.5055C384.244 49.2255 384.602 48.7723 384.763 48.238L385.742 45.0226C385.925 44.4162 386.298 43.8849 386.807 43.5076C387.316 43.1304 387.933 42.9274 388.567 42.9286C389.2 42.9298 389.817 43.1353 390.324 43.5145C390.832 43.8938 391.203 44.4265 391.384 45.0337V45.0337Z" stroke="#006BFF" stroke-width="2.84679" stroke-linecap="round" stroke-linejoin="round"/>
<path d="M401.316 42.0685C400.797 40.4702 399.912 39.0153 398.731 37.82C397.549 36.6247 396.105 35.7221 394.513 35.1843C392.921 34.6464 391.225 34.4882 389.561 34.7223C387.897 34.9564 386.311 35.5762 384.929 36.5324C384.345 33.4328 382.89 30.5637 380.735 28.2606C378.58 25.9575 375.814 24.3157 372.76 23.5273C369.706 22.7388 366.49 22.8363 363.49 23.8084C360.489 24.7804 357.827 26.5869 355.816 29.0163C353.804 31.4457 352.526 34.3978 352.131 37.527C351.736 40.6563 352.24 43.8334 353.584 46.6868C354.928 49.5401 357.057 51.9516 359.722 53.6392C362.387 55.3268 365.477 56.2208 368.631 56.2165" stroke="#006BFF" stroke-width="2.84679" stroke-linecap="round" stroke-linejoin="round"/>
<defs>
<filter id="filter0_d" x="0" y="0" width="601" height="156" filterUnits="userSpaceOnUse" color-interpolation-filters="sRGB">
<feFlood flood-opacity="0" result="BackgroundImageFix"/>
<feColorMatrix in="SourceAlpha" type="matrix" values="0 0 0 0 0 0 0 0 0 0 0 0 0 0 0 0 0 0 127 0"/>
<feOffset dy="4"/>
<feGaussianBlur stdDeviation="4.5"/>
<feColorMatrix type="matrix" values="0 0 0 0 0 0 0 0 0 0 0 0 0 0 0 0 0 0 0.25 0"/>
<feBlend mode="normal" in2="BackgroundImageFix" result="effect1_dropShadow"/>
<feBlend mode="normal" in="SourceGraphic" in2="effect1_dropShadow" result="shape"/>
</filter>
</defs>
</svg>
