<svg width="603" height="156" viewBox="0 0 603 156" fill="none" xmlns="http://www.w3.org/2000/svg">
<g filter="url(#filter0_d)">
<rect x="11" y="5" width="583" height="138" fill="#0099FF"/>
</g>
<mask id="mask0" mask-type="alpha" maskUnits="userSpaceOnUse" x="9" y="5" width="583" height="138">
<rect x="9" y="5" width="583" height="138" fill="#0AE8F0"/>
</mask>
<g mask="url(#mask0)">
<path d="M-82.5168 454.251L69.5535 474.092L71.6089 465.159C74.9289 450.763 74.6853 435.537 70.9027 421.012C67.12 406.487 59.9316 393.174 50.0599 382.413L-66.7013 255.011C-76.5721 244.25 -88.7793 236.421 -102.095 232.311C-115.41 228.201 -129.364 227.955 -142.552 231.598C-155.744 235.233 -169.699 234.98 -183.015 230.866C-196.331 226.752 -208.538 218.92 -218.41 208.158L-249.459 174.324C-259.326 163.561 -271.528 155.728 -284.841 151.612C-298.153 147.496 -312.105 147.243 -325.294 150.878L-481.456 193.909C-494.645 197.543 -506.606 204.936 -516.135 215.346C-525.665 225.756 -532.427 238.815 -535.741 253.21L-574.953 423.591C-578.273 437.988 -578.029 453.214 -574.247 467.739C-570.464 482.264 -563.276 495.576 -553.404 506.338L-436.643 633.74C-426.767 644.476 -414.564 652.284 -401.259 656.381C-387.953 660.478 -374.013 660.719 -360.836 657.082C-347.647 653.447 -333.695 653.697 -320.381 657.807C-307.067 661.917 -294.859 669.741 -284.985 680.495L-253.928 714.355C-244.547 724.616 -233.037 732.233 -220.45 736.511C-207.863 740.789 -194.6 741.591 -181.875 738.843L-165.227 527.241C-163.495 505.265 -153.812 485.235 -138.304 471.549C-122.796 457.864 -102.731 451.642 -82.5168 454.251Z" fill="black"/>
<path d="M142.82 52.8325H115.52V61.8285H124.516V89.2325H133.824V61.8285H142.82V52.8325ZM148.59 79.4045H166.53C166.79 78.3125 166.894 77.2725 166.894 76.1805C166.894 68.3805 161.278 62.5045 153.478 62.5045C145.366 62.5045 139.646 68.4845 139.646 76.2845C139.646 83.9805 145.21 89.9605 154.206 89.9605C158.834 89.9605 162.786 88.4005 165.386 85.1245L159.146 80.7565C157.898 81.9525 156.286 82.5765 154.414 82.5765C151.918 82.5765 149.63 81.9005 148.59 79.4045ZM148.486 73.4245C149.214 71.0325 151.086 69.7845 153.582 69.7845C155.662 69.7845 157.69 70.7205 158.47 73.4245H148.486ZM188.335 63.2325V65.6245C186.671 63.6485 184.279 62.5045 180.951 62.5045C173.983 62.5045 168.731 68.4325 168.731 76.2325C168.731 84.0325 173.983 89.9605 180.951 89.9605C184.279 89.9605 186.671 88.8165 188.335 86.8405V89.2325H196.967V63.2325H188.335ZM182.875 81.9005C179.651 81.9005 177.415 79.6125 177.415 76.2325C177.415 72.8525 179.651 70.5645 182.875 70.5645C186.099 70.5645 188.335 72.8525 188.335 76.2325C188.335 79.6125 186.099 81.9005 182.875 81.9005ZM231.3 62.5045C227.712 62.5045 225.372 63.8565 223.76 65.8325C222.356 63.7005 220.172 62.5045 217.104 62.5045C213.776 62.5045 211.488 63.8045 210.084 65.6765V63.2325H201.452V89.2325H210.084V75.0365C210.084 72.4365 211.28 70.6685 213.672 70.6685C215.856 70.6685 216.948 72.0725 216.948 74.3085V89.2325H225.58V75.0365C225.58 72.4365 226.724 70.6685 229.168 70.6685C231.352 70.6685 232.392 72.0725 232.392 74.3085V89.2325H241.076V73.3205C241.076 66.5605 237.28 62.5045 231.3 62.5045ZM269.786 90.0125C278.002 90.0125 283.618 85.8525 283.618 78.6245C283.618 70.9805 277.638 68.9005 272.022 67.2365C267.082 65.7805 265.782 64.8965 265.782 63.2845C265.782 61.9845 266.874 60.8925 269.162 60.8925C271.814 60.8925 273.686 62.2445 274.83 64.9485L282.63 60.3725C280.082 54.9125 275.142 52.0525 269.11 52.0525C262.038 52.0525 256.474 56.5245 256.474 63.3365C256.474 70.1485 261.57 73.0605 267.29 74.7245C271.918 76.0245 274.31 76.6485 274.31 78.7285C274.31 79.9765 273.322 81.1725 270.046 81.1725C266.406 81.1725 264.17 79.4565 262.87 76.3365L254.914 80.9645C256.838 86.3205 261.882 90.0125 269.786 90.0125ZM299.718 89.9605C304.866 89.9605 309.338 87.3085 311.574 83.2005L304.19 78.9365C303.41 80.4965 301.694 81.5365 299.666 81.5365C296.754 81.5365 294.57 79.3525 294.57 76.2325C294.57 73.1125 296.754 70.9285 299.666 70.9285C301.694 70.9285 303.358 71.9685 304.19 73.4765L311.574 69.2125C309.338 65.1565 304.866 62.5045 299.718 62.5045C291.814 62.5045 285.886 68.4845 285.886 76.2325C285.886 83.9805 291.814 89.9605 299.718 89.9605ZM329.693 62.5045C326.469 62.5045 323.921 63.7525 322.465 65.8325V52.8325H313.833V89.2325H322.465V75.4005C322.465 72.2805 324.077 70.6685 326.729 70.6685C328.965 70.6685 330.629 71.9685 330.629 74.7765V89.2325H339.261V73.6845C339.261 66.1965 335.049 62.5045 329.693 62.5045ZM351.071 79.4045H369.011C369.271 78.3125 369.375 77.2725 369.375 76.1805C369.375 68.3805 363.759 62.5045 355.959 62.5045C347.847 62.5045 342.127 68.4845 342.127 76.2845C342.127 83.9805 347.691 89.9605 356.687 89.9605C361.315 89.9605 365.267 88.4005 367.867 85.1245L361.627 80.7565C360.379 81.9525 358.767 82.5765 356.895 82.5765C354.399 82.5765 352.111 81.9005 351.071 79.4045ZM350.967 73.4245C351.695 71.0325 353.567 69.7845 356.063 69.7845C358.143 69.7845 360.171 70.7205 360.951 73.4245H350.967ZM390.817 52.8325V65.6245C389.153 63.6485 386.761 62.5045 383.433 62.5045C376.465 62.5045 371.213 68.4325 371.213 76.2325C371.213 84.0325 376.465 89.9605 383.433 89.9605C386.761 89.9605 389.153 88.8165 390.817 86.8405V89.2325H399.449V52.8325H390.817ZM385.357 81.9005C382.133 81.9005 379.897 79.6125 379.897 76.2325C379.897 72.8525 382.133 70.5645 385.357 70.5645C388.581 70.5645 390.817 72.8525 390.817 76.2325C390.817 79.6125 388.581 81.9005 385.357 81.9005ZM420.417 63.2325V77.0645C420.417 80.1845 418.805 81.7965 416.153 81.7965C413.917 81.7965 412.253 80.4965 412.253 77.6885V63.2325H403.621V78.7805C403.621 86.2685 407.833 89.9605 413.189 89.9605C416.413 89.9605 418.961 88.7125 420.417 86.6325V89.2325H429.049V63.2325H420.417ZM433.526 89.2325H442.158V51.2725H433.526V89.2325ZM450.931 61.1005C453.635 61.1005 455.923 58.8125 455.923 56.1085C455.923 53.4045 453.635 51.1685 450.931 51.1685C448.227 51.1685 445.939 53.4045 445.939 56.1085C445.939 58.8125 448.227 61.1005 450.931 61.1005ZM446.615 89.2325H455.247V63.2325H446.615V89.2325ZM475.565 62.5045C472.341 62.5045 469.793 63.7525 468.337 65.8325V63.2325H459.705V89.2325H468.337V75.4005C468.337 72.2805 469.949 70.6685 472.601 70.6685C474.837 70.6685 476.501 71.9685 476.501 74.7765V89.2325H485.133V73.6845C485.133 66.1965 480.921 62.5045 475.565 62.5045ZM507.863 63.2325V65.7285C506.199 63.7005 503.807 62.5045 500.583 62.5045C493.355 62.5045 488.207 68.4845 488.207 75.7125C488.207 82.9405 493.355 88.9205 500.583 88.9205C503.807 88.9205 506.199 87.7245 507.863 85.6965V88.1925C507.863 91.4165 505.523 92.8725 502.611 92.8725C499.803 92.8725 498.243 91.7285 497.099 89.9085L489.923 94.0685C492.263 98.2805 497.047 100.413 502.715 100.413C509.527 100.413 516.391 96.8765 516.391 88.1925V63.2325H507.863ZM502.351 81.1205C499.075 81.1205 496.839 78.8325 496.839 75.7125C496.839 72.5925 499.075 70.3045 502.351 70.3045C505.627 70.3045 507.863 72.5925 507.863 75.7125C507.863 78.8325 505.627 81.1205 502.351 81.1205Z" fill="white"/>
</g>
<defs>
<filter id="filter0_d" x="2" y="0" width="601" height="156" filterUnits="userSpaceOnUse" color-interpolation-filters="sRGB">
<feFlood flood-opacity="0" result="BackgroundImageFix"/>
<feColorMatrix in="SourceAlpha" type="matrix" values="0 0 0 0 0 0 0 0 0 0 0 0 0 0 0 0 0 0 127 0"/>
<feOffset dy="4"/>
<feGaussianBlur stdDeviation="4.5"/>
<feColorMatrix type="matrix" values="0 0 0 0 0 0 0 0 0 0 0 0 0 0 0 0 0 0 0.25 0"/>
<feBlend mode="normal" in2="BackgroundImageFix" result="effect1_dropShadow"/>
<feBlend mode="normal" in="SourceGraphic" in2="effect1_dropShadow" result="shape"/>
</filter>
</defs>
</svg>
