<svg width="601" height="156" viewBox="0 0 601 156" fill="none" xmlns="http://www.w3.org/2000/svg">
<g filter="url(#filter0_d)">
<rect x="9" y="5" width="583" height="138" fill="white"/>
</g>
<path d="M86.5764 112.651H89.2584L86.4684 107.899C87.9084 107.233 88.8984 105.811 88.8984 104.227C88.8984 101.923 87.0264 100.051 84.7044 100.051H79.6644V112.651H82.1484V108.277H84.0384L86.5764 112.651ZM82.1484 102.373H84.7044C85.6404 102.373 86.4144 103.183 86.4144 104.227C86.4144 105.271 85.6404 106.099 84.7044 106.099H82.1484V102.373ZM91.938 109.105H98.724C98.778 108.799 98.814 108.493 98.814 108.151C98.814 105.505 96.924 103.399 94.26 103.399C91.434 103.399 89.508 105.469 89.508 108.151C89.508 110.833 91.416 112.903 94.44 112.903C96.168 112.903 97.518 112.201 98.364 110.977L96.492 109.897C96.096 110.419 95.376 110.797 94.476 110.797C93.252 110.797 92.262 110.293 91.938 109.105ZM91.902 107.305C92.172 106.153 93.018 105.487 94.26 105.487C95.232 105.487 96.204 106.009 96.492 107.305H91.902ZM110.209 103.399C108.985 103.399 108.085 103.885 107.527 104.695C107.023 103.867 106.195 103.399 105.079 103.399C103.927 103.399 103.081 103.849 102.577 104.605V103.651H100.255V112.651H102.577V107.593C102.577 106.243 103.279 105.559 104.269 105.559C105.241 105.559 105.781 106.207 105.781 107.269V112.651H108.103V107.593C108.103 106.243 108.751 105.559 109.777 105.559C110.749 105.559 111.289 106.207 111.289 107.269V112.651H113.611V107.107C113.611 104.857 112.261 103.399 110.209 103.399ZM116.555 102.571C117.347 102.571 117.995 101.923 117.995 101.149C117.995 100.375 117.347 99.7094 116.555 99.7094C115.781 99.7094 115.133 100.375 115.133 101.149C115.133 101.923 115.781 102.571 116.555 102.571ZM115.403 112.651H117.725V103.651H115.403V112.651ZM124.674 103.399C123.468 103.399 122.532 103.849 121.992 104.659V103.651H119.67V112.651H121.992V107.791C121.992 106.225 122.838 105.559 123.972 105.559C125.016 105.559 125.754 106.189 125.754 107.413V112.651H128.076V107.125C128.076 104.731 126.582 103.399 124.674 103.399ZM136.701 100.051V104.713C136.053 103.885 135.099 103.399 133.785 103.399C131.373 103.399 129.393 105.469 129.393 108.151C129.393 110.833 131.373 112.903 133.785 112.903C135.099 112.903 136.053 112.417 136.701 111.589V112.651H139.023V100.051H136.701ZM134.217 110.689C132.777 110.689 131.715 109.663 131.715 108.151C131.715 106.639 132.777 105.613 134.217 105.613C135.639 105.613 136.701 106.639 136.701 108.151C136.701 109.663 135.639 110.689 134.217 110.689ZM142.929 109.105H149.715C149.769 108.799 149.805 108.493 149.805 108.151C149.805 105.505 147.915 103.399 145.251 103.399C142.425 103.399 140.499 105.469 140.499 108.151C140.499 110.833 142.407 112.903 145.431 112.903C147.159 112.903 148.509 112.201 149.355 110.977L147.483 109.897C147.087 110.419 146.367 110.797 145.467 110.797C144.243 110.797 143.253 110.293 142.929 109.105ZM142.893 107.305C143.163 106.153 144.009 105.487 145.251 105.487C146.223 105.487 147.195 106.009 147.483 107.305H142.893ZM153.568 105.199V103.651H151.246V112.651H153.568V108.349C153.568 106.459 155.098 105.919 156.304 106.063V103.471C155.17 103.471 154.036 103.975 153.568 105.199ZM159.342 106.207C159.342 105.721 159.81 105.469 160.386 105.469C161.052 105.469 161.556 105.811 161.826 106.387L163.806 105.307C163.104 104.065 161.844 103.399 160.386 103.399C158.532 103.399 156.966 104.425 156.966 106.261C156.966 109.429 161.61 108.709 161.61 110.023C161.61 110.545 161.106 110.797 160.368 110.797C159.468 110.797 158.856 110.365 158.604 109.627L156.588 110.761C157.236 112.147 158.568 112.903 160.368 112.903C162.294 112.903 163.986 111.967 163.986 110.023C163.986 106.711 159.342 107.539 159.342 106.207Z" fill="black"/>
<path d="M134.878 65.2914C135.311 67.6761 136.22 69.9327 137.544 71.907H99C99 71.907 102.212 66.5719 102.212 53.0087C102.212 48.4522 103.904 44.0823 106.916 40.8604C109.928 37.6385 114.012 35.8284 118.272 35.8284V30.6743" stroke="#006BFF" stroke-width="2.88807" stroke-linecap="round" stroke-linejoin="round"/>
<path d="M121.484 44.4187C121.484 48.0639 122.838 51.5597 125.247 54.1373C127.657 56.7148 130.924 58.1629 134.332 58.1629C137.739 58.1629 141.007 56.7148 143.417 54.1373C145.826 51.5597 147.18 48.0639 147.18 44.4187C147.18 40.7735 145.826 37.2776 143.417 34.7C141.007 32.1225 137.739 30.6744 134.332 30.6744C130.924 30.6744 127.657 32.1225 125.247 34.7C122.838 37.2776 121.484 40.7735 121.484 44.4187V44.4187Z" stroke="#006BFF" stroke-width="2.88807" stroke-linecap="round" stroke-linejoin="round"/>
<path d="M134.332 39.2646V47.8548H139.15" stroke="#006BFF" stroke-width="2.88807" stroke-linecap="round" stroke-linejoin="round"/>
<path d="M113.984 78.7791C114.256 79.7702 114.821 80.6405 115.594 81.2595C116.367 81.8786 117.307 82.2132 118.272 82.2132C119.238 82.2132 120.178 81.8786 120.951 81.2595C121.724 80.6405 122.288 79.7702 122.56 78.7791" stroke="#006BFF" stroke-width="2.88807" stroke-linecap="round" stroke-linejoin="round"/>
<path d="M267.169 101.823V99.4468H259.645V112.047H262.129V107.187H267.025V104.811H262.129V101.823H267.169ZM272.975 112.299C275.621 112.299 277.745 110.229 277.745 107.547C277.745 104.865 275.621 102.795 272.975 102.795C270.329 102.795 268.223 104.865 268.223 107.547C268.223 110.229 270.329 112.299 272.975 112.299ZM272.975 110.031C271.607 110.031 270.545 109.005 270.545 107.547C270.545 106.089 271.607 105.063 272.975 105.063C274.361 105.063 275.423 106.089 275.423 107.547C275.423 109.005 274.361 110.031 272.975 110.031ZM279.199 112.047H281.521V98.9068H279.199V112.047ZM283.466 112.047H285.788V98.9068H283.466V112.047ZM292.017 112.299C294.663 112.299 296.787 110.229 296.787 107.547C296.787 104.865 294.663 102.795 292.017 102.795C289.371 102.795 287.265 104.865 287.265 107.547C287.265 110.229 289.371 112.299 292.017 112.299ZM292.017 110.031C290.649 110.031 289.587 109.005 289.587 107.547C289.587 106.089 290.649 105.063 292.017 105.063C293.403 105.063 294.465 106.089 294.465 107.547C294.465 109.005 293.403 110.031 292.017 110.031ZM308.023 103.047L306.493 108.591L304.855 103.047H302.659L301.021 108.573L299.491 103.047H297.025L299.887 112.047H302.101L303.757 106.593L305.413 112.047H307.627L310.489 103.047H308.023ZM311.317 107.727H318.067V105.495H311.317V107.727ZM326.057 103.047V107.907C326.057 109.473 325.211 110.139 324.077 110.139C323.033 110.139 322.295 109.509 322.295 108.285V103.047H319.973V108.573C319.973 110.967 321.467 112.299 323.375 112.299C324.581 112.299 325.517 111.849 326.057 111.039V112.047H328.379V103.047H326.057ZM335.564 102.795C334.25 102.795 333.296 103.281 332.648 104.109V103.047H330.326V115.647H332.648V110.985C333.296 111.813 334.25 112.299 335.564 112.299C337.976 112.299 339.956 110.229 339.956 107.547C339.956 104.865 337.976 102.795 335.564 102.795ZM335.132 110.085C333.71 110.085 332.648 109.059 332.648 107.547C332.648 106.035 333.71 105.009 335.132 105.009C336.572 105.009 337.634 106.035 337.634 107.547C337.634 109.059 336.572 110.085 335.132 110.085ZM343.362 105.603C343.362 105.117 343.83 104.865 344.406 104.865C345.072 104.865 345.576 105.207 345.846 105.783L347.826 104.703C347.124 103.461 345.864 102.795 344.406 102.795C342.552 102.795 340.986 103.821 340.986 105.657C340.986 108.825 345.63 108.105 345.63 109.419C345.63 109.941 345.126 110.193 344.388 110.193C343.488 110.193 342.876 109.761 342.624 109.023L340.608 110.157C341.256 111.543 342.588 112.299 344.388 112.299C346.314 112.299 348.006 111.363 348.006 109.419C348.006 106.107 343.362 106.935 343.362 105.603Z" fill="black"/>
<path d="M272 35.8722H320.179V80.5409H272V35.8722Z" stroke="#006BFF" stroke-width="2.88807" stroke-linejoin="round"/>
<path d="M272 49.6165H320.179" stroke="#006BFF" stroke-width="2.88807" stroke-linejoin="round"/>
<path d="M284.848 41.0262V29" stroke="#006BFF" stroke-width="2.88807" stroke-linecap="round" stroke-linejoin="round"/>
<path d="M307.332 41.0262V29" stroke="#006BFF" stroke-width="2.88807" stroke-linecap="round" stroke-linejoin="round"/>
<path d="M294.683 63.3608H289.664V56.4886" stroke="#006BFF" stroke-width="2.88807" stroke-linecap="round" stroke-linejoin="round"/>
<path d="M289.918 63.3608C290.345 61.4693 291.333 59.7769 292.736 58.5378C294.138 57.2986 295.878 56.5796 297.695 56.4886C299.054 56.4886 300.39 56.8573 301.579 57.5602C302.768 58.2631 303.771 59.2773 304.494 60.5078C305.217 61.7383 305.636 63.1449 305.713 64.5959C305.789 66.047 305.52 67.495 304.931 68.8046C304.342 70.1141 303.451 71.2423 302.344 72.0835C301.236 72.9248 299.946 73.4516 298.597 73.6147C297.247 73.7777 295.88 73.5717 294.625 73.0159C293.369 72.4601 292.266 71.5727 291.419 70.4367" stroke="#006BFF" stroke-width="2.88807" stroke-linecap="round" stroke-linejoin="round"/>
<path d="M423.33 100.051V107.737L417.93 100.051H416.04V112.651H418.524V104.947L423.924 112.651H425.814V100.051H423.33ZM432.147 112.903C434.793 112.903 436.917 110.833 436.917 108.151C436.917 105.469 434.793 103.399 432.147 103.399C429.501 103.399 427.395 105.469 427.395 108.151C427.395 110.833 429.501 112.903 432.147 112.903ZM432.147 110.635C430.779 110.635 429.717 109.609 429.717 108.151C429.717 106.693 430.779 105.667 432.147 105.667C433.533 105.667 434.595 106.693 434.595 108.151C434.595 109.609 433.533 110.635 432.147 110.635ZM443.325 105.883V103.651H441.291V101.131L438.969 101.833V103.651H437.403V105.883H438.969V109.627C438.969 112.057 440.067 113.011 443.325 112.651V110.545C441.993 110.617 441.291 110.599 441.291 109.627V105.883H443.325ZM445.935 102.571C446.727 102.571 447.375 101.923 447.375 101.149C447.375 100.375 446.727 99.7094 445.935 99.7094C445.161 99.7094 444.513 100.375 444.513 101.149C444.513 101.923 445.161 102.571 445.935 102.571ZM444.783 112.651H447.105V103.651H444.783V112.651ZM456.952 103.651H451.984V103.561C451.984 102.337 452.686 102.031 453.892 102.031C454.54 102.031 455.242 102.085 455.998 102.175V100.051C455.26 99.8894 454.576 99.7994 453.892 99.7994C451.03 99.7994 449.662 101.077 449.662 103.561V103.651H448.366V105.883H449.662V112.651H451.984V105.883H454.63V112.651H456.952V103.651ZM463.173 112.903C464.937 112.903 466.467 111.967 467.241 110.563L465.225 109.411C464.865 110.149 464.091 110.599 463.155 110.599C461.769 110.599 460.743 109.573 460.743 108.151C460.743 106.711 461.769 105.685 463.155 105.685C464.073 105.685 464.847 106.153 465.207 106.891L467.205 105.721C466.467 104.335 464.937 103.399 463.173 103.399C460.437 103.399 458.421 105.469 458.421 108.151C458.421 110.833 460.437 112.903 463.173 112.903ZM474.989 103.651V104.713C474.341 103.903 473.369 103.399 472.055 103.399C469.661 103.399 467.681 105.469 467.681 108.151C467.681 110.833 469.661 112.903 472.055 112.903C473.369 112.903 474.341 112.399 474.989 111.589V112.651H477.311V103.651H474.989ZM472.487 110.689C471.065 110.689 470.003 109.663 470.003 108.151C470.003 106.639 471.065 105.613 472.487 105.613C473.927 105.613 474.989 106.639 474.989 108.151C474.989 109.663 473.927 110.689 472.487 110.689ZM484.384 105.883V103.651H482.35V101.131L480.028 101.833V103.651H478.462V105.883H480.028V109.627C480.028 112.057 481.126 113.011 484.384 112.651V110.545C483.052 110.617 482.35 110.599 482.35 109.627V105.883H484.384ZM486.993 102.571C487.785 102.571 488.433 101.923 488.433 101.149C488.433 100.375 487.785 99.7094 486.993 99.7094C486.219 99.7094 485.571 100.375 485.571 101.149C485.571 101.923 486.219 102.571 486.993 102.571ZM485.841 112.651H488.163V103.651H485.841V112.651ZM494.393 112.903C497.039 112.903 499.163 110.833 499.163 108.151C499.163 105.469 497.039 103.399 494.393 103.399C491.747 103.399 489.641 105.469 489.641 108.151C489.641 110.833 491.747 112.903 494.393 112.903ZM494.393 110.635C493.025 110.635 491.963 109.609 491.963 108.151C491.963 106.693 493.025 105.667 494.393 105.667C495.779 105.667 496.841 106.693 496.841 108.151C496.841 109.609 495.779 110.635 494.393 110.635ZM505.62 103.399C504.414 103.399 503.478 103.849 502.938 104.659V103.651H500.616V112.651H502.938V107.791C502.938 106.225 503.784 105.559 504.918 105.559C505.962 105.559 506.7 106.189 506.7 107.413V112.651H509.022V107.125C509.022 104.731 507.528 103.399 505.62 103.399ZM512.967 106.207C512.967 105.721 513.435 105.469 514.011 105.469C514.677 105.469 515.181 105.811 515.451 106.387L517.431 105.307C516.729 104.065 515.469 103.399 514.011 103.399C512.157 103.399 510.591 104.425 510.591 106.261C510.591 109.429 515.235 108.709 515.235 110.023C515.235 110.545 514.731 110.797 513.993 110.797C513.093 110.797 512.481 110.365 512.229 109.627L510.213 110.761C510.861 112.147 512.193 112.903 513.993 112.903C515.919 112.903 517.611 111.967 517.611 110.023C517.611 106.711 512.967 107.539 512.967 106.207Z" fill="black"/>
<path d="M480.698 57.1155V80.2698C480.697 82.0879 480.021 83.8313 478.819 85.1166C477.618 86.402 475.988 87.124 474.288 87.124H458.964C458.123 87.1243 457.289 86.9473 456.512 86.603C455.734 86.2587 455.027 85.7539 454.432 85.1173C453.837 84.4808 453.365 83.7251 453.043 82.8934C452.72 82.0616 452.555 81.1701 452.555 80.2698V51.4454" stroke="#006BFF" stroke-width="2.88807" stroke-linecap="round" stroke-linejoin="round"/>
<path d="M452.555 75.8342H480.698" stroke="#006BFF" stroke-width="2.88807" stroke-linecap="round" stroke-linejoin="round"/>
<path d="M466.496 55.2763C467.011 55.8293 467.623 56.2678 468.296 56.5667C468.97 56.8655 469.693 57.0187 470.422 57.0175H473.661V64.5441L480.788 57.0175H485.694C487.167 57.0175 488.58 56.3916 489.622 55.2776C490.664 54.1635 491.25 52.6524 491.25 51.0765V42.2628C491.25 40.687 490.665 39.1756 489.624 38.061C488.582 36.9465 487.17 36.32 485.697 36.3193H477.179" stroke="#006BFF" stroke-width="2.88807" stroke-linecap="round" stroke-linejoin="round"/>
<path d="M474.544 45.7277C474.37 45.7277 474.2 45.7828 474.055 45.8862C473.91 45.9896 473.798 46.1365 473.731 46.3084C473.664 46.4804 473.647 46.6695 473.681 46.852C473.715 47.0345 473.799 47.2022 473.922 47.3337C474.045 47.4653 474.201 47.5549 474.372 47.5912C474.543 47.6275 474.719 47.6089 474.88 47.5377C475.041 47.4665 475.178 47.3459 475.275 47.1912C475.371 47.0365 475.423 46.8546 475.423 46.6685C475.423 46.419 475.33 46.1797 475.165 46.0032C475 45.8268 474.777 45.7277 474.544 45.7277" stroke="#006BFF" stroke-width="2.88807" stroke-linecap="round" stroke-linejoin="round"/>
<path d="M483.336 45.7277C483.163 45.7277 482.993 45.7828 482.848 45.8862C482.703 45.9896 482.591 46.1365 482.524 46.3084C482.457 46.4804 482.44 46.6695 482.474 46.852C482.508 47.0345 482.592 47.2022 482.715 47.3337C482.838 47.4653 482.994 47.5549 483.165 47.5912C483.336 47.6275 483.512 47.6089 483.673 47.5377C483.834 47.4665 483.971 47.3459 484.068 47.1912C484.164 47.0365 484.216 46.8546 484.216 46.6685C484.216 46.419 484.123 46.1797 483.958 46.0032C483.793 45.8268 483.57 45.7277 483.336 45.7277Z" stroke="#006BFF" stroke-width="2.88807" stroke-linecap="round" stroke-linejoin="round"/>
<path d="M447.556 30.6743H462.83C464.304 30.6743 465.717 31.3005 466.759 32.4151C467.801 33.5298 468.386 35.0415 468.386 36.6178V43.5498C468.386 45.1257 467.8 46.6368 466.758 47.7509C465.716 48.865 464.304 49.4908 462.83 49.4908H457.833V57.0174L450.703 49.4908H447.556C446.826 49.4911 446.104 49.3377 445.43 49.0393C444.756 48.7409 444.143 48.3033 443.627 47.7516C443.111 47.1999 442.702 46.5449 442.423 45.8239C442.144 45.103 442 44.3302 442 43.5498V36.6178C442 35.0415 442.585 33.5298 443.627 32.4151C444.669 31.3005 446.082 30.6743 447.556 30.6743V30.6743Z" stroke="#006BFF" stroke-width="2.88807" stroke-linecap="round" stroke-linejoin="round"/>
<path d="M459.883 40.0828C460.057 40.0828 460.227 40.1379 460.372 40.2413C460.517 40.3447 460.629 40.4916 460.696 40.6636C460.762 40.8355 460.78 41.0246 460.746 41.2071C460.712 41.3896 460.628 41.5573 460.505 41.6889C460.382 41.8204 460.226 41.91 460.055 41.9463C459.884 41.9826 459.708 41.964 459.547 41.8928C459.386 41.8216 459.249 41.701 459.152 41.5463C459.055 41.3916 459.004 41.2097 459.004 41.0236C459.004 40.7741 459.097 40.5348 459.261 40.3583C459.426 40.1819 459.65 40.0828 459.883 40.0828" stroke="#006BFF" stroke-width="2.88807" stroke-linecap="round" stroke-linejoin="round"/>
<path d="M450.504 40.0828C450.678 40.0828 450.848 40.1379 450.993 40.2413C451.138 40.3447 451.25 40.4916 451.317 40.6636C451.384 40.8355 451.401 41.0246 451.367 41.2071C451.333 41.3896 451.249 41.5573 451.126 41.6889C451.003 41.8204 450.847 41.91 450.676 41.9463C450.505 41.9826 450.329 41.964 450.168 41.8928C450.007 41.8216 449.87 41.701 449.773 41.5463C449.677 41.3916 449.625 41.2097 449.625 41.0236C449.625 40.7741 449.718 40.5348 449.883 40.3583C450.048 40.1819 450.271 40.0828 450.504 40.0828Z" stroke="#006BFF" stroke-width="2.88807" stroke-linecap="round" stroke-linejoin="round"/>
<defs>
<filter id="filter0_d" x="0" y="0" width="601" height="156" filterUnits="userSpaceOnUse" color-interpolation-filters="sRGB">
<feFlood flood-opacity="0" result="BackgroundImageFix"/>
<feColorMatrix in="SourceAlpha" type="matrix" values="0 0 0 0 0 0 0 0 0 0 0 0 0 0 0 0 0 0 127 0"/>
<feOffset dy="4"/>
<feGaussianBlur stdDeviation="4.5"/>
<feColorMatrix type="matrix" values="0 0 0 0 0 0 0 0 0 0 0 0 0 0 0 0 0 0 0.25 0"/>
<feBlend mode="normal" in2="BackgroundImageFix" result="effect1_dropShadow"/>
<feBlend mode="normal" in="SourceGraphic" in2="effect1_dropShadow" result="shape"/>
</filter>
</defs>
</svg>
