<svg width="603" height="521" viewBox="0 0 603 521" fill="none" xmlns="http://www.w3.org/2000/svg">
<g filter="url(#filter0_d)">
<rect x="11" y="5" width="583" height="503" fill="#006BFF"/>
</g>
<mask id="mask0" mask-type="alpha" maskUnits="userSpaceOnUse" x="9" y="5" width="583" height="503">
<rect x="9" y="5" width="583" height="503" fill="#0AE8F0"/>
</mask>
<g mask="url(#mask0)">
<path d="M-154.213 489.871L-170.535 683.548L-22.3836 645.374C-9.17558 641.971 2.80248 635.048 12.3457 625.299C21.8888 615.551 28.6606 603.322 31.9798 589.842L66.4041 450.235L-84.0859 431.922C-101.22 429.863 -118.224 434.796 -131.37 445.64C-144.517 456.483 -152.733 472.352 -154.216 489.768" fill="black"/>
<path d="M-82.5182 424.952L69.552 443.499L71.6075 435.149C74.9275 421.691 74.6839 407.458 70.9013 393.881C67.1186 380.303 59.9302 367.859 50.0585 357.799L-66.7027 238.706C-76.5736 228.647 -88.7807 221.328 -102.096 217.486C-115.412 213.644 -129.365 213.414 -142.554 216.819C-155.746 220.218 -169.701 219.982 -183.017 216.136C-196.332 212.29 -208.54 204.969 -218.412 194.909L-249.461 163.281C-259.327 153.22 -271.53 145.898 -284.842 142.05C-298.154 138.203 -312.107 137.966 -325.295 141.364L-481.457 181.589C-494.646 184.986 -506.607 191.897 -516.137 201.628C-525.666 211.359 -532.428 223.566 -535.742 237.023L-574.954 396.292C-578.274 409.75 -578.031 423.983 -574.248 437.56C-570.465 451.138 -563.277 463.582 -553.405 473.642L-436.644 592.735C-426.768 602.771 -414.566 610.07 -401.26 613.899C-387.955 617.729 -374.014 617.955 -360.837 614.555C-347.648 611.157 -333.696 611.391 -320.382 615.233C-307.068 619.074 -294.861 626.389 -284.986 636.441L-253.93 668.093C-244.548 677.684 -233.038 684.805 -220.451 688.804C-207.864 692.803 -194.602 693.552 -181.877 690.984L-165.228 493.182C-163.497 472.639 -153.814 453.915 -138.306 441.122C-122.798 428.329 -102.733 422.514 -82.5182 424.952Z" fill="black"/>
<path d="M189.206 453.125L67.8441 438.356L64.9751 449.964L188.18 464.988C205.285 467.084 221.106 475.992 232.171 489.756C243.236 503.519 248.641 521.015 247.201 538.402L223.847 816.341C222.36 833.719 214.156 849.552 201.032 860.372C187.909 871.193 170.936 876.119 153.831 874.071L-119.619 840.771C-136.721 838.668 -152.538 829.759 -163.602 815.997C-174.665 802.235 -180.073 784.743 -178.639 767.357L-171.605 682.714L-179.827 684.832C-181.08 685.155 -182.332 685.477 -183.648 685.66L-190.363 765.815C-192.067 786.357 -185.68 807.026 -172.604 823.284C-159.528 839.542 -140.833 850.059 -120.624 852.524L152.785 885.86C172.997 888.285 193.054 882.465 208.56 869.677C224.066 856.888 233.755 838.175 235.503 817.639L258.863 539.725C260.561 519.184 254.171 498.518 241.097 482.262C228.022 466.006 209.331 455.488 189.125 453.016" fill="#0AE8F0"/>
<path d="M-170.495 683.707L-154.199 489.912C-152.715 472.494 -144.499 456.624 -131.351 445.779C-118.204 434.934 -101.198 430.001 -84.0626 432.06L66.4396 450.375L69.3136 438.743L-82.9881 420.16C-103.234 417.717 -123.329 423.544 -138.86 436.361C-154.392 449.178 -164.09 467.938 -165.824 488.519L-182.519 686.805C-181.24 686.476 -179.945 686.299 -178.691 685.976L-170.495 683.707Z" fill="#006BFF"/>
<path d="M116.54 179.78C127.148 179.78 135.624 171.512 135.624 160.8C135.624 150.088 127.148 141.82 116.54 141.82C105.932 141.82 97.456 150.088 97.456 160.8C97.456 171.512 105.932 179.78 116.54 179.78ZM116.54 170.68C110.976 170.68 106.712 166.624 106.712 160.8C106.712 154.976 110.976 150.92 116.54 150.92C122.104 150.92 126.368 154.976 126.368 160.8C126.368 166.624 122.104 170.68 116.54 170.68ZM155.796 153V166.832C155.796 169.952 154.184 171.564 151.532 171.564C149.296 171.564 147.632 170.264 147.632 167.456V153H139V168.548C139 176.036 143.212 179.728 148.568 179.728C151.792 179.728 154.34 178.48 155.796 176.4V179H164.428V153H155.796ZM185.025 161.268V153H179.617V145.72L170.985 148.32V153H167.085V161.268H170.985V169.016C170.985 177.024 174.417 180.3 185.025 179V171.2C181.541 171.408 179.617 171.252 179.617 168.808V161.268H185.025ZM204.866 152.272C201.538 152.272 199.146 153.416 197.482 155.392V153H188.85V189.4H197.482V176.608C199.146 178.584 201.538 179.728 204.866 179.728C211.834 179.728 217.086 173.8 217.086 166C217.086 158.2 211.834 152.272 204.866 152.272ZM202.942 171.668C199.718 171.668 197.482 169.38 197.482 166C197.482 162.62 199.718 160.332 202.942 160.332C206.166 160.332 208.402 162.62 208.402 166C208.402 169.38 206.166 171.668 202.942 171.668ZM228.018 169.172H245.958C246.218 168.08 246.322 167.04 246.322 165.948C246.322 158.148 240.706 152.272 232.906 152.272C224.794 152.272 219.074 158.252 219.074 166.052C219.074 173.748 224.638 179.728 233.634 179.728C238.262 179.728 242.214 178.168 244.814 174.892L238.574 170.524C237.326 171.72 235.714 172.344 233.842 172.344C231.346 172.344 229.058 171.668 228.018 169.172ZM227.914 163.192C228.642 160.8 230.514 159.552 233.01 159.552C235.09 159.552 237.118 160.488 237.898 163.192H227.914ZM258.141 157.836V153H249.509V179H258.141V168.236C258.141 163.088 262.509 161.528 265.941 162.048V152.48C262.457 152.48 259.181 154.3 258.141 157.836ZM283.356 149.828V141.82C274.516 141.3 270.252 145.72 270.252 153H266.976V161.268H270.252V179H278.884V161.268H283.356V153H278.884C278.884 150.608 280.6 149.62 283.356 149.828ZM297.465 179.728C305.213 179.728 311.349 173.748 311.349 166C311.349 158.252 305.213 152.272 297.465 152.272C289.769 152.272 283.581 158.252 283.581 166C283.581 173.748 289.821 179.728 297.465 179.728ZM297.465 171.408C294.501 171.408 292.265 169.224 292.265 166C292.265 162.776 294.501 160.592 297.465 160.592C300.481 160.592 302.717 162.776 302.717 166C302.717 169.224 300.481 171.408 297.465 171.408ZM323.257 157.836V153H314.625V179H323.257V168.236C323.257 163.088 327.625 161.528 331.057 162.048V152.48C327.573 152.48 324.297 154.3 323.257 157.836ZM363.656 152.272C360.068 152.272 357.728 153.624 356.116 155.6C354.712 153.468 352.528 152.272 349.46 152.272C346.132 152.272 343.844 153.572 342.44 155.444V153H333.808V179H342.44V164.804C342.44 162.204 343.636 160.436 346.028 160.436C348.212 160.436 349.304 161.84 349.304 164.076V179H357.936V164.804C357.936 162.204 359.08 160.436 361.524 160.436C363.708 160.436 364.748 161.84 364.748 164.076V179H373.432V163.088C373.432 156.328 369.636 152.272 363.656 152.272ZM404.951 161.268V153H399.543V145.72L390.911 148.32V153H387.011V161.268H390.911V169.016C390.911 177.024 394.343 180.3 404.951 179V171.2C401.467 171.408 399.543 171.252 399.543 168.808V161.268H404.951ZM424.28 152.272C421.056 152.272 418.508 153.52 417.052 155.6V142.6H408.42V179H417.052V165.168C417.052 162.048 418.664 160.436 421.316 160.436C423.552 160.436 425.216 161.736 425.216 164.544V179H433.848V163.452C433.848 155.964 429.636 152.272 424.28 152.272ZM445.659 169.172H463.599C463.859 168.08 463.963 167.04 463.963 165.948C463.963 158.148 458.347 152.272 450.547 152.272C442.435 152.272 436.715 158.252 436.715 166.052C436.715 173.748 442.279 179.728 451.275 179.728C455.903 179.728 459.855 178.168 462.455 174.892L456.215 170.524C454.967 171.72 453.355 172.344 451.483 172.344C448.987 172.344 446.699 171.668 445.659 169.172ZM445.555 163.192C446.283 160.8 448.155 159.552 450.651 159.552C452.731 159.552 454.759 160.488 455.539 163.192H445.555ZM111.08 243.728C116.228 243.728 120.7 241.076 122.936 236.968L115.552 232.704C114.772 234.264 113.056 235.304 111.028 235.304C108.116 235.304 105.932 233.12 105.932 230C105.932 226.88 108.116 224.696 111.028 224.696C113.056 224.696 114.72 225.736 115.552 227.244L122.936 222.98C120.7 218.924 116.228 216.272 111.08 216.272C103.176 216.272 97.248 222.252 97.248 230C97.248 237.748 103.176 243.728 111.08 243.728ZM137.323 243.728C145.071 243.728 151.207 237.748 151.207 230C151.207 222.252 145.071 216.272 137.323 216.272C129.627 216.272 123.439 222.252 123.439 230C123.439 237.748 129.679 243.728 137.323 243.728ZM137.323 235.408C134.359 235.408 132.123 233.224 132.123 230C132.123 226.776 134.359 224.592 137.323 224.592C140.339 224.592 142.575 226.776 142.575 230C142.575 233.224 140.339 235.408 137.323 235.408ZM184.331 216.272C180.743 216.272 178.403 217.624 176.791 219.6C175.387 217.468 173.203 216.272 170.135 216.272C166.807 216.272 164.519 217.572 163.115 219.444V217H154.483V243H163.115V228.804C163.115 226.204 164.311 224.436 166.703 224.436C168.887 224.436 169.979 225.84 169.979 228.076V243H178.611V228.804C178.611 226.204 179.755 224.436 182.199 224.436C184.383 224.436 185.423 225.84 185.423 228.076V243H194.107V227.088C194.107 220.328 190.311 216.272 184.331 216.272ZM214.261 216.272C210.933 216.272 208.541 217.416 206.877 219.392V217H198.245V253.4H206.877V240.608C208.541 242.584 210.933 243.728 214.261 243.728C221.229 243.728 226.481 237.8 226.481 230C226.481 222.2 221.229 216.272 214.261 216.272ZM212.337 235.668C209.113 235.668 206.877 233.38 206.877 230C206.877 226.62 209.113 224.332 212.337 224.332C215.561 224.332 217.797 226.62 217.797 230C217.797 233.38 215.561 235.668 212.337 235.668ZM237.413 233.172H255.353C255.613 232.08 255.717 231.04 255.717 229.948C255.717 222.148 250.101 216.272 242.301 216.272C234.189 216.272 228.469 222.252 228.469 230.052C228.469 237.748 234.033 243.728 243.029 243.728C247.657 243.728 251.609 242.168 254.209 238.892L247.969 234.524C246.721 235.72 245.109 236.344 243.237 236.344C240.741 236.344 238.453 235.668 237.413 233.172ZM237.309 227.192C238.037 224.8 239.909 223.552 242.405 223.552C244.485 223.552 246.513 224.488 247.293 227.192H237.309ZM274.364 225.268V217H268.956V209.72L260.324 212.32V217H256.424V225.268H260.324V233.016C260.324 241.024 263.756 244.3 274.364 243V235.2C270.88 235.408 268.956 235.252 268.956 232.808V225.268H274.364ZM282.149 214.868C284.853 214.868 287.141 212.58 287.141 209.876C287.141 207.172 284.853 204.936 282.149 204.936C279.445 204.936 277.157 207.172 277.157 209.876C277.157 212.58 279.445 214.868 282.149 214.868ZM277.833 243H286.465V217H277.833V243ZM307.042 225.268V217H301.634V209.72L293.002 212.32V217H289.102V225.268H293.002V233.016C293.002 241.024 296.434 244.3 307.042 243V235.2C303.558 235.408 301.634 235.252 301.634 232.808V225.268H307.042ZM314.828 214.868C317.532 214.868 319.82 212.58 319.82 209.876C319.82 207.172 317.532 204.936 314.828 204.936C312.124 204.936 309.836 207.172 309.836 209.876C309.836 212.58 312.124 214.868 314.828 214.868ZM310.512 243H319.144V217H310.512V243ZM336.186 243.728C343.934 243.728 350.07 237.748 350.07 230C350.07 222.252 343.934 216.272 336.186 216.272C328.49 216.272 322.302 222.252 322.302 230C322.302 237.748 328.542 243.728 336.186 243.728ZM336.186 235.408C333.222 235.408 330.986 233.224 330.986 230C330.986 226.776 333.222 224.592 336.186 224.592C339.202 224.592 341.438 226.776 341.438 230C341.438 233.224 339.202 235.408 336.186 235.408ZM369.207 216.272C365.983 216.272 363.435 217.52 361.979 219.6V217H353.347V243H361.979V229.168C361.979 226.048 363.591 224.436 366.243 224.436C368.479 224.436 370.143 225.736 370.143 228.544V243H378.775V227.452C378.775 219.964 374.563 216.272 369.207 216.272ZM423.425 217L419.993 231.144L416.093 217H408.813L404.913 231.144L401.481 217H392.329L400.285 243H408.709L412.453 229.792L416.197 243H424.621L432.577 217H423.425ZM439.486 214.868C442.19 214.868 444.478 212.58 444.478 209.876C444.478 207.172 442.19 204.936 439.486 204.936C436.782 204.936 434.494 207.172 434.494 209.876C434.494 212.58 436.782 214.868 439.486 214.868ZM435.17 243H443.802V217H435.17V243ZM464.379 225.268V217H458.971V209.72L450.339 212.32V217H446.439V225.268H450.339V233.016C450.339 241.024 453.771 244.3 464.379 243V235.2C460.895 235.408 458.971 235.252 458.971 232.808V225.268H464.379ZM483.708 216.272C480.484 216.272 477.936 217.52 476.48 219.6V206.6H467.848V243H476.48V229.168C476.48 226.048 478.092 224.436 480.744 224.436C482.98 224.436 484.644 225.736 484.644 228.544V243H493.276V227.452C493.276 219.964 489.064 216.272 483.708 216.272ZM113.16 277.828V269.82C104.32 269.3 100.056 273.72 100.056 281H96.78V289.268H100.056V307H108.688V289.268H113.16V281H108.688C108.688 278.608 110.404 277.62 113.16 277.828ZM132.988 281V283.392C131.324 281.416 128.932 280.272 125.604 280.272C118.636 280.272 113.384 286.2 113.384 294C113.384 301.8 118.636 307.728 125.604 307.728C128.932 307.728 131.324 306.584 132.988 304.608V307H141.62V281H132.988ZM127.528 299.668C124.304 299.668 122.068 297.38 122.068 294C122.068 290.62 124.304 288.332 127.528 288.332C130.752 288.332 132.988 290.62 132.988 294C132.988 297.38 130.752 299.668 127.528 299.668ZM154.22 288.592C154.22 287.812 154.948 287.344 156.144 287.344C157.6 287.344 158.64 288.124 159.368 289.58L166.648 286.304C164.516 282.04 160.616 280.272 155.936 280.272C150.632 280.272 145.484 283.132 145.484 289.008C145.484 298.212 158.172 296.496 158.172 299.2C158.172 300.136 157.34 300.604 155.832 300.604C153.804 300.604 152.452 299.668 151.776 297.744L144.236 301.54C146.316 305.96 150.424 307.728 155.884 307.728C161.188 307.728 167.116 305.492 167.116 298.992C167.116 289.112 154.22 291.452 154.22 288.592ZM185.318 289.268V281H179.91V273.72L171.278 276.32V281H167.378V289.268H171.278V297.016C171.278 305.024 174.71 308.3 185.318 307V299.2C181.834 299.408 179.91 299.252 179.91 296.808V289.268H185.318ZM200.219 297.952H190.703L188.883 314.28H195.851L200.219 297.952ZM230.239 277.828V269.82C221.399 269.3 217.135 273.72 217.135 281H213.859V289.268H217.135V307H225.767V289.268H230.239V281H225.767C225.767 278.608 227.483 277.62 230.239 277.828ZM240.851 285.836V281H232.219V307H240.851V296.236C240.851 291.088 245.219 289.528 248.651 290.048V280.48C245.167 280.48 241.891 282.3 240.851 285.836ZM255.718 278.868C258.422 278.868 260.71 276.58 260.71 273.876C260.71 271.172 258.422 268.936 255.718 268.936C253.014 268.936 250.726 271.172 250.726 273.876C250.726 276.58 253.014 278.868 255.718 278.868ZM251.402 307H260.034V281H251.402V307ZM277.025 307.728C282.173 307.728 286.645 305.076 288.881 300.968L281.497 296.704C280.717 298.264 279.001 299.304 276.973 299.304C274.061 299.304 271.877 297.12 271.877 294C271.877 290.88 274.061 288.696 276.973 288.696C279.001 288.696 280.665 289.736 281.497 291.244L288.881 286.98C286.645 282.924 282.173 280.272 277.025 280.272C269.121 280.272 263.193 286.252 263.193 294C263.193 301.748 269.121 307.728 277.025 307.728ZM307.26 289.268V281H301.852V273.72L293.22 276.32V281H289.32V289.268H293.22V297.016C293.22 305.024 296.652 308.3 307.26 307V299.2C303.776 299.408 301.852 299.252 301.852 296.808V289.268H307.26ZM315.045 278.868C317.749 278.868 320.037 276.58 320.037 273.876C320.037 271.172 317.749 268.936 315.045 268.936C312.341 268.936 310.053 271.172 310.053 273.876C310.053 276.58 312.341 278.868 315.045 278.868ZM310.729 307H319.361V281H310.729V307ZM336.404 307.728C344.152 307.728 350.288 301.748 350.288 294C350.288 286.252 344.152 280.272 336.404 280.272C328.708 280.272 322.52 286.252 322.52 294C322.52 301.748 328.76 307.728 336.404 307.728ZM336.404 299.408C333.44 299.408 331.204 297.224 331.204 294C331.204 290.776 333.44 288.592 336.404 288.592C339.42 288.592 341.656 290.776 341.656 294C341.656 297.224 339.42 299.408 336.404 299.408ZM369.424 280.272C366.2 280.272 363.652 281.52 362.196 283.6V281H353.564V307H362.196V293.168C362.196 290.048 363.808 288.436 366.46 288.436C368.696 288.436 370.36 289.736 370.36 292.544V307H378.992V291.452C378.992 283.964 374.78 280.272 369.424 280.272ZM383.157 307H391.789V269.04H383.157V307ZM403.892 297.172H421.832C422.092 296.08 422.196 295.04 422.196 293.948C422.196 286.148 416.58 280.272 408.78 280.272C400.668 280.272 394.948 286.252 394.948 294.052C394.948 301.748 400.512 307.728 409.508 307.728C414.136 307.728 418.088 306.168 420.688 302.892L414.448 298.524C413.2 299.72 411.588 300.344 409.716 300.344C407.22 300.344 404.932 299.668 403.892 297.172ZM403.788 291.192C404.516 288.8 406.388 287.552 408.884 287.552C410.964 287.552 412.992 288.488 413.772 291.192H403.788ZM432.635 288.592C432.635 287.812 433.363 287.344 434.559 287.344C436.015 287.344 437.055 288.124 437.783 289.58L445.063 286.304C442.931 282.04 439.031 280.272 434.351 280.272C429.047 280.272 423.899 283.132 423.899 289.008C423.899 298.212 436.587 296.496 436.587 299.2C436.587 300.136 435.755 300.604 434.247 300.604C432.219 300.604 430.867 299.668 430.191 297.744L422.651 301.54C424.731 305.96 428.839 307.728 434.299 307.728C439.603 307.728 445.531 305.492 445.531 298.992C445.531 289.112 432.635 291.452 432.635 288.592ZM455.221 288.592C455.221 287.812 455.949 287.344 457.145 287.344C458.601 287.344 459.641 288.124 460.369 289.58L467.649 286.304C465.517 282.04 461.617 280.272 456.937 280.272C451.633 280.272 446.485 283.132 446.485 289.008C446.485 298.212 459.173 296.496 459.173 299.2C459.173 300.136 458.341 300.604 456.833 300.604C454.805 300.604 453.453 299.668 452.777 297.744L445.237 301.54C447.317 305.96 451.425 307.728 456.885 307.728C462.189 307.728 468.117 305.492 468.117 298.992C468.117 289.112 455.221 291.452 455.221 288.592ZM102.812 342.868C105.516 342.868 107.804 340.58 107.804 337.876C107.804 335.172 105.516 332.936 102.812 332.936C100.108 332.936 97.82 335.172 97.82 337.876C97.82 340.58 100.108 342.868 102.812 342.868ZM98.496 371H107.128V345H98.496V371ZM127.445 344.272C124.221 344.272 121.673 345.52 120.217 347.6V345H111.585V371H120.217V357.168C120.217 354.048 121.829 352.436 124.481 352.436C126.717 352.436 128.381 353.736 128.381 356.544V371H137.013V355.452C137.013 347.964 132.801 344.272 127.445 344.272ZM157.299 353.268V345H151.891V337.72L143.259 340.32V345H139.359V353.268H143.259V361.016C143.259 369.024 146.691 372.3 157.299 371V363.2C153.815 363.408 151.891 363.252 151.891 360.808V353.268H157.299ZM168.007 361.172H185.947C186.207 360.08 186.311 359.04 186.311 357.948C186.311 350.148 180.695 344.272 172.895 344.272C164.783 344.272 159.063 350.252 159.063 358.052C159.063 365.748 164.627 371.728 173.623 371.728C178.251 371.728 182.203 370.168 184.803 366.892L178.563 362.524C177.315 363.72 175.703 364.344 173.831 364.344C171.335 364.344 169.047 363.668 168.007 361.172ZM167.903 355.192C168.631 352.8 170.503 351.552 172.999 351.552C175.079 351.552 177.107 352.488 177.887 355.192H167.903ZM198.13 349.836V345H189.498V371H198.13V360.236C198.13 355.088 202.498 353.528 205.93 354.048V344.48C202.446 344.48 199.17 346.3 198.13 349.836ZM226.377 345V347.392C224.713 345.416 222.321 344.272 218.993 344.272C212.025 344.272 206.773 350.2 206.773 358C206.773 365.8 212.025 371.728 218.993 371.728C222.321 371.728 224.713 370.584 226.377 368.608V371H235.009V345H226.377ZM220.917 363.668C217.693 363.668 215.457 361.38 215.457 358C215.457 354.62 217.693 352.332 220.917 352.332C224.141 352.332 226.377 354.62 226.377 358C226.377 361.38 224.141 363.668 220.917 363.668ZM252.026 371.728C257.174 371.728 261.646 369.076 263.882 364.968L256.498 360.704C255.718 362.264 254.002 363.304 251.974 363.304C249.062 363.304 246.878 361.12 246.878 358C246.878 354.88 249.062 352.696 251.974 352.696C254.002 352.696 255.666 353.736 256.498 355.244L263.882 350.98C261.646 346.924 257.174 344.272 252.026 344.272C244.122 344.272 238.194 350.252 238.194 358C238.194 365.748 244.122 371.728 252.026 371.728ZM282.261 353.268V345H276.853V337.72L268.221 340.32V345H264.321V353.268H268.221V361.016C268.221 369.024 271.653 372.3 282.261 371V363.2C278.777 363.408 276.853 363.252 276.853 360.808V353.268H282.261ZM290.047 342.868C292.751 342.868 295.039 340.58 295.039 337.876C295.039 335.172 292.751 332.936 290.047 332.936C287.343 332.936 285.055 335.172 285.055 337.876C285.055 340.58 287.343 342.868 290.047 342.868ZM285.731 371H294.363V345H285.731V371ZM311.405 371.728C319.153 371.728 325.289 365.748 325.289 358C325.289 350.252 319.153 344.272 311.405 344.272C303.709 344.272 297.521 350.252 297.521 358C297.521 365.748 303.761 371.728 311.405 371.728ZM311.405 363.408C308.441 363.408 306.205 361.224 306.205 358C306.205 354.776 308.441 352.592 311.405 352.592C314.421 352.592 316.657 354.776 316.657 358C316.657 361.224 314.421 363.408 311.405 363.408ZM344.426 344.272C341.202 344.272 338.654 345.52 337.198 347.6V345H328.566V371H337.198V357.168C337.198 354.048 338.81 352.436 341.462 352.436C343.698 352.436 345.362 353.736 345.362 356.544V371H353.994V355.452C353.994 347.964 349.782 344.272 344.426 344.272ZM366.427 352.592C366.427 351.812 367.155 351.344 368.351 351.344C369.807 351.344 370.847 352.124 371.575 353.58L378.855 350.304C376.723 346.04 372.823 344.272 368.143 344.272C362.839 344.272 357.691 347.132 357.691 353.008C357.691 362.212 370.379 360.496 370.379 363.2C370.379 364.136 369.547 364.604 368.039 364.604C366.011 364.604 364.659 363.668 363.983 361.744L356.443 365.54C358.523 369.96 362.631 371.728 368.091 371.728C373.395 371.728 379.323 369.492 379.323 362.992C379.323 353.112 366.427 355.452 366.427 352.592Z" fill="white"/>
</g>
<defs>
<filter id="filter0_d" x="2" y="0" width="601" height="521" filterUnits="userSpaceOnUse" color-interpolation-filters="sRGB">
<feFlood flood-opacity="0" result="BackgroundImageFix"/>
<feColorMatrix in="SourceAlpha" type="matrix" values="0 0 0 0 0 0 0 0 0 0 0 0 0 0 0 0 0 0 127 0"/>
<feOffset dy="4"/>
<feGaussianBlur stdDeviation="4.5"/>
<feColorMatrix type="matrix" values="0 0 0 0 0 0 0 0 0 0 0 0 0 0 0 0 0 0 0.25 0"/>
<feBlend mode="normal" in2="BackgroundImageFix" result="effect1_dropShadow"/>
<feBlend mode="normal" in="SourceGraphic" in2="effect1_dropShadow" result="shape"/>
</filter>
</defs>
</svg>
