<svg width="1280" height="604" viewBox="0 0 1280 604" fill="none" xmlns="http://www.w3.org/2000/svg">
<rect width="1280" height="604" fill="black"/>
<mask id="mask0" mask-type="alpha" maskUnits="userSpaceOnUse" x="3" y="0" width="1280" height="604">
<rect x="3" width="1280" height="604" fill="#004796"/>
</mask>
<g mask="url(#mask0)">
<path d="M601.13 691.159L911.842 804.446L920.817 788.328C935.297 762.355 942.684 733.028 942.237 703.295C941.791 673.562 933.525 644.47 918.271 618.944L737.915 316.8C722.663 291.276 700.957 270.22 674.983 255.749C649.008 241.277 619.68 233.903 589.95 234.366C560.216 234.813 530.889 227.426 504.915 212.946C478.942 198.466 457.238 177.405 441.984 151.878L394 71.6177C378.759 46.0915 357.065 25.0289 331.1 10.5486C305.135 -3.93176 275.814 -11.3192 246.087 -10.8707L-105.891 -5.58101C-135.617 -5.13608 -164.703 3.12911 -190.221 18.3832C-215.74 33.6372 -236.791 55.3422 -251.258 81.3149L-422.454 388.742C-436.933 414.715 -444.321 444.042 -443.874 473.775C-443.427 503.508 -435.162 532.6 -419.908 558.126L-239.552 860.269C-224.276 885.748 -202.569 906.762 -176.608 921.203C-150.647 935.643 -121.346 943.004 -91.6421 942.545C-61.9149 942.097 -32.5933 949.479 -6.62133 963.949C19.3506 978.418 41.0586 999.466 56.323 1024.98L104.308 1105.29C118.786 1129.62 139.13 1149.92 163.481 1164.35C187.831 1178.79 215.41 1186.88 243.698 1187.91L388.657 790.252C403.716 748.954 434.552 715.322 474.39 696.742C514.228 678.162 559.812 676.154 601.13 691.159" fill="#006BFF"/>
</g>
</svg>
