<svg width="1280" height="590" viewBox="0 0 1280 590" fill="none" xmlns="http://www.w3.org/2000/svg">
<mask id="mask0" mask-type="alpha" maskUnits="userSpaceOnUse" x="-165" y="0" width="1680" height="590">
<rect x="-165" width="1680" height="590" fill="#8247F5"/>
</mask>
<g mask="url(#mask0)">
<rect x="-6" y="45" width="1291" height="505" fill="#8247F5"/>
<mask id="mask1" mask-type="alpha" maskUnits="userSpaceOnUse" x="-165" y="-65" width="1680" height="720">
<rect x="-165" y="-65" width="1680" height="720" fill="#004796"/>
</mask>
<g mask="url(#mask1)">
<rect x="-60" y="41" width="1680" height="508" fill="black"/>
<mask id="mask2" mask-type="alpha" maskUnits="userSpaceOnUse" x="-60" y="41" width="1680" height="508">
<rect x="-60" y="41" width="1680" height="508" rx="40" fill="#004796"/>
</mask>
<g mask="url(#mask2)">
<path fill-rule="evenodd" clip-rule="evenodd" d="M1003.76 223.752C1003.45 231.255 1001.81 238.803 998.673 246.047C987.51 271.856 999.688 302.597 1025.5 313.76L1210.57 393.801C1236.38 404.964 1267.12 392.786 1278.28 366.976C1282.97 356.134 1290.43 347.248 1299.5 340.781C1302.43 343.588 1305.18 346.557 1307.75 349.667C1299.83 354.969 1293.3 362.476 1289.29 371.74C1275.5 403.632 1237.7 418.609 1205.8 404.816L1020.73 324.774C989.256 311.159 974.257 274.152 987.136 242.527C992.039 235.411 997.636 229.153 1003.76 223.752Z" fill="#0AE8F0"/>
<path d="M1164.03 208.307C1179.23 239.194 1208.58 260.58 1242.57 265.512C1328.12 277.964 1362.31 383.4 1300.38 443.921C1275.79 467.935 1264.58 502.581 1270.39 536.5C1284.98 621.965 1195.56 687.094 1119.04 646.747C1088.64 630.738 1052.36 630.738 1021.96 646.747C945.44 687.094 855.979 621.924 870.614 536.5C876.419 502.581 865.211 467.935 840.619 443.921C778.693 383.4 812.881 277.964 898.432 265.512C932.418 260.58 961.768 239.154 976.967 208.307C1015.23 130.564 1125.77 130.564 1164.03 208.307Z" fill="#E55CFF"/>
<path d="M1358.26 340.024C1329.32 327.24 1294.91 340.197 1282.36 368.605C1269.82 397.014 1235.41 409.971 1206.47 397.187L1020.82 315.184C991.882 302.4 978.288 268.241 990.836 239.833C1003.38 211.424 989.791 177.265 960.85 164.481C931.909 151.697 918.315 117.538 930.864 89.1296L1011.36 -93.1001C1024.21 -122.201 1058.31 -134.466 1087.25 -121.682C1116.19 -108.898 1150.6 -121.855 1163.15 -150.264C1175.7 -178.672 1209.4 -191.941 1239.04 -178.845L1424.69 -96.8424C1453.63 -84.0587 1467.22 -49.8993 1454.68 -21.4909C1442.13 6.91754 1455.72 41.0769 1484.66 53.8606C1513.6 66.6444 1527.2 100.804 1514.65 129.212L1434.16 311.442C1421.61 339.85 1387.2 352.807 1358.26 340.024Z" stroke="#BFB0FF" stroke-width="12" stroke-miterlimit="10"/>
<path d="M714.169 554.752L856.905 799.082C864.958 812.867 882.073 818.11 895.136 810.795L1150.11 668.015C1163.17 660.7 1167.23 643.599 1159.18 629.814L1016.44 385.484C964.985 297.402 855.608 263.891 772.136 310.634C688.668 357.375 662.713 466.67 714.169 554.752Z" stroke="white" stroke-width="2.25114" stroke-miterlimit="10" stroke-dasharray="4.67 4.67"/>
<path d="M721.798 553.512L858.589 787.665C866.306 800.875 882.712 805.902 895.231 798.891L1139.58 662.058C1152.1 655.048 1155.99 638.655 1148.28 625.445L1011.49 391.291C962.173 306.879 857.348 274.763 777.354 319.559C697.357 364.356 672.485 469.099 721.798 553.512Z" stroke="white" stroke-width="2.25114" stroke-miterlimit="10" stroke-dasharray="4.74 4.74"/>
<path d="M729.432 552.273L860.278 776.25C867.659 788.885 883.351 793.693 895.324 786.988L1129.06 656.102C1141.03 649.397 1144.75 633.717 1137.37 621.082L1006.53 397.105C959.356 316.363 859.085 285.642 782.568 328.49C706.051 371.338 682.263 471.531 729.432 552.273Z" stroke="white" stroke-width="2.25114" stroke-miterlimit="10" stroke-dasharray="4.67 4.67"/>
<path d="M737.061 551.033L861.964 764.837C869.011 776.9 883.989 781.489 895.42 775.088L1118.53 650.148C1129.96 643.746 1133.52 628.78 1126.47 616.717L1001.57 402.913C956.541 325.836 860.828 296.512 787.786 337.415C714.745 378.32 692.035 473.96 737.061 551.033Z" stroke="white" stroke-width="2.25114" stroke-miterlimit="10" stroke-dasharray="4.75 4.75"/>
<path d="M744.691 549.797L863.649 753.424C870.36 764.912 884.625 769.282 895.511 763.186L1108.01 644.192C1118.89 638.096 1122.28 623.842 1115.57 612.355L996.608 408.727C953.724 335.32 862.564 307.391 792.999 346.346C723.435 385.301 701.808 476.39 744.691 549.797Z" stroke="white" stroke-width="2.25114" stroke-miterlimit="10" stroke-dasharray="4.67 4.67"/>
<path d="M752.322 548.559L865.335 742.011C871.71 752.923 885.263 757.078 895.607 751.285L1097.48 638.237C1107.82 632.447 1111.04 618.904 1104.67 607.989L991.654 414.537C950.914 344.8 864.312 318.267 798.221 355.277C732.129 392.283 711.58 478.819 752.322 548.559Z" stroke="white" stroke-width="2.25114" stroke-miterlimit="10" stroke-dasharray="4.76 4.76"/>
<path d="M759.951 547.319L867.019 730.594C873.06 740.934 885.897 744.867 895.696 739.38L1086.95 632.28C1096.75 626.793 1099.8 613.965 1093.76 603.625L986.688 420.35C948.089 354.279 866.043 329.145 803.433 364.205C740.82 399.267 721.353 481.248 759.951 547.319Z" stroke="white" stroke-width="2.25114" stroke-miterlimit="10" stroke-dasharray="4.67 4.67"/>
<path d="M767.582 546.082L868.705 719.181C874.41 728.946 886.538 732.662 895.792 727.48L1076.43 626.326C1085.68 621.144 1088.56 609.025 1082.86 599.259L981.733 426.161C945.279 363.759 867.788 340.018 808.652 373.133C749.514 406.249 731.127 483.681 767.582 546.082Z" stroke="white" stroke-width="2.25114" stroke-miterlimit="10" stroke-dasharray="4.77 4.77"/>
<path d="M775.211 544.843L870.391 707.769C875.759 716.959 887.174 720.456 895.883 715.579L1065.9 620.371C1074.61 615.494 1077.32 604.088 1071.95 594.898L976.771 431.973C942.458 373.238 869.522 350.895 813.864 382.062C758.206 413.23 740.9 486.111 775.211 544.843Z" stroke="white" stroke-width="2.25114" stroke-miterlimit="10" stroke-dasharray="4.67 4.67"/>
<path d="M782.842 543.605L872.076 696.354C877.111 704.972 887.812 708.251 895.979 703.678L1055.38 614.416C1063.55 609.842 1066.09 599.149 1061.05 590.531L971.816 437.783C939.647 382.717 871.267 361.767 819.084 390.989C766.897 420.212 750.673 488.54 782.842 543.605Z" stroke="white" stroke-width="2.25114" stroke-miterlimit="10" stroke-dasharray="4.78 4.78"/>
<path d="M790.472 542.369L873.762 684.941C878.461 692.984 888.448 696.044 896.07 691.776L1044.85 608.46C1052.47 604.192 1054.84 594.212 1050.15 586.169L966.855 443.597C936.83 392.201 873.003 372.645 824.297 399.92C775.591 427.195 760.445 490.969 790.472 542.369Z" stroke="white" stroke-width="2.25114" stroke-miterlimit="10" stroke-dasharray="4.67 4.67"/>
<path d="M798.101 541.129L875.446 673.525C879.808 680.993 889.084 683.837 896.164 679.873L1034.32 602.504C1041.4 598.542 1043.61 589.273 1039.24 581.803L961.896 449.407C934.013 401.677 874.744 383.519 829.512 408.848C784.284 434.175 770.219 493.403 798.101 541.129Z" stroke="white" stroke-width="2.25114" stroke-miterlimit="10" stroke-dasharray="4.8 4.8"/>
<path d="M805.732 539.893L877.132 662.112C881.16 669.008 889.723 671.629 896.255 667.971L1023.8 596.549C1030.33 592.89 1032.36 584.333 1028.34 577.441L956.935 455.221C931.196 411.161 876.48 394.397 834.726 417.779C792.975 441.159 779.992 495.832 805.732 539.893Z" stroke="white" stroke-width="2.25114" stroke-miterlimit="10" stroke-dasharray="4.67 4.67"/>
<path d="M813.364 538.651L878.821 650.697C882.513 657.018 890.364 659.423 896.354 656.069L1013.28 590.593C1019.27 587.238 1021.13 579.394 1017.44 573.073L951.982 461.027C928.386 420.636 878.226 405.266 839.947 426.702C801.669 448.141 789.768 498.26 813.364 538.651Z" stroke="white" stroke-width="2.25114" stroke-miterlimit="10" stroke-dasharray="4.82 4.82"/>
<path d="M820.994 537.414L880.506 639.284C883.864 645.032 891 647.216 896.444 644.167L1002.75 584.637C1008.2 581.586 1009.89 574.456 1006.53 568.711L947.022 466.841C925.568 430.117 879.963 416.144 845.161 435.633C810.358 455.122 799.54 500.69 820.994 537.414Z" stroke="white" stroke-width="2.25114" stroke-miterlimit="10" stroke-dasharray="4.68 4.68"/>
<path d="M828.625 536.177L882.192 627.871C885.214 633.044 891.638 635.012 896.54 632.267L992.226 578.684C997.128 575.939 998.652 569.52 995.63 564.347L942.063 472.653C922.753 439.598 881.704 427.019 850.377 444.563C819.052 462.104 809.313 503.119 828.625 536.177Z" stroke="white" stroke-width="2.25114" stroke-miterlimit="10" stroke-dasharray="4.86 4.86"/>
<path d="M836.254 534.937L883.876 616.455C886.562 621.053 892.272 622.802 896.629 620.362L981.697 572.725C986.054 570.285 987.409 564.58 984.723 559.982L937.101 478.464C919.933 449.076 883.441 437.898 855.594 453.492C827.746 469.086 819.088 505.552 836.254 534.937Z" stroke="white" stroke-width="2.25114" stroke-miterlimit="10" stroke-dasharray="4.68 4.68"/>
<path d="M843.885 533.7L885.562 605.041C887.912 609.064 892.91 610.597 896.725 608.461L971.174 566.77C974.99 564.634 976.176 559.642 973.823 555.615L932.147 484.274C917.122 458.556 885.186 448.771 860.813 462.42C836.436 476.067 828.86 507.981 843.885 533.7Z" stroke="white" stroke-width="2.25114" stroke-miterlimit="10" stroke-dasharray="4.91 4.91"/>
<path d="M851.514 532.46L887.247 593.628C889.263 597.079 893.549 598.39 896.816 596.56L960.647 560.816C963.918 558.984 964.932 554.702 962.918 551.254L927.184 490.086C914.303 468.037 886.92 459.647 866.025 471.348C845.13 483.049 838.633 510.411 851.514 532.46Z" stroke="white" stroke-width="2.25114" stroke-miterlimit="10" stroke-dasharray="4.68 4.68"/>
<path d="M859.144 531.224L888.933 582.215C890.613 585.091 894.187 586.186 896.912 584.66L950.122 554.863C952.847 553.337 953.695 549.766 952.015 546.89L922.226 495.898C911.487 477.515 888.659 470.524 871.242 480.278C853.824 490.032 848.405 512.84 859.144 531.224Z" stroke="white" stroke-width="2.25114" stroke-miterlimit="10" stroke-dasharray="4.39 4.39"/>
<path d="M866.773 529.983L890.617 570.798C891.963 573.102 894.821 573.975 897.001 572.754L939.595 548.902C941.779 547.679 942.454 544.823 941.11 542.522L917.267 501.708C908.671 486.994 890.4 481.396 876.456 489.204C862.513 497.012 858.177 515.27 866.773 529.983Z" stroke="white" stroke-width="2.25114" stroke-miterlimit="10" stroke-dasharray="4.68 4.68"/>
<path d="M874.404 528.747L892.302 559.385C893.312 561.114 895.458 561.771 897.097 560.854L929.07 542.949C930.708 542.032 931.217 539.888 930.207 538.159L912.309 507.521C905.857 496.477 892.139 492.274 881.673 498.134C871.207 503.995 867.952 517.703 874.404 528.747Z" stroke="white" stroke-width="2.25114" stroke-miterlimit="10" stroke-dasharray="4.22 4.22"/>
<path d="M882.035 527.51L893.988 547.972C894.662 549.125 896.096 549.567 897.19 548.955L918.545 536.997C919.638 536.384 919.981 534.951 919.305 533.795L907.351 513.333C903.041 505.955 893.881 503.149 886.89 507.064C879.898 510.979 877.725 520.132 882.035 527.51Z" stroke="white" stroke-width="2.25114" stroke-miterlimit="10" stroke-dasharray="4.69 4.69"/>
</g>
</g>
</g>
</svg>
