<svg width="601" height="156" viewBox="0 0 601 156" fill="none" xmlns="http://www.w3.org/2000/svg">
<g filter="url(#filter0_d)">
<rect x="9" y="5" width="583" height="138" fill="white"/>
</g>
<path d="M379.62 111.581H373.302V113.777H377.118C376.686 115.217 375.426 116.171 373.446 116.171C370.818 116.171 369.144 114.407 369.144 112.067C369.144 109.673 370.872 107.909 373.266 107.909C374.796 107.909 376.074 108.647 376.65 109.655L378.774 108.431C377.712 106.703 375.678 105.497 373.284 105.497C369.522 105.497 366.678 108.413 366.678 112.067C366.678 115.667 369.486 118.601 373.428 118.601C377.046 118.601 379.62 116.189 379.62 112.553V111.581ZM383.421 110.897V109.349H381.099V118.349H383.421V114.047C383.421 112.157 384.951 111.617 386.157 111.761V109.169C385.023 109.169 383.889 109.673 383.421 110.897ZM391.285 118.601C393.931 118.601 396.055 116.531 396.055 113.849C396.055 111.167 393.931 109.097 391.285 109.097C388.639 109.097 386.533 111.167 386.533 113.849C386.533 116.531 388.639 118.601 391.285 118.601ZM391.285 116.333C389.917 116.333 388.855 115.307 388.855 113.849C388.855 112.391 389.917 111.365 391.285 111.365C392.671 111.365 393.733 112.391 393.733 113.849C393.733 115.307 392.671 116.333 391.285 116.333ZM403.448 109.349V114.209C403.448 115.775 402.602 116.441 401.468 116.441C400.424 116.441 399.686 115.811 399.686 114.587V109.349H397.364V114.875C397.364 117.269 398.858 118.601 400.766 118.601C401.972 118.601 402.908 118.151 403.448 117.341V118.349H405.77V109.349H403.448ZM412.955 109.097C411.641 109.097 410.687 109.583 410.039 110.411V109.349H407.717V121.949H410.039V117.287C410.687 118.115 411.641 118.601 412.955 118.601C415.367 118.601 417.347 116.531 417.347 113.849C417.347 111.167 415.367 109.097 412.955 109.097ZM412.523 116.387C411.101 116.387 410.039 115.361 410.039 113.849C410.039 112.337 411.101 111.311 412.523 111.311C413.963 111.311 415.025 112.337 415.025 113.849C415.025 115.361 413.963 116.387 412.523 116.387ZM420.753 111.905C420.753 111.419 421.221 111.167 421.797 111.167C422.463 111.167 422.967 111.509 423.237 112.085L425.217 111.005C424.515 109.763 423.255 109.097 421.797 109.097C419.943 109.097 418.377 110.123 418.377 111.959C418.377 115.127 423.021 114.407 423.021 115.721C423.021 116.243 422.517 116.495 421.779 116.495C420.879 116.495 420.267 116.063 420.015 115.325L417.999 116.459C418.647 117.845 419.979 118.601 421.779 118.601C423.705 118.601 425.397 117.665 425.397 115.721C425.397 112.409 420.753 113.237 420.753 111.905Z" fill="black"/>
<path d="M245.514 105.749H236.244V108.125H239.628V118.349H242.112V108.125H245.514V105.749ZM246.94 114.803H253.726C253.78 114.497 253.816 114.191 253.816 113.849C253.816 111.203 251.926 109.097 249.262 109.097C246.436 109.097 244.51 111.167 244.51 113.849C244.51 116.531 246.418 118.601 249.442 118.601C251.17 118.601 252.52 117.899 253.366 116.675L251.494 115.595C251.098 116.117 250.378 116.495 249.478 116.495C248.254 116.495 247.264 115.991 246.94 114.803ZM246.904 113.003C247.174 111.851 248.02 111.185 249.262 111.185C250.234 111.185 251.206 111.707 251.494 113.003H246.904ZM262.027 109.349V110.411C261.379 109.601 260.407 109.097 259.093 109.097C256.699 109.097 254.719 111.167 254.719 113.849C254.719 116.531 256.699 118.601 259.093 118.601C260.407 118.601 261.379 118.097 262.027 117.287V118.349H264.349V109.349H262.027ZM259.525 116.387C258.103 116.387 257.041 115.361 257.041 113.849C257.041 112.337 258.103 111.311 259.525 111.311C260.965 111.311 262.027 112.337 262.027 113.849C262.027 115.361 260.965 116.387 259.525 116.387ZM276.228 109.097C275.004 109.097 274.104 109.583 273.546 110.393C273.042 109.565 272.214 109.097 271.098 109.097C269.946 109.097 269.1 109.547 268.596 110.303V109.349H266.274V118.349H268.596V113.291C268.596 111.941 269.298 111.257 270.288 111.257C271.26 111.257 271.8 111.905 271.8 112.967V118.349H274.122V113.291C274.122 111.941 274.77 111.257 275.796 111.257C276.768 111.257 277.308 111.905 277.308 112.967V118.349H279.63V112.805C279.63 110.555 278.28 109.097 276.228 109.097ZM290.549 105.749H285.851V118.349H288.335V114.209H290.549C292.979 114.209 294.851 112.337 294.851 109.979C294.851 107.621 292.979 105.749 290.549 105.749ZM290.549 111.887H288.335V108.071H290.549C291.611 108.071 292.385 108.881 292.385 109.979C292.385 111.059 291.611 111.887 290.549 111.887ZM302.422 109.349V110.411C301.774 109.601 300.802 109.097 299.488 109.097C297.094 109.097 295.114 111.167 295.114 113.849C295.114 116.531 297.094 118.601 299.488 118.601C300.802 118.601 301.774 118.097 302.422 117.287V118.349H304.744V109.349H302.422ZM299.92 116.387C298.498 116.387 297.436 115.361 297.436 113.849C297.436 112.337 298.498 111.311 299.92 111.311C301.36 111.311 302.422 112.337 302.422 113.849C302.422 115.361 301.36 116.387 299.92 116.387ZM313.564 109.349V110.465C312.934 109.619 311.962 109.097 310.684 109.097C308.128 109.097 306.202 111.185 306.202 113.705C306.202 116.243 308.128 118.313 310.684 118.313C311.962 118.313 312.934 117.791 313.564 116.945V117.917C313.564 119.339 312.664 120.131 311.206 120.131C309.82 120.131 309.226 119.573 308.848 118.871L306.868 120.005C307.66 121.463 309.208 122.201 311.134 122.201C313.51 122.201 315.832 120.869 315.832 117.917V109.349H313.564ZM311.044 116.171C309.586 116.171 308.524 115.145 308.524 113.705C308.524 112.283 309.586 111.257 311.044 111.257C312.502 111.257 313.564 112.283 313.564 113.705C313.564 115.145 312.502 116.171 311.044 116.171ZM319.719 114.803H326.505C326.559 114.497 326.595 114.191 326.595 113.849C326.595 111.203 324.705 109.097 322.041 109.097C319.215 109.097 317.289 111.167 317.289 113.849C317.289 116.531 319.197 118.601 322.221 118.601C323.949 118.601 325.299 117.899 326.145 116.675L324.273 115.595C323.877 116.117 323.157 116.495 322.257 116.495C321.033 116.495 320.043 115.991 319.719 114.803ZM319.683 113.003C319.953 111.851 320.799 111.185 322.041 111.185C323.013 111.185 323.985 111.707 324.273 113.003H319.683ZM329.827 111.905C329.827 111.419 330.295 111.167 330.871 111.167C331.537 111.167 332.041 111.509 332.311 112.085L334.291 111.005C333.589 109.763 332.329 109.097 330.871 109.097C329.017 109.097 327.451 110.123 327.451 111.959C327.451 115.127 332.095 114.407 332.095 115.721C332.095 116.243 331.591 116.495 330.853 116.495C329.953 116.495 329.341 116.063 329.089 115.325L327.073 116.459C327.721 117.845 329.053 118.601 330.853 118.601C332.779 118.601 334.471 117.665 334.471 115.721C334.471 112.409 329.827 113.237 329.827 111.905Z" fill="black"/>
<path d="M50.9824 104.679V117.279H53.4664V104.679H50.9824ZM60.5148 108.027C59.3088 108.027 58.3728 108.477 57.8328 109.287V108.279H55.5108V117.279H57.8328V112.419C57.8328 110.853 58.6788 110.187 59.8128 110.187C60.8568 110.187 61.5948 110.817 61.5948 112.041V117.279H63.9168V111.753C63.9168 109.359 62.4228 108.027 60.5148 108.027ZM70.8675 110.511V108.279H68.8335V105.759L66.5115 106.461V108.279H64.9455V110.511H66.5115V114.255C66.5115 116.685 67.6095 117.639 70.8675 117.279V115.173C69.5355 115.245 68.8335 115.227 68.8335 114.255V110.511H70.8675ZM74.0054 113.733H80.7914C80.8454 113.427 80.8814 113.121 80.8814 112.779C80.8814 110.133 78.9914 108.027 76.3274 108.027C73.5014 108.027 71.5754 110.097 71.5754 112.779C71.5754 115.461 73.4834 117.531 76.5074 117.531C78.2354 117.531 79.5854 116.829 80.4314 115.605L78.5594 114.525C78.1634 115.047 77.4434 115.425 76.5434 115.425C75.3194 115.425 74.3294 114.921 74.0054 113.733ZM73.9694 111.933C74.2394 110.781 75.0854 110.115 76.3274 110.115C77.2994 110.115 78.2714 110.637 78.5594 111.933H73.9694ZM82.3224 117.279H84.6444V104.139H82.3224V117.279ZM86.5896 117.279H88.9116V104.139H86.5896V117.279ZM92.0089 107.199C92.8009 107.199 93.4489 106.551 93.4489 105.777C93.4489 105.003 92.8009 104.337 92.0089 104.337C91.2349 104.337 90.5869 105.003 90.5869 105.777C90.5869 106.551 91.2349 107.199 92.0089 107.199ZM90.8569 117.279H93.1789V108.279H90.8569V117.279ZM102.018 108.279V109.395C101.388 108.549 100.416 108.027 99.1382 108.027C96.5822 108.027 94.6562 110.115 94.6562 112.635C94.6562 115.173 96.5822 117.243 99.1382 117.243C100.416 117.243 101.388 116.721 102.018 115.875V116.847C102.018 118.269 101.118 119.061 99.6602 119.061C98.2742 119.061 97.6802 118.503 97.3022 117.801L95.3222 118.935C96.1142 120.393 97.6622 121.131 99.5882 121.131C101.964 121.131 104.286 119.799 104.286 116.847V108.279H102.018ZM99.4982 115.101C98.0402 115.101 96.9782 114.075 96.9782 112.635C96.9782 111.213 98.0402 110.187 99.4982 110.187C100.956 110.187 102.018 111.213 102.018 112.635C102.018 114.075 100.956 115.101 99.4982 115.101ZM108.174 113.733H114.96C115.014 113.427 115.05 113.121 115.05 112.779C115.05 110.133 113.16 108.027 110.496 108.027C107.67 108.027 105.744 110.097 105.744 112.779C105.744 115.461 107.652 117.531 110.676 117.531C112.404 117.531 113.754 116.829 114.6 115.605L112.728 114.525C112.332 115.047 111.612 115.425 110.712 115.425C109.488 115.425 108.498 114.921 108.174 113.733ZM108.138 111.933C108.408 110.781 109.254 110.115 110.496 110.115C111.468 110.115 112.44 110.637 112.728 111.933H108.138ZM121.495 108.027C120.289 108.027 119.353 108.477 118.813 109.287V108.279H116.491V117.279H118.813V112.419C118.813 110.853 119.659 110.187 120.793 110.187C121.837 110.187 122.575 110.817 122.575 112.041V117.279H124.897V111.753C124.897 109.359 123.403 108.027 121.495 108.027ZM131.847 110.511V108.279H129.813V105.759L127.491 106.461V108.279H125.925V110.511H127.491V114.255C127.491 116.685 128.589 117.639 131.847 117.279V115.173C130.515 115.245 129.813 115.227 129.813 114.255V110.511H131.847ZM144.785 117.279H147.467L144.677 112.527C146.117 111.861 147.107 110.439 147.107 108.855C147.107 106.551 145.235 104.679 142.913 104.679H137.873V117.279H140.357V112.905H142.247L144.785 117.279ZM140.357 107.001H142.913C143.849 107.001 144.623 107.811 144.623 108.855C144.623 109.899 143.849 110.727 142.913 110.727H140.357V107.001ZM152.469 117.531C155.115 117.531 157.239 115.461 157.239 112.779C157.239 110.097 155.115 108.027 152.469 108.027C149.823 108.027 147.717 110.097 147.717 112.779C147.717 115.461 149.823 117.531 152.469 117.531ZM152.469 115.263C151.101 115.263 150.039 114.237 150.039 112.779C150.039 111.321 151.101 110.295 152.469 110.295C153.855 110.295 154.917 111.321 154.917 112.779C154.917 114.237 153.855 115.263 152.469 115.263ZM164.632 108.279V113.139C164.632 114.705 163.786 115.371 162.652 115.371C161.608 115.371 160.87 114.741 160.87 113.517V108.279H158.548V113.805C158.548 116.199 160.042 117.531 161.95 117.531C163.156 117.531 164.092 117.081 164.632 116.271V117.279H166.954V108.279H164.632ZM174.049 110.511V108.279H172.015V105.759L169.693 106.461V108.279H168.127V110.511H169.693V114.255C169.693 116.685 170.791 117.639 174.049 117.279V115.173C172.717 115.245 172.015 115.227 172.015 114.255V110.511H174.049ZM176.658 107.199C177.45 107.199 178.098 106.551 178.098 105.777C178.098 105.003 177.45 104.337 176.658 104.337C175.884 104.337 175.236 105.003 175.236 105.777C175.236 106.551 175.884 107.199 176.658 107.199ZM175.506 117.279H177.828V108.279H175.506V117.279ZM184.777 108.027C183.571 108.027 182.635 108.477 182.095 109.287V108.279H179.773V117.279H182.095V112.419C182.095 110.853 182.941 110.187 184.075 110.187C185.119 110.187 185.857 110.817 185.857 112.041V117.279H188.179V111.753C188.179 109.359 186.685 108.027 184.777 108.027ZM196.876 108.279V109.395C196.246 108.549 195.274 108.027 193.996 108.027C191.44 108.027 189.514 110.115 189.514 112.635C189.514 115.173 191.44 117.243 193.996 117.243C195.274 117.243 196.246 116.721 196.876 115.875V116.847C196.876 118.269 195.976 119.061 194.518 119.061C193.132 119.061 192.538 118.503 192.16 117.801L190.18 118.935C190.972 120.393 192.52 121.131 194.446 121.131C196.822 121.131 199.144 119.799 199.144 116.847V108.279H196.876ZM194.356 115.101C192.898 115.101 191.836 114.075 191.836 112.635C191.836 111.213 192.898 110.187 194.356 110.187C195.814 110.187 196.876 111.213 196.876 112.635C196.876 114.075 195.814 115.101 194.356 115.101Z" fill="black"/>
<path d="M470.557 115.973V113.147H475.327V110.807H470.557V108.125H475.777V105.749H468.073V118.349H475.867V115.973H470.557ZM487.284 109.097C486.06 109.097 485.16 109.583 484.602 110.393C484.098 109.565 483.27 109.097 482.154 109.097C481.002 109.097 480.156 109.547 479.652 110.303V109.349H477.33V118.349H479.652V113.291C479.652 111.941 480.354 111.257 481.344 111.257C482.316 111.257 482.856 111.905 482.856 112.967V118.349H485.178V113.291C485.178 111.941 485.826 111.257 486.852 111.257C487.824 111.257 488.364 111.905 488.364 112.967V118.349H490.686V112.805C490.686 110.555 489.336 109.097 487.284 109.097ZM497.716 109.097C496.402 109.097 495.448 109.583 494.8 110.411V105.749H492.478V118.349H494.8V117.287C495.448 118.115 496.402 118.601 497.716 118.601C500.128 118.601 502.108 116.531 502.108 113.849C502.108 111.167 500.128 109.097 497.716 109.097ZM497.284 116.387C495.862 116.387 494.8 115.361 494.8 113.849C494.8 112.337 495.862 111.311 497.284 111.311C498.724 111.311 499.786 112.337 499.786 113.849C499.786 115.361 498.724 116.387 497.284 116.387ZM505.528 114.803H512.314C512.368 114.497 512.404 114.191 512.404 113.849C512.404 111.203 510.514 109.097 507.85 109.097C505.024 109.097 503.098 111.167 503.098 113.849C503.098 116.531 505.006 118.601 508.03 118.601C509.758 118.601 511.108 117.899 511.954 116.675L510.082 115.595C509.686 116.117 508.966 116.495 508.066 116.495C506.842 116.495 505.852 115.991 505.528 114.803ZM505.492 113.003C505.762 111.851 506.608 111.185 507.85 111.185C508.822 111.185 509.794 111.707 510.082 113.003H505.492ZM520.596 105.749V110.411C519.948 109.583 518.994 109.097 517.68 109.097C515.268 109.097 513.288 111.167 513.288 113.849C513.288 116.531 515.268 118.601 517.68 118.601C518.994 118.601 519.948 118.115 520.596 117.287V118.349H522.918V105.749H520.596ZM518.112 116.387C516.672 116.387 515.61 115.361 515.61 113.849C515.61 112.337 516.672 111.311 518.112 111.311C519.534 111.311 520.596 112.337 520.596 113.849C520.596 115.361 519.534 116.387 518.112 116.387ZM526.934 111.905C526.934 111.419 527.402 111.167 527.978 111.167C528.644 111.167 529.148 111.509 529.418 112.085L531.398 111.005C530.696 109.763 529.436 109.097 527.978 109.097C526.124 109.097 524.558 110.123 524.558 111.959C524.558 115.127 529.202 114.407 529.202 115.721C529.202 116.243 528.698 116.495 527.96 116.495C527.06 116.495 526.448 116.063 526.196 115.325L524.18 116.459C524.828 117.845 526.16 118.601 527.96 118.601C529.886 118.601 531.578 117.665 531.578 115.721C531.578 112.409 526.934 113.237 526.934 111.905Z" fill="black"/>
<path d="M103 70.2561H130V79.884H103V70.2561Z" stroke="#006BFF" stroke-width="3" stroke-linecap="round" stroke-linejoin="round"/>
<path d="M121 54.2092H148V63.8371H121V54.2092Z" stroke="#006BFF" stroke-width="3" stroke-linecap="round" stroke-linejoin="round"/>
<path d="M103 31.7441H130V41.372H103V31.7441Z" stroke="#006BFF" stroke-width="3" stroke-linecap="round" stroke-linejoin="round"/>
<path d="M115 41.3721V44.5814C115 45.4325 115.316 46.2488 115.879 46.8507C116.441 47.4525 117.204 47.7907 118 47.7907H127C127.796 47.7907 128.559 48.1288 129.121 48.7307C129.684 49.3325 130 50.1488 130 51V54.2093" stroke="#006BFF" stroke-width="3" stroke-linecap="round" stroke-linejoin="round"/>
<path d="M139 63.837V73.4649C139 74.3161 138.684 75.1324 138.121 75.7343C137.559 76.3361 136.796 76.6742 136 76.6742H130" stroke="#006BFF" stroke-width="3" stroke-linecap="round" stroke-linejoin="round"/>
<path d="M520.642 48.0465V35.2093C520.642 34.3581 520.284 33.5418 519.646 32.94C519.008 32.3381 518.142 32 517.239 32H476.403C475.5 32 474.635 32.3381 473.997 32.94C473.359 33.5418 473 34.3581 473 35.2093V70.5116C473 71.3628 473.359 72.1791 473.997 72.7809C474.635 73.3828 475.5 73.7209 476.403 73.7209H490.015" stroke="#006BFF" stroke-width="3" stroke-linecap="round" stroke-linejoin="round"/>
<path d="M473 41.6279H520.642" stroke="#006BFF" stroke-width="3" stroke-linecap="round" stroke-linejoin="round"/>
<path d="M510.443 71.8575C510.553 72.6012 510.479 73.3588 510.228 74.0712C509.976 74.7837 509.554 75.4319 508.994 75.9654L506.062 78.7296C505.023 79.6414 503.65 80.1374 502.231 80.1134C500.811 80.0894 499.458 79.5471 498.454 78.6008C497.45 77.6544 496.875 76.3778 496.849 75.0395C496.823 73.7011 497.348 72.4055 498.315 71.4253L501.246 68.661C501.8 68.1427 502.471 67.7495 503.209 67.5109C503.947 67.2722 504.732 67.1944 505.507 67.2831" stroke="#006BFF" stroke-width="3" stroke-linecap="round" stroke-linejoin="round"/>
<path d="M515.26 67.313C516.049 67.4167 516.852 67.3472 517.608 67.1101C518.364 66.873 519.052 66.4746 519.618 65.9458L522.547 63.1815C523.507 62.2004 524.027 60.907 523.999 59.5722C523.971 58.2374 523.396 56.9646 522.395 56.0206C521.394 55.0765 520.044 54.5344 518.629 54.5076C517.213 54.4809 515.842 54.9717 514.801 55.8772L511.884 58.6414C511.334 59.1632 510.916 59.796 510.663 60.492C510.41 61.188 510.328 61.9291 510.423 62.6595" stroke="#006BFF" stroke-width="3" stroke-linecap="round" stroke-linejoin="round"/>
<path d="M505.329 72.1164L515.538 62.4885" stroke="#006BFF" stroke-width="3" stroke-linecap="round" stroke-linejoin="round"/>
<path d="M482.075 46.9768H499.09V66.2326H482.075V46.9768Z" stroke="#006BFF" stroke-width="3" stroke-linecap="round" stroke-linejoin="round"/>
<path d="M482.075 56.6047H499.09" stroke="#006BFF" stroke-width="3" stroke-linecap="round" stroke-linejoin="round"/>
<path d="M488.881 56.6047V66.2326" stroke="#006BFF" stroke-width="3" stroke-linecap="round" stroke-linejoin="round"/>
<path d="M416.2 52.8606V70.5117C416.2 71.3629 415.863 72.1792 415.263 72.7811C414.663 73.3829 413.849 73.721 413 73.721H381C380.151 73.721 379.337 73.3829 378.737 72.7811C378.137 72.1792 377.8 71.3629 377.8 70.5117V52.8606" stroke="#006BFF" stroke-width="3" stroke-linecap="round" stroke-linejoin="round"/>
<path d="M397 73.7208V80.1394" stroke="#006BFF" stroke-width="3" stroke-linecap="round" stroke-linejoin="round"/>
<path d="M385.8 80.1396H408.2" stroke="#006BFF" stroke-width="3" stroke-linecap="round" stroke-linejoin="round"/>
<path d="M376.517 36.8139C376.517 38.0907 377.022 39.3151 377.923 40.2179C378.823 41.1207 380.044 41.6279 381.317 41.6279C382.59 41.6279 383.811 41.1207 384.711 40.2179C385.611 39.3151 386.117 38.0907 386.117 36.8139C386.117 35.5372 385.611 34.3128 384.711 33.41C383.811 32.5072 382.59 32 381.317 32C380.044 32 378.823 32.5072 377.923 33.41C377.022 34.3128 376.517 35.5372 376.517 36.8139V36.8139Z" stroke="#006BFF" stroke-width="3" stroke-linecap="round" stroke-linejoin="round"/>
<path d="M389.625 48.0465C388.782 46.5835 387.571 45.3687 386.111 44.5241C384.652 43.6795 382.997 43.2349 381.313 43.2349C379.628 43.2349 377.973 43.6795 376.514 44.5241C375.055 45.3687 373.843 46.5835 373 48.0465" stroke="#006BFF" stroke-width="3" stroke-linecap="round" stroke-linejoin="round"/>
<path d="M407.888 36.8139C407.888 38.0907 408.393 39.3151 409.293 40.2179C410.194 41.1207 411.414 41.6279 412.688 41.6279C413.961 41.6279 415.181 41.1207 416.082 40.2179C416.982 39.3151 417.488 38.0907 417.488 36.8139C417.488 35.5372 416.982 34.3128 416.082 33.41C415.181 32.5072 413.961 32 412.688 32C411.414 32 410.194 32.5072 409.293 33.41C408.393 34.3128 407.888 35.5372 407.888 36.8139V36.8139Z" stroke="#006BFF" stroke-width="3" stroke-linecap="round" stroke-linejoin="round"/>
<path d="M421 48.0465C420.157 46.5835 418.946 45.3687 417.486 44.5241C416.027 43.6795 414.372 43.2349 412.688 43.2349C411.003 43.2349 409.348 43.6795 407.889 44.5241C406.43 45.3687 405.218 46.5835 404.375 48.0465" stroke="#006BFF" stroke-width="3" stroke-linecap="round" stroke-linejoin="round"/>
<path d="M392.2 36.8139C392.2 38.0907 392.706 39.3151 393.606 40.2179C394.506 41.1207 395.727 41.6279 397 41.6279C398.273 41.6279 399.494 41.1207 400.394 40.2179C401.294 39.3151 401.8 38.0907 401.8 36.8139C401.8 35.5372 401.294 34.3128 400.394 33.41C399.494 32.5072 398.273 32 397 32C395.727 32 394.506 32.5072 393.606 33.41C392.706 34.3128 392.2 35.5372 392.2 36.8139V36.8139Z" stroke="#006BFF" stroke-width="3" stroke-linecap="round" stroke-linejoin="round"/>
<path d="M404.845 47.3105C403.958 46.0509 402.783 45.0232 401.418 44.3139C400.054 43.6046 398.539 43.2344 397.002 43.2344C395.464 43.2344 393.95 43.6046 392.585 44.3139C391.22 45.0232 390.045 46.0509 389.158 47.3105" stroke="#006BFF" stroke-width="3" stroke-linecap="round" stroke-linejoin="round"/>
<path d="M416.2 67.3022H377.8" stroke="#006BFF" stroke-width="3" stroke-linecap="round" stroke-linejoin="round"/>
<path d="M263 39.7674C263 41.8953 263.825 43.936 265.294 45.4407C266.763 46.9453 268.756 47.7906 270.833 47.7906C272.911 47.7906 274.903 46.9453 276.372 45.4407C277.841 43.936 278.667 41.8953 278.667 39.7674C278.667 37.6395 277.841 35.5987 276.372 34.0941C274.903 32.5894 272.911 31.7441 270.833 31.7441C268.756 31.7441 266.763 32.5894 265.294 34.0941C263.825 35.5987 263 37.6395 263 39.7674V39.7674Z" stroke="#006BFF" stroke-width="3" stroke-linecap="round" stroke-linejoin="round"/>
<path d="M280.233 59.0232C280.233 60.2999 280.729 61.5244 281.61 62.4272C282.491 63.3299 283.687 63.8371 284.933 63.8371C286.18 63.8371 287.375 63.3299 288.257 62.4272C289.138 61.5244 289.633 60.2999 289.633 59.0232C289.633 57.7464 289.138 56.522 288.257 55.6192C287.375 54.7164 286.18 54.2092 284.933 54.2092C283.687 54.2092 282.491 54.7164 281.61 55.6192C280.729 56.522 280.233 57.7464 280.233 59.0232V59.0232Z" stroke="#006BFF" stroke-width="3" stroke-linecap="round" stroke-linejoin="round"/>
<path d="M284.933 33.3489H310" stroke="#006BFF" stroke-width="3" stroke-linecap="round" stroke-linejoin="round"/>
<path d="M284.933 39.7676H299.033" stroke="#006BFF" stroke-width="3" stroke-linecap="round" stroke-linejoin="round"/>
<path d="M295.9 55.814H310" stroke="#006BFF" stroke-width="3" stroke-linecap="round" stroke-linejoin="round"/>
<path d="M295.9 62.2327H302.167" stroke="#006BFF" stroke-width="3" stroke-linecap="round" stroke-linejoin="round"/>
<path d="M280.233 75.0701C280.233 76.3468 280.729 77.5712 281.61 78.474C282.491 79.3768 283.687 79.884 284.933 79.884C286.18 79.884 287.375 79.3768 288.257 78.474C289.138 77.5712 289.633 76.3468 289.633 75.0701C289.633 73.7933 289.138 72.5689 288.257 71.6661C287.375 70.7633 286.18 70.2561 284.933 70.2561C283.687 70.2561 282.491 70.7633 281.61 71.6661C280.729 72.5689 280.233 73.7933 280.233 75.0701V75.0701Z" stroke="#006BFF" stroke-width="3" stroke-linecap="round" stroke-linejoin="round"/>
<path d="M295.9 71.8605H310" stroke="#006BFF" stroke-width="3" stroke-linecap="round" stroke-linejoin="round"/>
<path d="M295.9 78.2791H302.167" stroke="#006BFF" stroke-width="3" stroke-linecap="round" stroke-linejoin="round"/>
<path d="M284.933 46.1862H305.3" stroke="#006BFF" stroke-width="3" stroke-linecap="round" stroke-linejoin="round"/>
<path d="M273.967 54.2092V57.4185" stroke="#006BFF" stroke-width="3" stroke-linecap="round" stroke-linejoin="round"/>
<path d="M273.967 63.8372V67.0465" stroke="#006BFF" stroke-width="3" stroke-linecap="round" stroke-linejoin="round"/>
<path d="M273.967 73.465V76.6743" stroke="#006BFF" stroke-width="3" stroke-linecap="round" stroke-linejoin="round"/>
<defs>
<filter id="filter0_d" x="0" y="0" width="601" height="156" filterUnits="userSpaceOnUse" color-interpolation-filters="sRGB">
<feFlood flood-opacity="0" result="BackgroundImageFix"/>
<feColorMatrix in="SourceAlpha" type="matrix" values="0 0 0 0 0 0 0 0 0 0 0 0 0 0 0 0 0 0 127 0"/>
<feOffset dy="4"/>
<feGaussianBlur stdDeviation="4.5"/>
<feColorMatrix type="matrix" values="0 0 0 0 0 0 0 0 0 0 0 0 0 0 0 0 0 0 0.25 0"/>
<feBlend mode="normal" in2="BackgroundImageFix" result="effect1_dropShadow"/>
<feBlend mode="normal" in="SourceGraphic" in2="effect1_dropShadow" result="shape"/>
</filter>
</defs>
</svg>
