<svg width="1280" height="280" viewBox="0 0 1280 280" fill="none" xmlns="http://www.w3.org/2000/svg">
<rect width="1280" height="280" fill="black"/>
<mask id="mask0" mask-type="alpha" maskUnits="userSpaceOnUse" x="0" y="0" width="1280" height="280">
<rect width="1280" height="280" fill="black"/>
</mask>
<g mask="url(#mask0)">
<path d="M185.462 -117.1C225.73 -120.235 269.678 -118.663 310.972 -115.05C311.576 -114.993 312.03 -114.47 311.987 -113.89L278.927 331.775L276.414 365.652C266.397 500.681 94.0032 552.663 3.1923 448.035C-24.9508 415.61 -63.6223 397.089 -103.392 393.373C-69.4343 -64.5238 57.9629 -107.189 185.462 -117.1Z" stroke="#006BFF" stroke-width="5.16304" stroke-miterlimit="10" stroke-dasharray="20.28 20.28"/>
<path d="M-88.012 380.338C-88.053 380.89 -87.655 381.389 -87.1023 381.497C-47.8059 388.645 -12.323 408.754 14.0376 439.114L14.3492 439.473C50.1938 480.502 103.479 497.797 155.563 485.942C215.111 472.381 257.805 422.288 262.241 362.506L296.643 -101.077C296.687 -101.666 296.214 -102.201 295.608 -102.238C254.854 -105.253 218.374 -105.541 186.979 -103.101C159.6 -100.974 127.519 -97.1091 97.1841 -84.5893C65.9618 -71.7094 39.9215 -51.0223 17.5952 -21.374C-37.6756 52.0484 -72.2567 183.528 -88.012 380.338Z" stroke="#006BFF" stroke-width="5.16304" stroke-miterlimit="10" stroke-dasharray="15.49 15.49"/>
<path d="M-72.711 369.367C-72.7595 369.89 -72.399 370.376 -71.8769 370.51C-34.4647 380.074 -0.502633 400.929 24.9036 430.186L25.2155 430.545C59.4527 469.715 111.517 484.794 161.059 469.858C210.779 454.883 244.009 413.943 247.788 363.032L281.277 -88.0487C281.322 -88.6478 280.839 -89.1831 280.222 -89.2124C246.109 -91.2188 215.316 -91.1806 188.502 -89.1023C162.242 -87.0573 131.548 -83.39 103.049 -71.6369C74.1901 -59.7382 50.0408 -40.5182 29.2331 -12.8885C-23.3395 56.9305 -56.7251 182.057 -72.711 369.367Z" stroke="#006BFF" stroke-width="5.16304" stroke-miterlimit="10" stroke-dasharray="15.49 15.49"/>
<path d="M-57.4196 359.255C-57.4661 359.751 -57.1431 360.224 -56.6515 360.383C-21.0945 371.866 11.3524 393.158 35.7807 421.263L36.0839 421.612C66.4399 456.324 112.614 469.675 156.56 456.445C200.656 443.162 230.139 406.877 233.492 361.732L265.917 -74.7812C265.962 -75.3899 265.47 -75.9262 264.842 -75.947C237.318 -77.1008 212.222 -76.8116 190.061 -75.0982C164.911 -73.1452 135.609 -69.6653 108.945 -58.679C82.4507 -47.7616 60.2018 -30.008 40.9035 -4.40763C-9.08949 61.9385 -41.2815 180.967 -57.4196 359.255Z" stroke="#006BFF" stroke-width="5.16304" stroke-miterlimit="10" stroke-dasharray="41.92 41.92"/>
<path d="M-42.1362 349.857C-42.1813 350.334 -41.8958 350.794 -41.4244 350.97C-7.67791 363.935 23.2454 385.417 46.6616 412.34L46.9569 412.669C73.4304 442.913 113.71 454.554 152.059 443.01C190.537 431.432 216.261 399.792 219.187 360.424L250.531 -61.2538C250.577 -61.872 250.074 -62.4094 249.436 -62.4217C228.424 -62.9 209.04 -62.4533 191.623 -61.1062C167.589 -59.2443 139.669 -55.9528 114.839 -45.7239C90.7177 -35.7873 70.3491 -19.4928 52.5695 4.07894C5.08805 67.0405 -25.9224 180.224 -42.1362 349.857Z" stroke="#006BFF" stroke-width="5.16304" stroke-miterlimit="10" stroke-dasharray="17.58 17.58"/>
<path d="M-26.8521 341.082C-26.8959 341.541 -26.6287 341.99 -26.1966 342.181C5.74095 356.261 35.1513 377.708 57.5491 403.437L57.8262 403.756C80.414 429.54 114.796 439.451 147.543 429.604C180.399 419.731 202.364 392.728 204.862 359.149L235.105 -47.3706C235.152 -47.9984 234.629 -48.5376 233.979 -48.5416C219.398 -48.5413 205.731 -48.0597 193.202 -47.0852C170.281 -45.3052 143.741 -42.2113 120.752 -32.7485C98.9952 -23.7937 80.5168 -8.96722 64.2553 12.5754C19.2069 72.2305 -10.6214 179.767 -26.8521 341.082Z" stroke="#006BFF" stroke-width="5.16304" stroke-miterlimit="10" stroke-dasharray="15.49 15.49"/>
<path d="M-11.5806 332.828C-11.6237 333.277 -11.3835 333.706 -10.9715 333.914C19.1959 348.782 47.0828 370.006 68.4393 394.511L68.6988 394.809C87.3971 416.131 115.876 424.321 143.016 416.172C170.246 407.994 188.446 385.651 190.517 357.852L219.634 -33.1201C219.682 -33.7574 219.14 -34.308 218.478 -34.2941C210.183 -34.0655 202.255 -33.6707 194.799 -33.0904C172.978 -31.4024 147.821 -28.4959 126.664 -19.8002C107.271 -11.8275 90.6821 1.53055 75.9379 21.0436C33.2779 77.5115 4.61476 179.552 -11.5806 332.828Z" stroke="#006BFF" stroke-width="5.16304" stroke-miterlimit="10" stroke-dasharray="15.49 15.49"/>
<path d="M3.70378 325.033C3.65228 325.462 3.88315 325.89 4.27588 326.106C32.9391 341.551 58.7394 361.971 79.3652 385.601L79.6252 385.899C94.4109 402.737 116.988 409.205 138.505 402.755C160.1 396.283 174.532 378.582 176.173 356.576L204.137 -18.3579C204.186 -19.0142 203.614 -19.5677 202.94 -19.5265C200.73 -19.392 198.567 -19.2435 196.443 -19.0821C175.726 -17.4759 151.949 -14.7755 132.61 -6.8386C115.589 0.152511 100.88 12.041 87.6514 29.5333C47.3089 82.8463 19.8188 179.573 3.70378 325.033Z" stroke="#006BFF" stroke-width="5.16304" stroke-miterlimit="10" stroke-dasharray="20.28 20.28"/>
<path d="M18.9838 317.64C18.9329 318.06 19.1457 318.476 19.5291 318.701C46.3582 334.335 70.673 354.232 90.3173 376.691L90.5779 376.989C101.452 389.349 118.098 394.085 133.999 389.335C149.95 384.561 160.605 371.523 161.817 355.305L188.593 -2.97043C188.642 -3.63641 188.05 -4.2013 187.362 -4.13287C170.65 -2.49913 152.976 0.254399 138.622 6.13015C123.965 12.129 111.142 22.5671 99.4287 38.0192C61.3147 88.2464 34.976 179.782 18.9838 317.64Z" stroke="#006BFF" stroke-width="5.16304" stroke-miterlimit="10" stroke-dasharray="15.49 15.49"/>
<path d="M34.2685 310.62C34.2181 311.031 34.4226 311.437 34.7782 311.659C59.825 327.288 82.6707 346.541 101.312 367.786L101.574 368.084C108.634 376.079 119.079 379.019 129.477 375.917C139.916 372.799 146.621 364.621 147.415 354.035L172.961 13.2348C173.013 12.5404 172.371 11.9613 171.657 12.0749C162.496 13.5624 152.862 15.7432 144.678 19.0881C132.383 24.1037 121.447 33.0719 111.235 46.4915C75.3158 93.7182 50.1089 180.177 34.2685 310.62Z" stroke="#006BFF" stroke-width="5.16304" stroke-miterlimit="10" stroke-dasharray="5.41 5.41"/>
<path d="M49.5587 303.939C49.5087 304.341 49.6956 304.736 50.0426 304.967C73.3618 320.404 94.7764 338.9 112.405 358.892L112.668 359.191C115.255 362.104 118.545 363.409 122.275 363.043C128.179 362.451 132.605 357.686 133.035 351.977L157.178 31.4215C157.236 30.661 156.454 30.0595 155.707 30.3029C153.98 30.8627 152.371 31.4428 150.877 32.0524C140.952 36.0849 131.889 43.5815 123.182 54.9779C89.3397 99.2361 65.2292 180.734 49.5587 303.939Z" stroke="#006BFF" stroke-width="5.16304" stroke-miterlimit="10" stroke-dasharray="15.49 15.49"/>
<path d="M65.3755 298.578C84.2733 311.731 101.921 326.841 117.153 342.905C117.814 343.608 119.014 343.235 119.084 342.305L140.476 60.3312C140.555 59.2882 139.177 58.7368 138.48 59.5436C137.424 60.7717 136.372 62.076 135.315 63.446C103.455 104.815 80.4069 181.445 64.9172 297.553C64.857 297.954 65.0355 298.349 65.3755 298.578Z" stroke="#006BFF" stroke-width="5.16304" stroke-miterlimit="10" stroke-dasharray="15.49 15.49"/>
<path d="M80.7869 292.476C88.9853 298.432 96.9745 304.756 104.612 311.343C105.309 311.945 106.424 311.554 106.491 310.67L120.562 127.097C120.657 125.856 118.821 125.444 118.371 126.606C102.717 166.957 90.1477 221.568 80.3519 291.471C80.2924 291.854 80.4638 292.239 80.7869 292.476Z" stroke="#006BFF" stroke-width="5.16304" stroke-miterlimit="10" stroke-dasharray="15.49 15.49"/>
<path d="M1108.29 240.825C1144.92 226.665 1186.26 216.074 1225.68 208.203C1226.26 208.091 1226.82 208.475 1226.94 209.052L1317.06 652.228L1323.91 685.916C1351.22 820.191 1204.84 918.371 1091.93 841.515C1056.93 817.697 1015.91 810.325 977.884 817.676C885.276 362.339 992.293 285.645 1108.29 240.825Z" stroke="#006BFF" stroke-width="5.16304" stroke-miterlimit="10" stroke-dasharray="20.28 20.28"/>
<path d="M988.787 800.639C988.899 801.188 989.404 801.564 989.947 801.517C1028.43 797.645 1066.89 807.444 1099.64 829.738L1100.03 830.002C1144.49 860.069 1198.74 862.221 1243.97 836.323C1295.68 806.705 1321.8 746.166 1309.72 686.736L1216.01 225.889C1215.89 225.303 1215.31 224.913 1214.74 225.043C1176.01 233.341 1142.01 243.116 1113.47 254.145C1088.58 263.762 1059.79 276.368 1034.97 296.919C1009.42 318.065 990.812 345.385 978.086 380.405C946.588 467.127 950.075 604.674 988.787 800.639Z" stroke="#006BFF" stroke-width="5.16304" stroke-miterlimit="10" stroke-dasharray="15.49 15.49"/>
<path d="M1000.18 785.635C1000.27 786.158 1000.74 786.532 1001.26 786.518C1038.62 785.523 1075.83 796.468 1107.36 817.947L1107.75 818.211C1150.18 846.906 1202.64 847.244 1244.63 819.062C1286.77 790.793 1306.55 741.794 1296.26 691.201L1205.13 242.939C1205.01 242.344 1204.42 241.955 1203.84 242.097C1171.6 249.539 1142.99 258.057 1118.64 267.464C1094.8 276.687 1067.27 288.71 1043.97 307.998C1020.38 327.527 1003.15 352.885 991.307 385.508C961.379 467.942 964.268 598.923 1000.18 785.635Z" stroke="#006BFF" stroke-width="5.16304" stroke-miterlimit="10" stroke-dasharray="15.49 15.49"/>
<path d="M1011.79 771.473C1011.88 771.967 1012.31 772.339 1012.8 772.359C1048.92 773.748 1084.8 785.535 1115.08 806.159L1115.46 806.415C1153.03 831.835 1199.51 832.12 1236.71 807.156C1274.04 782.1 1291.57 738.684 1282.46 693.839L1194.32 260.22C1194.2 259.615 1193.6 259.229 1193.01 259.381C1167.15 265.832 1143.94 273.018 1123.83 280.783C1101.02 289.603 1074.77 301.051 1052.99 319.076C1031.36 336.988 1015.52 360.383 1004.54 390.6C976.114 468.906 978.475 593.57 1011.79 771.473Z" stroke="#006BFF" stroke-width="5.16304" stroke-miterlimit="10" stroke-dasharray="41.92 41.92"/>
<path d="M1023.58 758.006C1023.67 758.482 1024.06 758.851 1024.54 758.893C1059.33 762.226 1093.8 774.619 1122.79 794.366L1123.16 794.605C1155.88 816.742 1196.36 816.993 1228.78 795.227C1261.31 773.392 1276.59 735.551 1268.65 696.461L1183.57 277.757C1183.44 277.143 1182.83 276.759 1182.23 276.923C1162.63 282.232 1144.78 287.994 1129.01 294.091C1107.23 302.507 1082.25 313.382 1062 330.154C1042.33 346.447 1027.87 367.891 1017.77 395.702C990.8 469.983 992.693 588.578 1023.58 758.006Z" stroke="#006BFF" stroke-width="5.16304" stroke-miterlimit="10" stroke-dasharray="17.58 17.58"/>
<path d="M157.719 594.924C224.56 512.499 211.943 387.96 129.536 316.756C-3.39044 201.884 60.4005 -16.3825 230.631 -29.1679L273.338 -32.3754L362.446 -39.068C368.039 13.5595 376.87 69.2497 390.72 119.365C434.197 276.655 518.338 427.703 1095.6 384.347C1100.7 434.687 1124.45 483.626 1165.66 519.233C1298.58 634.106 1234.79 852.372 1064.56 865.158L1021.86 868.365L369.561 917.356L326.854 920.564C156.611 933.339 49.9013 727.878 157.719 594.924Z" fill="black"/>
<path d="M503.422 -371.814C508.439 -362.778 522.305 -377.771 522.305 -377.771C522.305 -377.771 535.794 -390.272 530.607 -400.789C602.347 -470.847 697.586 -516.754 805.393 -524.977L1639.78 -588.619C1642.4 -556.735 1640.99 -527.042 1635.54 -500.063C1628.87 -467.144 1616.13 -438.291 1597.66 -414.194L1619.11 -379.359C1620.63 -381.12 1622.13 -382.892 1623.61 -384.709C1667.33 -438.415 1684.19 -510.006 1677.37 -591.486L1951.57 -612.4L1953.46 -329.572L1967.08 -192.953L2039.12 529.746L1805.6 709.105C1805.6 709.105 1707.3 356.825 1128.92 400.941C1123.9 350.648 1137.58 298.93 1171.13 257.705C1273.51 120.886 1164.36 -79.7905 994.603 -66.8426L959.532 -64.1677L395.257 -21.1283C381.925 -154.875 424.443 -279.705 503.422 -371.814Z" fill="#006BFF"/>
<path d="M1109.28 -29.2837C1010.89 16.4171 964.379 133.223 1005.39 231.61C1071.53 390.33 912.78 558.934 753.793 498.828L713.907 483.749L630.685 452.287C650.105 402.818 668.037 349.245 678.867 298.556C712.85 139.456 707.375 -31.146 168.24 -234.968C187.04 -282.181 188.423 -335.98 167.92 -385.179C101.778 -543.899 260.528 -712.503 419.515 -652.398L459.401 -637.319L1068.61 -407.005L1108.5 -391.926C1267.49 -331.806 1267.98 -103.001 1109.28 -29.2837Z" fill="black"/>
<path d="M404.372 726.335C404.041 716.124 384.653 723.7 384.653 723.7C384.653 723.7 366.757 729.204 366.556 740.814C269.722 773.284 162.938 774.202 62.2781 736.062L-716.797 440.863C-704.417 411.198 -689.42 385.199 -672.053 363.335C-650.849 336.663 -626.073 316.195 -598.339 302.408L-601.509 262.151C-603.688 263.088 -605.86 264.04 -608.028 265.043C-672.128 294.695 -720.358 351.706 -751.892 427.565L-1007.91 330.557L-878.903 76.4225L-827.997 -51.6988L-558.714 -729.443L-266.015 -791.529C-266.015 -791.529 -340.502 -434.488 199.536 -229.863C180.796 -182.699 144.61 -142.146 95.4059 -119.385C-59.8096 -40.0482 -54.4861 185.777 104.016 245.834L136.761 258.242L663.629 457.876C613.793 583.304 517.901 677.17 404.372 726.335Z" fill="#006BFF"/>
<path d="M390.971 764.8C391.51 734.62 386.398 706.373 375.711 680.635C364.249 653.05 346.436 628.49 322.763 607.598C298.93 586.583 269.06 569.131 233.973 555.733C191.394 539.475 141.731 529.341 86.3673 525.604C30.0279 521.799 -31.1108 524.711 -95.3363 534.244L-115.943 537.3L-129.064 521.366C-169.958 471.682 -213.108 428.961 -257.298 394.368C-300.736 360.379 -344.349 334.897 -386.928 318.639C-422.015 305.241 -456.029 298.3 -488.031 298.009C-519.826 297.72 -549.819 304.026 -577.174 316.789C-578.852 317.571 -580.517 318.384 -582.176 319.211C-610.146 333.225 -635.144 354.027 -656.518 381.142C-674.043 403.362 -689.157 429.792 -701.642 459.945L-737.027 446.434C-705.225 369.327 -656.585 311.377 -591.938 281.237C-589.751 280.217 -587.571 279.246 -585.364 278.297C-520.464 250.4 -447.317 253.28 -372.434 281.873C-280.062 317.144 -185.021 391.517 -99.4456 495.481C34.956 475.525 156.119 483.693 248.492 518.964C325.935 548.535 383.146 597.145 410.996 664.192C422.251 691.279 428.159 720.083 429.13 750.09C416.601 755.544 403.875 760.441 390.971 764.8Z" fill="black"/>
</g>
</svg>
