<svg width="603" height="156" viewBox="0 0 603 156" fill="none" xmlns="http://www.w3.org/2000/svg">
<g filter="url(#filter0_d)">
<rect x="11" y="5" width="583" height="138" fill="#006BFF"/>
</g>
<mask id="mask0" mask-type="alpha" maskUnits="userSpaceOnUse" x="9" y="5" width="583" height="138">
<rect x="9" y="5" width="583" height="138" fill="#0AE8F0"/>
</mask>
<g mask="url(#mask0)">
<path d="M-82.5168 454.251L69.5535 474.092L71.6089 465.159C74.9289 450.763 74.6853 435.537 70.9027 421.012C67.12 406.487 59.9316 393.174 50.0599 382.413L-66.7013 255.011C-76.5721 244.25 -88.7793 236.421 -102.095 232.311C-115.41 228.201 -129.364 227.955 -142.552 231.598C-155.744 235.233 -169.699 234.98 -183.015 230.866C-196.331 226.752 -208.538 218.92 -218.41 208.158L-249.459 174.324C-259.326 163.561 -271.528 155.728 -284.841 151.612C-298.153 147.496 -312.105 147.243 -325.294 150.878L-481.456 193.909C-494.645 197.543 -506.606 204.936 -516.135 215.346C-525.665 225.756 -532.427 238.815 -535.741 253.21L-574.953 423.591C-578.273 437.988 -578.029 453.214 -574.247 467.739C-570.464 482.264 -563.276 495.576 -553.404 506.338L-436.643 633.74C-426.767 644.476 -414.564 652.284 -401.259 656.381C-387.953 660.478 -374.013 660.719 -360.836 657.082C-347.647 653.447 -333.695 653.697 -320.381 657.807C-307.067 661.917 -294.859 669.741 -284.985 680.495L-253.928 714.355C-244.547 724.616 -233.037 732.233 -220.45 736.511C-207.863 740.789 -194.6 741.591 -181.875 738.843L-165.227 527.241C-163.495 505.265 -153.812 485.235 -138.304 471.549C-122.796 457.864 -102.731 451.642 -82.5168 454.251Z" fill="black"/>
<path d="M185.452 91.3721H195.28L201.104 70.8321L206.928 91.3721H216.756L226.896 54.9721H216.912L211.244 77.9041L204.744 54.9721H197.412L190.912 77.9041L185.296 54.9721H175.26L185.452 91.3721ZM238.717 92.1001C246.465 92.1001 252.601 86.1201 252.601 78.3721C252.601 70.6241 246.465 64.6441 238.717 64.6441C231.021 64.6441 224.833 70.6241 224.833 78.3721C224.833 86.1201 231.073 92.1001 238.717 92.1001ZM238.717 83.7801C235.753 83.7801 233.517 81.5961 233.517 78.3721C233.517 75.1481 235.753 72.9641 238.717 72.9641C241.733 72.9641 243.969 75.1481 243.969 78.3721C243.969 81.5961 241.733 83.7801 238.717 83.7801ZM264.51 70.2081V65.3721H255.878V91.3721H264.51V80.6081C264.51 75.4601 268.878 73.9001 272.31 74.4201V64.8521C268.826 64.8521 265.55 66.6721 264.51 70.2081ZM300.749 91.3721L291.649 78.3721L300.385 65.3721H290.401L283.693 76.2401V54.9721H275.061V91.3721H283.693V80.2961L291.077 91.3721H300.749ZM317.389 54.1921C308.549 54.1921 304.285 58.0921 304.285 65.3721H301.009V73.6401H304.285V91.3721H312.917V73.6401H316.349V65.3721H312.917C312.917 62.7201 314.737 61.5241 317.285 61.5241C317.805 61.5241 318.325 61.5241 318.845 61.5761V91.3721H327.477V55.2321C324.253 54.6081 321.341 54.1921 317.389 54.1921ZM344.548 92.1001C352.296 92.1001 358.432 86.1201 358.432 78.3721C358.432 70.6241 352.296 64.6441 344.548 64.6441C336.852 64.6441 330.664 70.6241 330.664 78.3721C330.664 86.1201 336.904 92.1001 344.548 92.1001ZM344.548 83.7801C341.584 83.7801 339.348 81.5961 339.348 78.3721C339.348 75.1481 341.584 72.9641 344.548 72.9641C347.564 72.9641 349.8 75.1481 349.8 78.3721C349.8 81.5961 347.564 83.7801 344.548 83.7801ZM389.916 65.3721L386.484 79.5161L382.584 65.3721H375.304L371.404 79.5161L367.972 65.3721H358.82L366.776 91.3721H375.2L378.944 78.1641L382.688 91.3721H391.112L399.068 65.3721H389.916ZM408.354 72.9641C408.354 72.1841 409.082 71.7161 410.278 71.7161C411.734 71.7161 412.774 72.4961 413.502 73.9521L420.782 70.6761C418.65 66.4121 414.75 64.6441 410.07 64.6441C404.766 64.6441 399.618 67.5041 399.618 73.3801C399.618 82.5841 412.306 80.8681 412.306 83.5721C412.306 84.5081 411.474 84.9761 409.966 84.9761C407.938 84.9761 406.586 84.0401 405.91 82.1161L398.37 85.9121C400.45 90.3321 404.558 92.1001 410.018 92.1001C415.322 92.1001 421.25 89.8641 421.25 83.3641C421.25 73.4841 408.354 75.8241 408.354 72.9641Z" fill="white"/>
</g>
<defs>
<filter id="filter0_d" x="2" y="0" width="601" height="156" filterUnits="userSpaceOnUse" color-interpolation-filters="sRGB">
<feFlood flood-opacity="0" result="BackgroundImageFix"/>
<feColorMatrix in="SourceAlpha" type="matrix" values="0 0 0 0 0 0 0 0 0 0 0 0 0 0 0 0 0 0 127 0"/>
<feOffset dy="4"/>
<feGaussianBlur stdDeviation="4.5"/>
<feColorMatrix type="matrix" values="0 0 0 0 0 0 0 0 0 0 0 0 0 0 0 0 0 0 0.25 0"/>
<feBlend mode="normal" in2="BackgroundImageFix" result="effect1_dropShadow"/>
<feBlend mode="normal" in="SourceGraphic" in2="effect1_dropShadow" result="shape"/>
</filter>
</defs>
</svg>
