<svg class="sc-imgww4-0 krBcwV sc-t1ci69-0 cFcUZA" viewBox="0 0 33 32" fill="none" version="1.1" xmlns="http://www.w3.org/2000/svg" xmlns:xlink="http://www.w3.org/1999/xlink"><path fill-rule="evenodd" clip-rule="evenodd" d="M9.07347 0H22.9455C28.3695 0 32.0015 3.808 32.0015 9.472V22.5456C32.0015 28.192 28.3695 32 22.9455 32H9.07347C3.64946 32 0.00146484 28.192 0.00146484 22.5456V9.472C0.00146484 3.808 3.64946 0 9.07347 0ZM15.0917 20.7845L22.6917 13.1845C23.2357 12.6405 23.2357 11.7605 22.6917 11.2005C22.1477 10.6565 21.2517 10.6565 20.7077 11.2005L14.0997 17.8085L11.2997 15.0085C10.7557 14.4645 9.85971 14.4645 9.31571 15.0085C8.77172 15.5525 8.77172 16.4325 9.31571 16.9925L13.1237 20.7845C13.3957 21.0565 13.7477 21.1845 14.0997 21.1845C14.4677 21.1845 14.8197 21.0565 15.0917 20.7845Z" fill="currentColor"></path></svg>