<svg width="569" height="462" viewBox="0 0 569 462" fill="none" xmlns="http://www.w3.org/2000/svg">
<g clip-path="url(#clip0)">
<path d="M394.396 122.864L473.156 183.325C474.759 117.034 431.665 55.702 367.249 35.8403C294.102 13.2861 219.273 48.496 187.419 112.604C115.02 113.973 50.8564 167.663 40.8404 244.143C31.4028 316.218 76.0801 385.858 145.546 407.275C218.693 429.829 293.526 394.619 325.376 330.51C333.462 330.357 341.441 329.547 349.257 328.131L303.927 186.486C286.622 132.406 349.353 88.2883 394.396 122.864Z" fill="#0AE8F0"/>
<path d="M509.659 193.451L504.249 289.233C503.334 305.437 493.785 319.636 479.538 326.662L393.313 369.137C378.703 376.141 361.636 375.034 347.921 366.194L267.106 312.886C253.391 304.046 245.873 288.741 246.788 272.537L252.178 177.115C253.093 160.911 262.642 146.713 276.889 139.686L363.114 97.211C377.723 90.2076 394.791 91.3144 408.505 100.155L489.321 153.462C502.672 162.279 510.553 177.607 509.659 193.451Z" fill="#004796"/>
</g>
<defs>
<clipPath id="clip0">
<rect width="569" height="461.388" fill="white"/>
</clipPath>
</defs>
</svg>
