<svg width="45" height="45" viewBox="0 0 45 45" fill="none" xmlns="http://www.w3.org/2000/svg">
<path d="M4.21875 7.03125C4.21875 8.52309 4.81138 9.95383 5.86627 11.0087C6.92117 12.0636 8.35191 12.6562 9.84375 12.6562C11.3356 12.6562 12.7663 12.0636 13.8212 11.0087C14.8761 9.95383 15.4688 8.52309 15.4688 7.03125C15.4688 5.53941 14.8761 4.10867 13.8212 3.05377C12.7663 1.99888 11.3356 1.40625 9.84375 1.40625C8.35191 1.40625 6.92117 1.99888 5.86627 3.05377C4.81138 4.10867 4.21875 5.53941 4.21875 7.03125V7.03125Z" stroke="#006BFF" stroke-width="3" stroke-linecap="round" stroke-linejoin="round"></path>
<path d="M18.2812 26.7188V23.9062C18.2812 21.6685 17.3923 19.5224 15.81 17.94C14.2276 16.3577 12.0815 15.4688 9.84375 15.4688C7.60599 15.4688 5.45987 16.3577 3.87754 17.94C2.2952 19.5224 1.40625 21.6685 1.40625 23.9062V29.5312H4.21875L5.625 43.5938H14.0625L15.3281 30.9375" stroke="#006BFF" stroke-width="3" stroke-linecap="round" stroke-linejoin="round"></path>
<path d="M23.9062 23.9062H40.7812C41.5272 23.9062 42.2425 23.6099 42.77 23.0825C43.2974 22.555 43.5938 21.8397 43.5938 21.0938V4.21875C43.5938 3.47283 43.2974 2.75746 42.77 2.23001C42.2425 1.70257 41.5272 1.40625 40.7812 1.40625H21.0938" stroke="#006BFF" stroke-width="3" stroke-linecap="round" stroke-linejoin="round"></path>
<path d="M37.9688 18.2812H23.9062" stroke="#006BFF" stroke-width="3" stroke-linecap="round" stroke-linejoin="round"></path>
<path d="M19.9238 34.4531C19.9238 35.7585 20.4423 37.0104 21.3654 37.9334C22.2884 38.8564 23.5403 39.375 24.8456 39.375C26.151 39.375 27.4029 38.8564 28.3259 37.9334C29.249 37.0104 29.7675 35.7585 29.7675 34.4531C29.7675 33.1478 29.249 31.8959 28.3259 30.9728C27.4029 30.0498 26.151 29.5313 24.8456 29.5312C23.5403 29.5313 22.2884 30.0498 21.3654 30.9728C20.4423 31.8959 19.9238 33.1478 19.9238 34.4531V34.4531Z" stroke="#006BFF" stroke-width="3" stroke-linecap="round" stroke-linejoin="round"></path>
<path d="M30.9376 43.5937C30.1861 42.7114 29.2521 42.0028 28.1999 41.5169C27.1478 41.031 26.0027 40.7793 24.8438 40.7793C23.6849 40.7793 22.5398 41.031 21.4877 41.5169C20.4356 42.0028 19.5015 42.7114 18.7501 43.5937" stroke="#006BFF" stroke-width="3" stroke-linecap="round" stroke-linejoin="round"></path>
<path d="M32.58 34.4531C32.58 35.7585 33.0986 37.0104 34.0216 37.9334C34.9446 38.8564 36.1965 39.375 37.5019 39.375C38.8073 39.375 40.0592 38.8564 40.9822 37.9334C41.9052 37.0104 42.4238 35.7585 42.4238 34.4531C42.4238 33.1478 41.9052 31.8959 40.9822 30.9728C40.0592 30.0498 38.8073 29.5313 37.5019 29.5312C36.1965 29.5313 34.9446 30.0498 34.0216 30.9728C33.0986 31.8959 32.58 33.1478 32.58 34.4531V34.4531Z" stroke="#006BFF" stroke-width="3" stroke-linecap="round" stroke-linejoin="round"></path>
<path d="M43.5938 43.5937C42.8424 42.7114 41.9083 42.0028 40.8562 41.5169C39.8041 41.031 38.659 40.7793 37.5001 40.7793C36.3411 40.7793 35.1961 41.031 34.1439 41.5169C33.0918 42.0028 32.1577 42.7114 31.4063 43.5937" stroke="#006BFF" stroke-width="3" stroke-linecap="round" stroke-linejoin="round"></path>
<path d="M35.1562 18.2812V7.03125" stroke="#006BFF" stroke-width="3" stroke-linecap="round" stroke-linejoin="round"></path>
<path d="M29.5312 18.2812V11.25" stroke="#006BFF" stroke-width="3" stroke-linecap="round" stroke-linejoin="round"></path>
</svg>