<svg class="sc-imgww4-0 krBcwV sc-1hh4k8s-0 bnXIVG instagram" viewBox="0 0 23 23" fill="currentColor" version="1.1" xmlns="http://www.w3.org/2000/svg" xmlns:xlink="http://www.w3.org/1999/xlink"><path d="M11.5 2.10833C14.5667 2.10833 14.95 2.10833 16.1958 2.20417C19.3583 2.3 20.7958 3.83333 20.8917 6.9C20.9875 8.14583 20.9875 8.43333 20.9875 11.5C20.9875 14.5667 20.9875 14.95 20.8917 16.1C20.7958 19.1667 19.2625 20.7 16.1958 20.7958C14.95 20.8917 14.6625 20.8917 11.5 20.8917C8.43333 20.8917 8.05 20.8917 6.9 20.7958C3.7375 20.7 2.3 19.1667 2.20417 16.1C2.10833 14.8542 2.10833 14.5667 2.10833 11.5C2.10833 8.43333 2.10833 8.05 2.20417 6.9C2.3 3.83333 3.83333 2.3 6.9 2.20417C8.05 2.10833 8.43333 2.10833 11.5 2.10833ZM11.5 0C8.3375 0 7.95417 0 6.80417 0.0958333C2.5875 0.2875 0.2875 2.5875 0.0958333 6.80417C0 7.95417 0 8.3375 0 11.5C0 14.6625 0 15.0458 0.0958333 16.1958C0.2875 20.4125 2.5875 22.7125 6.80417 22.9042C7.95417 23 8.3375 23 11.5 23C14.6625 23 15.0458 23 16.1958 22.9042C20.4125 22.7125 22.7125 20.4125 22.9042 16.1958C23 15.0458 23 14.6625 23 11.5C23 8.3375 23 7.95417 22.9042 6.80417C22.7125 2.5875 20.4125 0.2875 16.1958 0.0958333C15.0458 0 14.6625 0 11.5 0ZM11.5 5.55833C8.24167 5.55833 5.55833 8.24167 5.55833 11.5C5.55833 14.7583 8.24167 17.4417 11.5 17.4417C14.7583 17.4417 17.4417 14.7583 17.4417 11.5C17.4417 8.24167 14.7583 5.55833 11.5 5.55833ZM11.5 15.3333C9.39167 15.3333 7.66667 13.6083 7.66667 11.5C7.66667 9.39167 9.39167 7.66667 11.5 7.66667C13.6083 7.66667 15.3333 9.39167 15.3333 11.5C15.3333 13.6083 13.6083 15.3333 11.5 15.3333ZM17.6333 4.025C16.8667 4.025 16.2917 4.6 16.2917 5.36667C16.2917 6.13333 16.8667 6.70833 17.6333 6.70833C18.4 6.70833 18.975 6.13333 18.975 5.36667C18.975 4.6 18.4 4.025 17.6333 4.025Z"></path></svg>