<svg xmlns="http://www.w3.org/2000/svg" width="454" height="351" fill="none" xmlns:v="https://vecta.io/nano"><g clip-path="url(#A)"><path d="M177.067 235.522l.007.015.007.014 37.81 75.537c6.038 11.739 17.523 19.402 30.576 20.409l83.698 5.522c12.778.837 25.166-5.227 32.334-16.168l45.892-70.042c6.988-10.666 7.679-24.542 1.906-36.091l-37.81-75.536c-6.037-11.739-17.523-19.402-30.577-20.409l-83.697-5.522c-12.779-.836-25.166 5.228-32.334 16.168l-45.719 69.779c-7.189 10.972-8.087 24.66-2.093 36.324z" stroke="#0ae8f0" stroke-width="6"/><path d="M142.08 341.24c34.551 6.282 71.014-23.567 95.924-72.797 54.848-5.985 95.624-29.605 101.906-64.156s-23.566-71.013-72.797-95.923c-5.984-54.848-29.604-95.624-64.155-101.906s-71.013 23.567-95.923 72.797C52.186 85.239 11.393 108.871 5.128 143.41c-6.283 34.55 23.567 71.013 72.797 95.923 5.984 54.849 29.605 95.624 64.155 101.907z" fill="#8247f5"/></g><defs><clipPath id="A"><path fill="#fff" d="M0 0h454v351H0z"/></clipPath></defs></svg>