<svg xmlns="http://www.w3.org/2000/svg" width="427" height="409" fill="none" xmlns:v="https://vecta.io/nano"><style><![CDATA[.B{stroke:#fff}.C{stroke-width:1.013}.D{stroke-miterlimit:10}.E{stroke-dasharray:2.1 2.1}.F{stroke-dasharray:2.11 2.11}.G{stroke-dasharray:2.14 2.14}.H{stroke-dasharray:2.15 2.15}]]></style><g clip-path="url(#B)"><path d="M52.874 123.808c7.025 25.036 1.3 51.864-15.329 71.774-41.84 50.14-7.907 126.681 57.439 129.498 25.941 1.107 49.714 14.943 63.551 36.948 34.884 55.429 118.018 46.974 140.714-14.302 9.025-24.332 29.434-42.627 54.604-48.949 63.382-15.889 80.841-97.652 29.537-138.32-20.367-16.151-31.533-41.289-29.809-67.196 4.315-65.264-68.076-107.329-122.473-71.197-21.603 14.362-48.915 17.109-73.017 7.423C97.372 5.051 35.194 60.79 52.874 123.808z" fill="#bfb0ff"/><mask id="A" mask-type="alpha" maskUnits="userSpaceOnUse" x="19" y="8" width="395" height="392"><path d="M52.874 123.808c7.025 25.036 1.3 51.864-15.329 71.774-41.84 50.14-7.907 126.681 57.439 129.498 25.941 1.107 49.714 14.943 63.551 36.948 34.884 55.429 118.018 46.974 140.714-14.302 9.025-24.332 29.434-42.627 54.604-48.949 63.382-15.889 80.841-97.652 29.537-138.32-20.367-16.151-31.533-41.289-29.809-67.196 4.315-65.264-68.076-107.329-122.473-71.197-21.603 14.362-48.915 17.109-73.017 7.423C97.372 5.051 35.194 60.79 52.874 123.808z" fill="#006bff"/></mask><g mask="url(#A)" class="B C D"><path d="M480.83 92.421l42.318 209.202c2.388 11.803-4.63 23.335-15.675 25.761l-215.591 47.348c-11.046 2.426-21.933-5.174-24.321-16.977l-42.318-209.202C209.987 73.135 254.834-.566 325.413-16.067s140.16 33.07 155.417 108.488z" class="E"/><path d="M475.904 95.546l40.556 200.488c2.288 11.311-4.439 22.366-15.024 24.69l-206.612 45.377c-10.585 2.325-21.021-4.961-23.309-16.271l-40.556-200.489C216.338 77.065 259.318 6.431 326.957-8.424S461.283 23.27 475.904 95.546z" stroke-dasharray="2.13 2.13"/><path d="M470.975 98.674l38.794 191.775c2.188 10.818-4.246 21.392-14.37 23.615l-197.631 43.405c-10.124 2.223-20.107-4.745-22.295-15.563L236.679 150.13C222.694 80.996 263.807 13.431 328.506-.779S456.991 29.54 470.975 98.674z" class="E"/><path d="M466.048 101.8l37.031 183.064c2.089 10.329-4.052 20.421-13.718 22.544l-188.653 41.433c-9.666 2.123-19.194-4.529-21.283-14.857l-37.032-183.065C229.043 84.924 268.288 20.43 330.049 6.866S452.698 35.807 466.048 101.8z" class="G"/><path d="M461.123 104.927l35.269 174.351c1.989 9.836-3.86 19.448-13.064 21.47l-179.675 39.46c-9.205 2.022-18.28-4.312-20.269-14.148l-35.269-174.352C235.4 88.855 272.778 27.429 331.599 14.511s116.809 27.563 129.524 90.416z" class="E"/><path d="M456.197 108.054l33.506 165.639c1.891 9.343-3.665 18.477-12.412 20.398L306.595 331.58c-8.744 1.92-17.367-4.097-19.258-13.443l-33.506-165.638C241.752 92.788 277.26 34.433 333.143 22.16s110.975 26.181 123.054 85.895z" class="G"/><path d="M451.272 111.18l31.744 156.925c1.791 8.853-3.473 17.503-11.759 19.323l-161.716 35.516c-8.285 1.82-16.452-3.88-18.243-12.734l-31.743-156.925c-11.444-56.572 22.198-111.856 75.138-123.483s105.135 24.806 116.579 81.378z" class="E"/><path d="M446.345 114.307l29.981 148.212c1.692 8.361-3.281 16.534-11.106 18.252l-152.738 33.545c-7.824 1.718-15.54-3.667-17.231-12.029L265.27 154.076c-10.809-53.43 20.964-105.646 70.966-116.628s99.301 23.429 110.109 76.859z" class="H"/><path d="M441.419 117.432l28.219 139.501c1.591 7.869-3.089 15.561-10.453 17.178l-143.759 31.573c-7.364 1.617-14.625-3.452-16.217-11.321L270.99 154.862c-10.173-50.29 19.733-99.435 66.795-109.771s93.461 22.053 103.634 72.341z" class="E"/><path d="M436.494 120.561l26.456 130.787c1.493 7.379-2.895 14.59-9.8 16.107l-134.782 29.601c-6.905 1.516-13.713-3.236-15.205-10.615l-26.457-130.787c-9.537-47.149 18.5-93.226 62.623-102.916s87.627 20.674 97.165 67.823z" class="H"/><path d="M431.568 123.688l24.694 122.074c1.393 6.887-2.702 13.616-9.146 15.032l-125.804 27.629c-6.444 1.415-12.798-3.02-14.191-9.906l-24.694-122.074c-8.902-44.007 17.269-87.016 58.452-96.06s81.787 19.296 90.689 63.305z" class="E"/><path d="M426.641 126.814l22.932 113.36c1.293 6.394-2.509 12.646-8.495 13.961l-116.822 25.657c-5.984 1.314-11.886-2.804-13.18-9.201l-22.931-113.36c-8.267-40.868 16.034-80.805 54.28-89.205s75.95 17.922 84.216 58.788z" stroke-dasharray="2.16 2.16"/><path d="M421.716 129.941l21.168 104.648c1.195 5.904-2.317 11.673-7.84 12.885l-107.845 23.685c-5.525 1.214-10.971-2.59-12.165-8.491L293.865 158.02c-7.631-37.726 14.804-74.595 50.109-82.349s70.11 16.544 77.742 54.27z" class="E"/><path d="M416.786 133.066l19.407 95.937c1.094 5.412-2.125 10.702-7.189 11.814l-98.866 21.714c-5.065 1.112-10.059-2.374-11.154-7.786l-19.407-95.937c-6.996-34.584 13.57-68.384 45.937-75.493s64.276 15.167 71.272 49.751z" stroke-dasharray="2.17 2.17"/><path d="M411.861 136.194l17.644 87.224c.996 4.922-1.931 9.728-6.534 10.739l-89.888 19.742c-4.607 1.011-9.144-2.159-10.139-7.078l-17.645-87.224c-6.36-31.444 12.338-62.174 41.765-68.637s58.437 13.789 64.797 45.234z" class="E"/><path d="M406.935 139.322l15.882 78.51c.896 4.43-1.738 8.758-5.883 9.669l-80.907 17.768c-4.145.911-8.232-1.942-9.128-6.371l-15.881-78.511c-5.726-28.302 11.104-55.963 37.593-61.781s52.599 12.41 58.324 40.716z" stroke-dasharray="2.19 2.19"/><path d="M402.008 142.447l14.119 69.797c.797 3.937-1.544 7.785-5.229 8.594l-71.928 15.797c-3.685.809-7.317-1.726-8.114-5.663l-14.119-69.797c-5.09-25.164 9.874-49.751 33.42-54.923s46.762 11.035 51.851 36.195z" class="E"/><path d="M397.083 145.574l12.356 61.084c.697 3.445-1.351 6.814-4.577 7.522l-62.951 13.826c-3.226.708-6.404-1.51-7.101-4.958l-12.357-61.084c-4.454-22.021 8.64-43.54 29.248-48.066s40.927 9.655 45.382 31.676z" stroke-dasharray="2.21 2.21"/><path d="M392.156 148.699l10.594 52.374c.598 2.954-1.16 5.841-3.923 6.447l-53.972 11.854c-2.766.607-5.49-1.297-6.088-4.249l-10.594-52.374c-3.819-18.879 7.408-37.33 25.076-41.21s35.088 8.279 38.907 27.158z" class="F"/><path d="M387.231 151.827l8.831 43.66c.499 2.463-.967 4.87-3.271 5.377l-44.992 9.881c-2.304.506-4.577-1.081-5.075-3.543l-8.832-43.661c-3.184-15.74 6.177-31.12 20.904-34.355s29.251 6.901 32.435 22.641z" stroke-dasharray="1.97 1.97"/><path d="M382.304 154.952l7.07 34.947c.399 1.972-.774 3.897-2.618 4.302l-36.016 7.909c-1.846.406-3.663-.865-4.061-2.834l-7.07-34.947c-2.548-12.598 4.944-24.91 16.734-27.499s23.413 5.524 25.961 18.122z" class="F"/><path d="M377.379 158.08l5.306 26.234c.3 1.48-.58 2.926-1.965 3.23l-27.035 5.938c-1.386.304-2.751-.649-3.05-2.129l-5.307-26.234c-1.913-9.456 3.712-18.7 12.562-20.643s17.576 4.148 19.489 13.604z" stroke-dasharray="1.9 1.9"/><path d="M372.452 161.208l3.545 17.52c.199.987-.387 1.955-1.312 2.158l-18.057 3.966c-.924.203-1.838-.432-2.038-1.423l-3.544-17.52c-1.278-6.317 2.478-12.489 8.39-13.788s11.739 2.77 13.016 9.087z" class="F"/></g></g><defs><clipPath id="B"><path fill="#fff" d="M0 0h427v409H0z"/></clipPath></defs></svg>