<svg width="410" height="400" viewBox="0 0 410 400" fill="none" xmlns="http://www.w3.org/2000/svg">
<path d="M262.2 180.3H262.3H262.4C262.5 180.3 262.8 180.2 262.9 180.2C263.6 180.1 264.2 179.8 265 179.7L319.8 169.4C352.6 163.3 376.3 199.9 357.5 227.3C344.3 246.4 349.2 272.5 368.4 285.6C395.8 304.4 386.8 347.1 354.1 353.2L299.3 363.5C298.6 363.6 298 363.7 297.3 363.8C297.2 363.8 296.9 363.9 296.8 363.9H296.7H296.6C296.5 363.9 296.2 364 296.1 364C295.4 364.1 294.8 364.4 294 364.5L239.2 374.8C206.4 380.9 182.7 344.3 201.5 316.9C214.7 297.8 209.8 271.7 190.6 258.6C163.1 239.7 172.2 197.1 204.9 191L259.7 180.7C260.4 180.6 261 180.5 261.7 180.4C261.9 180.2 262.1 180.3 262.2 180.3Z" stroke="#FFA600" stroke-width="4.5004"/>
<path d="M253.4 155.4C252.1 172.2 259 188.4 271.9 199C304.6 225.6 292.5 278.2 251.5 288.1C235.2 292.1 221.9 303.7 215.9 319.4C200.7 358.8 147 363.8 125 327.8C116.2 313.5 101.1 304.5 84.4 303.6C42.3 301.4 21.2 251.8 48.6 219.7C59.5 207 63.5 189.6 59.2 173.5C48.5 132.6 89.2 97.1 128 113.2C143.5 119.6 161.1 118 175.1 108.8C210.6 85.8 256.8 113.4 253.4 155.4Z" fill="#E55CFF"/>
</svg>
