<?xml version="1.0" encoding="utf-8"?>
<svg xmlns="http://www.w3.org/2000/svg" viewBox="0 0 64 64" width="512" height="512">
  <linearGradient id="w1WkK__LgUW3oF42TLjXDa" x1="17" x2="17" y1="13.833" y2="20.167" gradientUnits="userSpaceOnUse" spreadMethod="reflect">
    <stop offset="0" stop-color="#6dc7ff" />
    <stop offset="1" stop-color="#e6abff" />
  </linearGradient>
  <path fill="url(#w1WkK__LgUW3oF42TLjXDa)" d="M14,20v-5c0-0.552,0.448-1,1-1h5L14,20z" />
  <linearGradient id="w1WkK__LgUW3oF42TLjXDb" x1="32" x2="32" y1="5.333" y2="58.46" gradientUnits="userSpaceOnUse" spreadMethod="reflect">
    <stop offset="0" stop-color="#1a6dff" />
    <stop offset="1" stop-color="#c822ff" />
  </linearGradient>
  <path fill="url(#w1WkK__LgUW3oF42TLjXDb)" d="M54,6H10c-2.206,0-4,1.794-4,4v30c0,2.206,1.794,4,4,4h16v7c0,0.552-0.448,1-1,1h-4 c-1.654,0-3,1.346-3,3v1h-5v2h5h28h5v-2h-5v-1c0-1.654-1.346-3-3-3h-2h-2c-0.552,0-1-0.448-1-1v-7h16c2.206,0,4-1.794,4-4V10 C58,7.794,56.206,6,54,6z M41,54h2c0.552,0,1,0.448,1,1v1H20v-1c0-0.552,0.448-1,1-1h4h14H41z M36.184,52h-8.369 C27.928,51.686,28,51.352,28,51v-7h8v7C36,51.352,36.072,51.686,36.184,52z M56,40c0,1.103-0.897,2-2,2H10c-1.103,0-2-0.897-2-2V10 c0-1.103,0.897-2,2-2h44c1.103,0,2,0.897,2,2V40z" />
  <linearGradient id="w1WkK__LgUW3oF42TLjXDc" x1="32" x2="32" y1="5.333" y2="58.46" gradientUnits="userSpaceOnUse" spreadMethod="reflect">
    <stop offset="0" stop-color="#1a6dff" />
    <stop offset="1" stop-color="#c822ff" />
  </linearGradient>
  <path fill="url(#w1WkK__LgUW3oF42TLjXDc)" d="M52,10H12c-1.103,0-2,0.897-2,2v24c0,1.103,0.897,2,2,2h40c1.103,0,2-0.897,2-2V12 C54,10.897,53.103,10,52,10z M52,36H12V12h40V36z" />
  <linearGradient id="w1WkK__LgUW3oF42TLjXDd" x1="33" x2="33" y1="5.333" y2="58.46" gradientUnits="userSpaceOnUse" spreadMethod="reflect">
    <stop offset="0" stop-color="#1a6dff" />
    <stop offset="1" stop-color="#c822ff" />
  </linearGradient>
  <path fill="url(#w1WkK__LgUW3oF42TLjXDd)" d="M28,32h3h2h3c1.654,0,3-1.346,3-3v-3.184c1.162-0.414,2-1.514,2-2.816v-4c0-1.654-1.346-3-3-3 h-4c-1.302,0-2.402,0.838-2.816,2H28c-1.654,0-3,1.346-3,3v3v2v3C25,30.654,26.346,32,28,32z M37,29c0,0.552-0.448,1-1,1h-3v-4h4V29 z M34,18h4c0.552,0,1,0.448,1,1v4c0,0.552-0.448,1-1,1h-5v-5C33,18.448,33.448,18,34,18z M27,21c0-0.552,0.448-1,1-1h3v4h-4V21z M31,26v4h-3c-0.552,0-1-0.448-1-1v-3H31z" />
  <linearGradient id="w1WkK__LgUW3oF42TLjXDe" x1="50" x2="50" y1="5.333" y2="58.46" gradientUnits="userSpaceOnUse" spreadMethod="reflect">
    <stop offset="0" stop-color="#1a6dff" />
    <stop offset="1" stop-color="#c822ff" />
  </linearGradient>
  <path fill="url(#w1WkK__LgUW3oF42TLjXDe)" d="M48 39H52V41H48z" />
  <linearGradient id="w1WkK__LgUW3oF42TLjXDf" x1="44" x2="44" y1="5.333" y2="58.46" gradientUnits="userSpaceOnUse" spreadMethod="reflect">
    <stop offset="0" stop-color="#1a6dff" />
    <stop offset="1" stop-color="#c822ff" />
  </linearGradient>
  <path fill="url(#w1WkK__LgUW3oF42TLjXDf)" d="M42 39H46V41H42z" />
</svg>