<svg width="273" height="42" viewBox="0 0 273 42" fill="none" xmlns="http://www.w3.org/2000/svg">
<path d="M268 11.5011C268 10.2511 268.94 9.31109 270.15 9.31109C271.34 9.31109 272.29 10.2511 272.29 11.5011C272.29 12.7711 271.35 13.7111 270.15 13.7111C268.94 13.7111 268 12.7711 268 11.5011ZM270.15 14.1511C271.59 14.1511 272.82 13.0311 272.82 11.5011C272.82 9.99109 271.59 8.87109 270.15 8.87109C268.7 8.87109 267.47 9.99109 267.47 11.5011C267.47 13.0311 268.7 14.1511 270.15 14.1511ZM269.6 11.7111H270.13L270.93 13.0311H271.45L270.59 11.6911C271.03 11.6411 271.38 11.4011 271.38 10.8511C271.38 10.2511 271.03 9.98109 270.31 9.98109H269.15V13.0211H269.62V11.7111H269.6ZM269.6 11.3211V10.3811H270.23C270.55 10.3811 270.89 10.4511 270.89 10.8311C270.89 11.3011 270.54 11.3211 270.15 11.3211H269.6Z" fill="#1A1A1A"/>
<path d="M17.24 26.4512C17.07 27.0812 16.83 27.2012 16.45 27.2012C16.45 27.2012 5.22 27.2012 4.68 27.2012C4.68 26.6612 4.68 11.1112 4.68 11.1112C4.68 10.6912 4.79 10.4712 5.41 10.3012L5.61 10.2412V9.24121H5.34H0V10.2312L0.21 10.2912C0.83 10.4512 0.94 10.6812 0.94 11.1012V28.6012C0.94 29.0112 0.83 29.2412 0.21 29.4112L0 29.4612V30.4612H16.45C16.87 30.4612 17.07 30.5612 17.24 31.2112L17.29 31.4212H18.27V26.2412H17.29L17.24 26.4512Z" fill="#1A1A1A"/>
<path d="M62.3597 27.1212L62.3197 27.0312L55.6797 11.3012C55.4697 10.8112 55.4497 10.7312 55.4497 10.6612C55.4497 10.5012 55.4497 10.4112 55.9197 10.2812L56.1197 10.2212V9.24121H55.8397H50.1697V10.2412L50.3797 10.3012C50.8297 10.4012 50.8297 10.4912 50.8297 10.6112C50.8297 10.7212 50.7797 10.8512 50.5997 11.3112L44.0497 27.6212C43.3797 29.2212 43.2097 29.3012 42.6597 29.4012L42.4297 29.4412V30.4612H47.7697V29.4412L47.5397 29.4012C46.9797 29.3112 46.9797 29.2112 46.9797 29.0912C46.9797 28.9412 46.9797 28.9312 47.1797 28.4212C47.1797 28.4212 48.2097 25.8112 48.4897 25.1012C48.8397 25.1012 57.4497 25.1012 57.7997 25.1012C57.9297 25.4112 59.1097 28.2112 59.1097 28.2112C59.2997 28.6712 59.3897 28.8912 59.3897 29.0312C59.3897 29.1112 59.3897 29.3312 58.8397 29.4012L58.5897 29.4312V30.4612H64.2897V29.4612L64.0797 29.4112C63.1897 29.2012 63.1897 29.2012 62.3597 27.1212ZM56.4397 21.8412C55.7297 21.8412 50.4697 21.8412 49.7797 21.8412C50.0397 21.1812 52.6097 14.6912 53.0297 13.6412C53.4597 14.7012 56.1597 21.1812 56.4397 21.8412Z" fill="#1A1A1A"/>
<path d="M116.7 31.2111C116.53 30.6211 116.34 30.4611 115.79 30.4611H96.8801V29.3011C96.8801 29.3011 110.01 13.3711 110.73 12.5011C109.65 12.5011 99.4601 12.5011 99.4601 12.5011C98.9901 12.5011 98.7201 12.6211 98.5501 13.2611L98.4901 13.4611H97.4601V9.11112C84.2901 18.5411 77.3601 31.4411 81.9701 38.0711C86.6201 44.7611 101.24 42.5211 114.64 33.0711C115.4 32.5311 116.14 31.9811 116.87 31.4211H116.76L116.7 31.2111ZM130.48 3.85112C125.91 -2.71888 111.71 -0.66888 98.5101 8.37112L98.5501 8.48112C98.7201 9.06112 98.9301 9.24112 99.4601 9.24112H117.76V10.0611C117.76 10.0611 104.39 26.3311 103.67 27.2011C104.75 27.2011 115.79 27.2011 115.79 27.2011C116.26 27.2011 116.52 27.0811 116.7 26.4511L116.76 26.2411H117.79V30.6911C129.11 21.5211 134.75 9.99112 130.48 3.85112Z" fill="#1A1A1A"/>
<path d="M167.22 19.261C169.08 18.381 169.92 17.021 169.92 14.951C169.92 13.151 169.15 11.511 167.86 10.571C166.55 9.63098 164.86 9.25098 162.05 9.25098H149.39H149.11V10.221L149.32 10.281C149.96 10.441 150.07 10.641 150.07 11.031V28.771C150.07 29.071 150.01 29.301 149.32 29.491L149.11 29.541V30.481H162.24C165.2 30.481 166.84 30.081 168.3 29.031C169.8 27.951 170.56 26.361 170.56 24.311C170.57 21.831 169.44 20.151 167.22 19.261ZM153.76 20.951C154.28 20.951 161.78 20.951 161.78 20.951C165.22 20.951 166.63 21.851 166.63 24.071C166.63 26.261 165.18 27.191 161.78 27.191C161.78 27.191 154.28 27.191 153.76 27.191C153.76 26.701 153.76 21.451 153.76 20.951ZM165.1 17.151C164.4 17.561 163.6 17.701 161.81 17.701C161.81 17.701 154.28 17.701 153.76 17.701C153.76 17.221 153.76 12.991 153.76 12.501C154.28 12.501 161.81 12.501 161.81 12.501C163.68 12.501 164.43 12.621 165.09 13.051C165.73 13.441 166.1 14.191 166.1 15.091C166.11 16.011 165.74 16.761 165.1 17.151Z" fill="#1A1A1A"/>
<path d="M214.41 11.2811C212.35 9.68109 209.79 8.87109 206.8 8.87109C203.5 8.87109 201.06 9.61109 198.89 11.2811C196.36 13.2311 194.79 16.5211 194.79 19.8611C194.79 23.2111 196.32 26.4011 198.89 28.4111C200.94 30.0411 203.48 30.8311 206.65 30.8311C209.82 30.8311 212.36 30.0411 214.41 28.4111C216.98 26.3711 218.52 23.1711 218.52 19.8611C218.51 16.5111 216.98 13.3011 214.41 11.2811ZM206.65 27.4811C201.83 27.4811 198.72 24.4911 198.72 19.8611C198.72 15.2911 201.86 12.2211 206.53 12.2211C209.18 12.2211 211.05 12.9311 212.6 14.5211C213.91 15.9011 214.58 17.7011 214.58 19.8611C214.57 24.4211 211.39 27.4811 206.65 27.4811Z" fill="#1A1A1A"/>
<path d="M264.54 9.24121H258.33V10.2412L258.54 10.2912C258.98 10.4012 258.98 10.4612 258.98 10.5412C258.98 10.7512 258.79 11.1012 258.38 11.6412C258.38 11.6412 254.52 17.0712 253.53 18.4512C253.12 17.8812 248.75 11.8912 248.75 11.8912C248.29 11.2712 248.09 10.8712 248.09 10.6012C248.09 10.4412 248.09 10.3912 248.58 10.2912L248.8 10.2412V9.24121H242.13V10.2512L242.35 10.2912C243.08 10.4212 243.1 10.4312 244.71 12.4812C244.71 12.4712 250.92 20.9612 251.47 21.7112C251.47 21.8912 251.47 28.5912 251.47 28.5912C251.47 29.0012 251.36 29.2312 250.73 29.4012L250.52 29.4512V30.4512H256.24V29.4512L256.03 29.4012C255.39 29.2312 255.28 29.0012 255.28 28.5912C255.28 28.5912 255.28 21.9012 255.28 21.7112C255.39 21.5712 262.11 12.4712 262.11 12.4712C263.62 10.5712 263.85 10.3712 264.56 10.2912L264.81 10.2612V9.24121H264.54Z" fill="#1A1A1A"/>
</svg>
