<svg width="85" height="29" viewBox="0 0 85 29" fill="none" xmlns="http://www.w3.org/2000/svg">
<path d="M36.4771 27.6232H29.6796L33.9312 1.30933H40.7284L36.4771 27.6232Z" fill="white"/>
<path d="M61.117 1.9528C59.7762 1.42038 57.6497 0.83252 55.0202 0.83252C48.3074 0.83252 43.5803 4.41549 43.5513 9.53807C43.4956 13.3175 46.9358 15.4167 49.5088 16.6769C52.1386 17.9646 53.0326 18.8051 53.0326 19.9529C53.0059 21.7157 50.9075 22.5283 48.9505 22.5283C46.2366 22.5283 44.7825 22.1094 42.5726 21.1286L41.6775 20.7082L40.7263 26.6151C42.3206 27.3421 45.2579 27.9872 48.3074 28.0155C55.4398 28.0155 60.0833 24.488 60.1383 19.029C60.1654 16.0336 58.3489 13.7383 54.4325 11.8627C52.055 10.6587 50.599 9.84688 50.599 8.61498C50.6269 7.49507 51.8305 6.34799 54.5143 6.34799C56.7241 6.29181 58.3477 6.82349 59.5777 7.35554L60.1926 7.63496L61.117 1.9528Z" fill="white"/>
<path d="M70.1509 18.3011C70.7107 16.7894 72.8648 10.9387 72.8648 10.9387C72.8365 10.9949 73.4235 9.39911 73.7591 8.41947L74.2342 10.6868C74.2342 10.6868 75.5214 16.9855 75.8009 18.3011C74.7386 18.3011 71.4935 18.3011 70.1509 18.3011ZM78.5416 1.30933H73.2837C71.6623 1.30933 70.4304 1.78482 69.7309 3.4926L59.634 27.6228H66.7665C66.7665 27.6228 67.9407 24.3751 68.1931 23.6756C68.9756 23.6756 75.9139 23.6756 76.9205 23.6756C77.1157 24.5994 77.7316 27.6228 77.7316 27.6228H84.0255L78.5416 1.30933Z" fill="white"/>
<path d="M24.001 1.30933L17.344 19.2529L16.6165 15.6137C15.3858 11.4146 11.5259 6.85233 7.21851 4.58386L13.3161 27.5953H20.5043L31.1888 1.30933H24.001Z" fill="white"/>
<path d="M11.1617 1.30933H0.225166L0.113281 1.841C8.64446 4.02465 14.2945 9.28823 16.6158 15.6148L14.2384 3.52125C13.847 1.84063 12.6441 1.36476 11.1617 1.30933Z" fill="white"/>
</svg>
