<svg width="101" height="42" viewBox="0 0 101 42" fill="none" xmlns="http://www.w3.org/2000/svg">
<g clip-path="url(#clip0)">
<path fill-rule="evenodd" clip-rule="evenodd" d="M13.4051 9.74463C6.42279 9.74463 0.604187 12.7261 0.604187 21.7215C0.604187 28.8477 4.51683 33.3352 13.5855 33.3352C24.2603 33.3352 24.9446 26.258 24.9446 26.258H19.7722C19.7722 26.258 18.6634 30.0688 13.2702 30.0688C8.87769 30.0688 5.71867 27.0824 5.71867 22.8963H25.4856V20.2697C25.4856 16.1283 22.8735 9.74463 13.4054 9.74463H13.4051ZM13.2249 13.1017C17.4064 13.1017 20.2568 15.6801 20.2568 19.5441H5.83277C5.83277 15.442 9.55335 13.1017 13.2249 13.1017Z" fill="#FE252E"/>
<path fill-rule="evenodd" clip-rule="evenodd" d="M25.4842 1.03467V28.8183C25.4842 30.3954 25.3724 32.6099 25.3724 32.6099H30.3057C30.3057 32.6099 30.4826 31.0197 30.4826 29.5659C30.4826 29.5659 32.92 33.4041 39.5474 33.4041C46.5265 33.4041 51.267 28.5274 51.267 21.5407C51.267 15.041 46.9126 9.8134 39.5588 9.8134C32.6725 9.8134 30.5326 13.5563 30.5326 13.5563V1.03492H25.4842V1.03467ZM38.2852 13.2497C43.0245 13.2497 46.038 16.7899 46.038 21.5405C46.038 26.6347 42.5574 29.9671 38.3193 29.9671C33.261 29.9671 30.5326 25.9923 30.5326 21.5855C30.5326 17.4797 32.9809 13.2495 38.2854 13.2495L38.2852 13.2497Z" fill="#0061D6"/>
<path fill-rule="evenodd" clip-rule="evenodd" d="M63.5249 9.74512C53.0203 9.74512 52.3465 15.5344 52.3465 16.4596H57.5751C57.5751 16.4596 57.8491 13.0796 63.1643 13.0796C66.6181 13.0796 69.2943 14.6708 69.2943 17.7297V18.8185H63.1643C55.0261 18.8185 50.724 21.2144 50.724 26.0771C50.724 30.8623 54.6989 33.4664 60.0713 33.4664C67.3925 33.4664 69.7509 29.3947 69.7509 29.3947C69.7509 31.0137 69.8752 32.6097 69.8752 32.6097H74.5232C74.5232 32.6097 74.3429 30.6316 74.3429 29.366V18.4268C74.3429 11.2542 68.5949 9.74463 63.5252 9.74463L63.5249 9.74512ZM69.2943 22.0851V23.5368C69.2943 25.4301 68.1336 30.1377 61.2992 30.1377C57.5568 30.1377 55.9523 28.258 55.9523 26.0773C55.9523 22.1107 61.3559 22.0851 69.2943 22.0851Z" fill="#FEB101"/>
<path fill-rule="evenodd" clip-rule="evenodd" d="M71.5263 10.6538H77.4083L85.85 27.6762L94.2728 10.6538H99.6011L84.2596 40.9586H78.6704L83.0973 32.511L71.526 10.6538H71.5263Z" fill="#69B900"/>
</g>
<defs>
<clipPath id="clip0">
<rect width="100" height="41.3333" fill="white" transform="translate(0.5 0.415039)"/>
</clipPath>
</defs>
</svg>
