<svg width="191" height="38" viewBox="0 0 191 38" fill="none" xmlns="http://www.w3.org/2000/svg">
<path d="M22.0347 7.36673L11.0173 14.421L22.0347 21.4752L11.0173 28.5294L0 21.4371L11.0173 14.3828L0 7.36673L11.0173 0.3125L22.0347 7.36673ZM10.9603 30.7982L21.9777 23.744L32.995 30.7982L21.9777 37.8525L10.9603 30.7982ZM22.0347 21.4371L33.052 14.3828L22.0347 7.36673L32.995 0.3125L44.0124 7.36673L32.995 14.421L44.0124 21.4752L32.995 28.5294L22.0347 21.4371Z" fill="white"/>
<path d="M52.4268 7.34825H61.3722C67.0751 7.34825 71.7862 10.6278 71.7862 18.1157V19.6891C71.7862 27.234 67.3803 30.6272 61.5438 30.6272H52.4268V7.34825ZM57.424 11.5756V26.3809H61.2577C64.5002 26.3809 66.6746 24.2767 66.6746 19.5944V18.3622C66.6746 13.6798 64.3858 11.5756 61.0861 11.5756H57.424ZM74.4374 11.8031H78.4428L79.0913 16.1821C79.8542 13.2059 81.7997 11.6135 85.3283 11.6135H86.5681V16.6371H84.5081C80.4455 16.6371 79.4537 18.0399 79.4537 22.0208V30.6841H74.5137V11.8031H74.4374ZM87.5599 21.6227V21.092C87.5599 14.7793 91.6225 11.3292 97.1538 11.3292C102.799 11.3292 106.748 14.7793 106.748 21.092V21.6227C106.748 27.8216 102.914 31.158 97.1538 31.158C91.0312 31.1012 87.5599 27.8406 87.5599 21.6227ZM101.693 21.5659V21.092C101.693 17.5849 99.9194 15.4807 97.0966 15.4807C94.3309 15.4807 92.4999 17.4143 92.4999 21.092V21.5659C92.4999 24.9591 94.2737 26.8927 97.0966 26.8927C99.9194 26.8359 101.693 24.9591 101.693 21.5659ZM109.342 11.8031H113.462L113.938 15.367C114.93 12.9784 117.047 11.3292 120.175 11.3292C125.001 11.3292 128.186 14.7793 128.186 21.1678V21.6986C128.186 27.8975 124.658 31.177 120.175 31.177C117.181 31.177 115.121 29.8311 114.11 27.67V37.2053H109.284L109.342 11.8031ZM123.17 21.5659V21.1488C123.17 17.3954 121.224 15.5376 118.63 15.5376C115.865 15.5376 114.034 17.6418 114.034 21.1488V21.509C114.034 24.8454 115.808 26.9496 118.573 26.9496C121.415 26.8927 123.17 25.0918 123.17 21.5659ZM135.491 27.1961L135.072 30.6462H130.837V5.49048H135.663V15.1395C136.731 12.6751 138.848 11.3292 141.843 11.3292C146.382 11.3861 149.739 14.495 149.739 20.7507V21.3384C149.739 27.5941 146.554 31.177 141.728 31.177C138.543 31.1012 136.483 29.6415 135.491 27.1961ZM144.666 21.3384V20.8645C144.666 17.4143 142.777 15.4807 140.126 15.4807C137.418 15.4807 135.529 17.6418 135.529 20.9213V21.3384C135.529 24.8454 137.36 26.8927 140.069 26.8927C142.968 26.8927 144.666 25.0918 144.666 21.3384ZM151.856 21.6227V21.092C151.856 14.7793 155.919 11.3292 161.45 11.3292C167.096 11.3292 171.044 14.7793 171.044 21.092V21.6227C171.044 27.8216 167.153 31.158 161.45 31.158C155.328 31.1012 151.856 27.8406 151.856 21.6227ZM166.028 21.5659V21.092C166.028 17.5849 164.254 15.4807 161.431 15.4807C158.665 15.4807 156.834 17.4143 156.834 21.092V21.5659C156.834 24.9591 158.608 26.8927 161.431 26.8927C164.273 26.8359 166.028 24.9591 166.028 21.5659ZM177.51 20.8645L170.853 11.8031H176.556L180.39 17.4712L184.281 11.8031H189.927L183.175 20.8076L190.289 30.6462H184.701L180.352 24.3904L176.117 30.6462H170.281L177.51 20.8645Z" fill="white"/>
</svg>
