<svg width="152" height="29" viewBox="0 0 152 29" fill="none" xmlns="http://www.w3.org/2000/svg">
<path d="M83.0293 26.3611H102.549V23.9768H86.3756V16.3474H98.5238V13.9349H86.3756V6.90587H102.549V4.53027H83.0293V26.3611Z" fill="white"/>
<path d="M93.1728 1.00098L90.53 3.96991L98.8263 1.00098H93.1728Z" fill="white"/>
<path d="M135.317 23.9768V4.53027H132.266V26.3611H151.999V23.9768H135.317Z" fill="white"/>
<path d="M115.197 4.53027L104.097 26.3611H107.849L110.689 20.7106H124.002L126.866 26.3611H130.579L119.47 4.53027H115.197ZM112.094 17.9742L117.325 7.54686L122.617 17.9742H112.094Z" fill="white"/>
<path d="M72.4366 17.2325C77.4379 15.8979 77.9239 12.1767 77.8985 10.8463C77.6 6.94634 74.9723 4.53027 70.2508 4.53027H56.4915V26.3611H59.6281V17.2034H68.5858L75.1758 26.3611H79.1292C79.129 26.3611 74.3867 20.1978 72.4366 17.2325ZM69.8225 14.6239H59.6281V7.11424H70.1778C72.6067 7.11424 73.973 8.24815 74.4652 9.68856C74.7908 10.6759 74.5821 11.9721 74.0434 12.8545C73.1617 14.3135 71.4868 14.6239 69.8225 14.6239Z" fill="white"/>
<path d="M37.6439 0.833252C28.7896 0.833252 22.7548 7.0761 22.7548 14.6321C22.7548 22.5867 29.4212 28.2022 37.6439 28.2022C45.8611 28.2022 52.5248 22.6669 52.5248 14.6321C52.5248 7.0761 46.4153 0.833252 37.6439 0.833252ZM37.5376 25.4923C31.4118 25.4923 26.3645 20.5696 26.3645 14.6395C26.3645 8.71751 31.1735 3.55903 37.7751 3.55903C44.2131 3.55903 48.9455 8.71751 48.9455 14.6395C48.9455 20.5694 43.6608 25.4923 37.5376 25.4923Z" fill="white"/>
<path d="M14.8527 12.2532H17.1159L21.2241 4.53027H17.9182L14.8527 12.2532Z" fill="white"/>
<path d="M3.7889 23.9768V4.53027H0.736206V26.3611H20.4684V23.9768H3.7889Z" fill="white"/>
</svg>
