<svg xmlns="http://www.w3.org/2000/svg" viewBox="0 0 1580.91 381.52">
    <path fill="rgb(0,107,255)" fill-opacity="1" d=" M70.63300323486328,13.149999618530273 C66.11599731445312,9.880999565124512 60.935001373291016,7.751999855041504 55.441001892089844,6.747000217437744 C55.43199920654297,6.789999961853027 55.428001403808594,6.833000183105469 55.41899871826172,6.875 C54.948001861572266,9.440999984741211 54.21500015258789,11.968999862670898 53.2130012512207,14.420999526977539 C57.847999572753906,15.156000137329102 62.12099838256836,16.868000030517578 65.77100372314453,19.48900032043457 C65.75800323486328,19.527000427246094 65.7490005493164,19.56599998474121 65.73600006103516,19.608999252319336 C63.630001068115234,26.31599998474121 60.45600128173828,32.63800048828125 56.30400085449219,38.391998291015625 C52.20100021362305,44.071998596191406 47.24300003051758,49.073001861572266 41.56100082397461,53.25299835205078 C29.764999389648438,61.930999755859375 15.715999603271484,66.51699829101562 0.9240000247955322,66.51699829101562 C-8.232999801635742,66.51699829101562 -17.111000061035156,64.75900268554688 -25.465999603271484,61.29499816894531 C-33.53799819946289,57.94499969482422 -40.78900146484375,53.14899826049805 -47.020999908447266,47.03799819946289 C-53.25199890136719,40.92399978637695 -58.13999938964844,33.810001373291016 -61.55500030517578,25.89299964904785 C-65.08699798583984,17.69700050354004 -66.87899780273438,8.987000465393066 -66.87899780273438,0.004999999888241291 C-66.87899780273438,-8.977999687194824 -65.08699798583984,-17.687999725341797 -61.55500030517578,-25.882999420166016 C-58.13999938964844,-33.80099868774414 -53.25199890136719,-40.915000915527344 -47.020999908447266,-47.02899932861328 C-40.78900146484375,-53.14099884033203 -33.53799819946289,-57.935001373291016 -25.465999603271484,-61.2859992980957 C-17.111000061035156,-64.7509994506836 -8.232999801635742,-66.50800323486328 0.9240000247955322,-66.50800323486328 C15.715999603271484,-66.50800323486328 29.764999389648438,-61.922000885009766 41.56100082397461,-53.24300003051758 C47.24300003051758,-49.06399917602539 52.20100021362305,-44.0629997253418 56.30400085449219,-38.382999420166016 C60.45600128173828,-32.62900161743164 63.630001068115234,-26.308000564575195 65.73600006103516,-19.60099983215332 C65.7490005493164,-19.558000564575195 65.76200103759766,-19.517000198364258 65.77100372314453,-19.479999542236328 C62.12099838256836,-16.857999801635742 57.847999572753906,-15.142000198364258 53.2130012512207,-14.41100025177002 C54.21500015258789,-11.954999923706055 54.95199966430664,-9.42199993133545 55.41899871826172,-6.85699987411499 C55.428001403808594,-6.814000129699707 55.43199920654297,-6.776000022888184 55.441001892089844,-6.734000205993652 C60.935001373291016,-7.738999843597412 66.11100006103516,-9.869000434875488 70.63300323486328,-13.13700008392334 C74.96299743652344,-16.2810001373291 74.1259994506836,-19.83099937438965 73.46800231933594,-21.934999465942383 C63.922000885009766,-52.34600067138672 35.05500030517578,-74.447998046875 0.9240000247955322,-74.447998046875 C-40.9900016784668,-74.447998046875 -74.96800231933594,-41.11600112915039 -74.96800231933594,0.0010000000474974513 C-74.96800231933594,41.117000579833984 -40.9900016784668,74.447998046875 0.9240000247955322,74.447998046875 C35.05500030517578,74.447998046875 63.922000885009766,52.345001220703125 73.46800231933594,21.93600082397461 C74.1259994506836,19.8439998626709 74.96800231933594,16.295000076293945 70.63300323486328,13.149999618530273z"></path>
</svg>