<svg width="166" height="32" viewBox="0 0 166 32" fill="none" xmlns="http://www.w3.org/2000/svg">
<g clip-path="url(#clip0)">
<path d="M90.6305 28.9572H111.82V26.369H94.263V18.0871H107.45V15.4683H94.263V7.83805H111.82V5.25928H90.6305V28.9572Z" fill="black"/>
<path d="M101.642 1.42773L98.7727 4.65059L107.779 1.42773H101.642Z" fill="black"/>
<path d="M147.39 26.369V5.25928H144.078V28.9572H165.499V26.369H147.39Z" fill="black"/>
<path d="M125.549 5.25928L113.5 28.9572H117.573L120.656 22.8235H135.107L138.216 28.9572H142.247L130.188 5.25928H125.549ZM122.181 19.853L127.859 8.53387L133.604 19.853H122.181Z" fill="black"/>
<path d="M79.1318 19.0479C84.5609 17.5991 85.0884 13.5597 85.0609 12.1155C84.7368 7.88198 81.8844 5.25928 76.7591 5.25928H61.823V28.9572H65.2279V19.0163H74.9517L82.1053 28.9572H86.3968C86.3966 28.9572 81.2487 22.2668 79.1318 19.0479ZM76.2942 16.2162H65.2279V8.06424H76.6798C79.3165 8.06424 80.7996 9.29513 81.3339 10.8587C81.6874 11.9305 81.4608 13.3376 80.8761 14.2954C79.9189 15.8792 78.1008 16.2162 76.2942 16.2162Z" fill="black"/>
<path d="M41.3635 1.24561C31.7519 1.24561 25.2009 8.02238 25.2009 16.2246C25.2009 24.8595 32.4375 30.9553 41.3635 30.9553C50.2834 30.9553 57.5171 24.9466 57.5171 16.2246C57.5171 8.02238 50.885 1.24561 41.3635 1.24561ZM41.2481 28.0137C34.5983 28.0137 29.1194 22.6699 29.1194 16.2327C29.1194 9.80418 34.3397 4.20451 41.5059 4.20451C48.4945 4.20451 53.6316 9.80418 53.6316 16.2327C53.6316 22.6697 47.895 28.0137 41.2481 28.0137Z" fill="black"/>
<path d="M16.623 13.6427H19.0798L23.5393 5.25928H19.9507L16.623 13.6427Z" fill="black"/>
<path d="M4.61294 26.369V5.25928H1.29916V28.9572H22.719V26.369H4.61294Z" fill="black"/>
</g>
<defs>
<clipPath id="clip0">
<rect width="165" height="31.4803" fill="white" transform="translate(0.5 0.341309)"/>
</clipPath>
</defs>
</svg>
