<svg width="63" height="45" viewBox="0 0 63 45" fill="none" xmlns="http://www.w3.org/2000/svg">
<path fill-rule="evenodd" clip-rule="evenodd" d="M0.661011 0.770727H10.0503V26.2012C10.0503 30.2257 11.8744 32.623 13.3169 33.6507C11.7898 35.0206 7.12324 36.2194 3.64459 33.308C1.59369 31.5919 0.661011 28.77 0.661011 26.1155V0.770727ZM59.3402 21.8953V19.2228H62.2038V9.84702H59.0591C57.8519 4.21803 52.8861 0 46.9474 0C40.1059 0 34.5602 5.59715 34.5602 12.5012V34.3965C36.5092 34.6729 38.8312 34.3621 40.8069 32.7088C42.8574 30.9924 43.7901 28.1708 43.7901 25.5163V24.7096H48.4795V15.3338H43.7901V12.5012H43.8014C43.8014 10.7479 45.2098 9.32658 46.9474 9.32658C48.6847 9.32658 50.0987 10.7479 50.0987 12.5012V21.8953C50.0987 28.7993 55.6504 34.3965 62.4915 34.3965V25.0699C60.7542 25.0699 59.3402 23.6485 59.3402 21.8953ZM23.7797 9.84702V23.6069C23.7797 24.3881 23.1375 25.0214 22.345 25.0214C21.5526 25.0214 20.9104 24.3881 20.9104 23.6069V9.84702H11.6198V26.0301C11.6198 28.9412 12.5981 32.623 17.0501 33.8218C21.5067 35.0219 24.092 32.5376 24.092 32.5376C23.8565 34.1742 22.3291 35.3731 19.8687 35.63C18.0071 35.8241 15.6264 35.2019 14.4388 34.6881V43.2619C17.4649 44.1625 20.6655 44.4534 23.7978 43.84C29.4823 42.727 33.0699 37.9321 33.0699 31.5528V9.84702H23.7797Z" fill="white"/>
</svg>
