<svg width="161" height="49" viewBox="0 0 161 49" fill="none" xmlns="http://www.w3.org/2000/svg">
<path d="M113.713 9.8253V14.738C113.713 14.9306 113.52 15.1233 113.328 15.1233H104.856C104.663 15.1233 104.471 14.9306 104.471 14.738V9.8253C104.471 9.63265 104.663 9.44 104.856 9.44H113.328C113.52 9.44 113.713 9.63265 113.713 9.8253ZM113.135 16.7608H96.7694C96.5767 16.7608 96.2886 16.9535 96.1922 17.1461L94.0739 25.1412L93.9776 25.5265L91.4747 16.9535C91.3784 16.7608 91.1857 16.5682 90.8967 16.5682H84.5433C84.3506 16.5682 84.0616 16.7608 83.9653 16.9535L81.5589 24.9486L81.4627 25.3339L81.3665 24.9486L80.3074 20.9992L79.2485 17.0498C79.1523 16.8571 78.9597 16.6645 78.6709 16.6645H65.867V9.72898C65.867 9.53633 65.5782 9.24735 65.2894 9.34367L57.2028 11.8482C56.914 11.9445 56.8177 12.0408 56.8177 12.2335V16.5682H54.6998C54.5072 16.5682 54.3147 16.7608 54.3147 16.9535V23.1184C54.3147 23.311 54.5072 23.5037 54.6998 23.5037H56.8177V31.0171C56.8177 36.3151 59.7058 38.8196 65.0006 38.8196C67.2148 38.8196 69.3327 38.338 70.7768 37.5673V31.2098C70.7768 30.9208 70.488 30.8245 70.2954 30.8245C69.429 31.2098 68.7551 31.3061 67.985 31.3061C66.5409 31.3061 65.7708 30.7282 65.7708 29.0906V23.6H70.3917C70.5843 23.6 70.7768 23.4073 70.7768 23.2147V18.0131L76.8418 38.1453C76.938 38.338 77.1305 38.5306 77.4193 38.5306H84.0616C84.2543 38.5306 84.5433 38.338 84.6396 38.1453L87.5278 29.1869L88.9718 33.8106L90.3196 38.049C90.4159 38.2416 90.6086 38.4343 90.8967 38.4343H97.6363C97.8282 38.4343 98.1171 38.2416 98.2135 38.049L104.375 17.8204V38.049C104.375 38.2416 104.568 38.4343 104.76 38.4343H112.942C113.135 38.4343 113.328 38.2416 113.328 38.049V17.2424C113.617 16.9535 113.424 16.7608 113.135 16.7608ZM123.918 9.44H115.734C115.542 9.44 115.35 9.63265 115.35 9.8253V38.2416C115.35 38.4343 115.542 38.6269 115.734 38.6269H123.918C124.11 38.6269 124.302 38.4343 124.302 38.2416V9.8253C124.399 9.63265 124.206 9.44 123.918 9.44ZM134.893 9.44H126.421C126.228 9.44 126.036 9.63265 126.036 9.8253V14.738C126.036 14.9306 126.228 15.1233 126.421 15.1233H134.893C135.084 15.1233 135.277 14.9306 135.277 14.738V9.8253C135.277 9.63265 135.084 9.44 134.893 9.44ZM134.7 16.7608H126.517C126.324 16.7608 126.132 16.9535 126.132 17.1461V38.2416C126.132 38.4343 126.324 38.6269 126.517 38.6269H134.7C134.893 38.6269 135.084 38.4343 135.084 38.2416V17.2424C135.181 16.9535 134.988 16.7608 134.7 16.7608ZM160.5 27.5494C160.5 33.8106 155.398 39.0122 148.178 39.0122C141.053 39.0122 135.951 33.8106 135.951 27.6457V27.5494C135.951 21.3845 141.053 16.0865 148.274 16.0865C155.398 16.2792 160.5 21.4808 160.5 27.5494ZM151.836 27.6457C151.836 25.5265 150.199 23.7927 148.274 23.7927C146.252 23.7927 144.808 25.5265 144.808 27.5494V27.6457C144.808 29.7649 146.445 31.4988 148.37 31.4988C150.295 31.4988 151.836 29.8612 151.836 27.6457ZM48.6348 24.0816C48.6348 37.3747 37.8526 48.1633 24.5674 48.1633C11.2822 48.1633 0.5 37.3747 0.5 24.0816C0.5 10.7886 11.2822 0 24.5674 0C37.8526 0 48.6348 10.7886 48.6348 24.0816ZM42.3772 24.0816C42.3772 14.2563 34.4832 6.35755 24.6637 6.35755C14.8442 6.35755 6.95006 14.2563 6.95006 24.0816C6.95006 33.9069 14.8442 41.8057 24.6637 41.8057C34.3869 41.8057 42.3772 33.9069 42.3772 24.0816ZM30.6324 23.1184C33.4242 23.1184 35.6384 20.9029 35.6384 18.1094C35.6384 15.3159 33.4242 13.1004 30.6324 13.1004C27.8406 13.1004 25.6264 15.3159 25.6264 18.1094C25.6264 20.9029 27.8406 23.1184 30.6324 23.1184ZM30.6324 35.0629C33.4242 35.0629 35.6384 32.8473 35.6384 30.0539C35.6384 27.2604 33.4242 25.0449 30.6324 25.0449C27.8406 25.0449 25.6264 27.2604 25.6264 30.0539C25.6264 32.8473 27.8406 35.0629 30.6324 35.0629ZM18.5987 35.0629C21.3905 35.0629 23.6047 32.8473 23.6047 30.0539C23.6047 27.2604 21.3905 25.0449 18.5987 25.0449C15.8069 25.0449 13.5927 27.2604 13.5927 30.0539C13.5927 32.8473 15.8069 35.0629 18.5987 35.0629ZM18.5987 23.1184C21.3905 23.1184 23.6047 20.9029 23.6047 18.1094C23.6047 15.3159 21.3905 13.1004 18.5987 13.1004C15.8069 13.1004 13.5927 15.3159 13.5927 18.1094C13.5927 20.8065 15.8069 23.1184 18.5987 23.1184Z" fill="#EB2D44"/>
</svg>
