<svg width="160" height="64" viewBox="0 0 160 64" fill="none" xmlns="http://www.w3.org/2000/svg">
<path d="M20.5797 14C9.3542 14 0 18.8027 0 33.2923C0 44.7713 6.29003 52 20.8696 52C38.0304 52 39.1304 40.6 39.1304 40.6H30.8152C30.8152 40.6 29.0324 46.7385 20.3623 46.7385C13.3008 46.7385 8.22188 41.9278 8.22188 35.185H40V30.9538C40 24.2831 35.8008 14 20.5797 14V14ZM20.2899 19.4077C27.0117 19.4077 31.5942 23.5605 31.5942 29.7846H8.4058C8.4058 23.1769 14.3871 19.4077 20.2899 19.4077V19.4077Z" fill="white"/>
<path d="M40.1814 0V44.6337C40.1814 47.1672 40 50.7246 40 50.7246H48.0016C48.0016 50.7246 48.2888 48.1696 48.2888 45.8346C48.2888 45.8346 52.2422 52 62.9915 52C74.3111 52 82 44.1659 82 32.9418C82 22.5003 74.9375 14.1023 63.0098 14.1023C51.8404 14.1023 48.3697 20.1149 48.3697 20.1149V0H40.1814ZM60.9445 19.623C68.6313 19.623 73.5193 25.3101 73.5193 32.9418C73.5193 41.1255 67.8738 46.4793 60.9993 46.4793C52.7952 46.4793 48.3697 40.0936 48.3697 33.0147C48.3697 26.4185 52.3408 19.623 60.9445 19.623Z" fill="white"/>
<path d="M101.439 14C84.6666 14 83.5909 23.274 83.5909 24.7559H91.9394C91.9394 24.7559 92.3772 19.3416 100.864 19.3416C106.378 19.3416 110.652 21.8905 110.652 26.7908V28.535H100.864C87.8695 28.535 81 32.3736 81 40.163C81 47.829 87.3472 52 95.9247 52C107.615 52 111.38 45.4774 111.38 45.4774C111.38 48.0717 111.578 50.6283 111.578 50.6283H119C119 50.6283 118.712 47.4594 118.712 45.432V27.9082C118.712 16.4181 109.534 14 101.439 14V14ZM110.652 33.7676V36.0932C110.652 39.1265 108.798 46.6675 97.8859 46.6675C91.9105 46.6675 89.3485 43.6561 89.3485 40.163C89.3485 33.8086 97.9762 33.7676 110.652 33.7676V33.7676Z" fill="white"/>
<path d="M115 16H124.428L137.959 42.9615L151.459 16H160L135.41 64H126.451L133.547 50.6193L115 16Z" fill="white"/>
</svg>
