<svg width="45" height="45" viewBox="0 0 45 45" fill="none" xmlns="http://www.w3.org/2000/svg">
<path d="M23.9044 39.375H26.7169V43.5938L32.3419 39.375H40.7794C41.5253 39.375 42.2407 39.0787 42.7681 38.5512C43.2956 38.0238 43.5919 37.3084 43.5919 36.5625V28.125C43.5919 27.3791 43.2956 26.6637 42.7681 26.1363C42.2407 25.6088 41.5253 25.3125 40.7794 25.3125H23.9044C23.1585 25.3125 22.4431 25.6088 21.9157 26.1363C21.3882 26.6637 21.0919 27.3791 21.0919 28.125V36.5625C21.0919 37.3084 21.3882 38.0238 21.9157 38.5512C22.4431 39.0787 23.1585 39.375 23.9044 39.375V39.375Z" stroke="#006BFF" stroke-width="3" stroke-linecap="round" stroke-linejoin="round"></path>
<path d="M4.4025 31.6406C4.4025 32.946 4.92105 34.1979 5.84408 35.1209C6.76711 36.0439 8.01901 36.5625 9.32437 36.5625C10.6297 36.5625 11.8816 36.0439 12.8047 35.1209C13.7277 34.1979 14.2462 32.946 14.2462 31.6406C14.2462 30.3353 13.7277 29.0834 12.8047 28.1603C11.8816 27.2373 10.6297 26.7188 9.32437 26.7188C8.01901 26.7188 6.76711 27.2373 5.84408 28.1603C4.92105 29.0834 4.4025 30.3353 4.4025 31.6406V31.6406Z" stroke="#006BFF" stroke-width="3" stroke-linecap="round" stroke-linejoin="round"></path>
<path d="M17.25 43.5938C16.6767 41.95 15.6063 40.5252 14.187 39.5171C12.7677 38.5089 11.07 37.9673 9.32905 37.9673C7.58815 37.9673 5.89037 38.5089 4.47109 39.5171C3.05181 40.5252 1.98135 41.95 1.40811 43.5938" stroke="#006BFF" stroke-width="3" stroke-linecap="round" stroke-linejoin="round"></path>
<path d="M30.7481 7.73438C30.7481 9.03974 31.2667 10.2916 32.1897 11.2147C33.1128 12.1377 34.3647 12.6562 35.67 12.6562C36.9754 12.6562 38.2273 12.1377 39.1503 11.2147C40.0733 10.2916 40.5919 9.03974 40.5919 7.73438C40.5919 6.42901 40.0733 5.17711 39.1503 4.25408C38.2273 3.33105 36.9754 2.8125 35.67 2.8125C34.3647 2.8125 33.1128 3.33105 32.1897 4.25408C31.2667 5.17711 30.7481 6.42901 30.7481 7.73438V7.73438Z" stroke="#006BFF" stroke-width="3" stroke-linecap="round" stroke-linejoin="round"></path>
<path d="M43.7419 19.5765C43.1687 17.9327 42.0982 16.5079 40.6789 15.4997C39.2596 14.4916 37.5619 13.95 35.821 13.95C34.0801 13.95 32.3823 14.4916 30.963 15.4997C29.5437 16.5079 28.4733 17.9327 27.9 19.5765" stroke="#006BFF" stroke-width="3" stroke-linecap="round" stroke-linejoin="round"></path>
<path d="M30.9356 29.5312H37.9669" stroke="#006BFF" stroke-width="3" stroke-linecap="round" stroke-linejoin="round"></path>
<path d="M26.7169 33.75H37.9669" stroke="#006BFF" stroke-width="3" stroke-linecap="round" stroke-linejoin="round"></path>
<path d="M21.0919 15.4688H18.2794V19.6875L12.6544 15.4688H4.21689C3.47097 15.4687 2.7556 15.1724 2.22815 14.645C1.7007 14.1175 1.40439 13.4022 1.40439 12.6562V4.21875C1.40439 3.47283 1.7007 2.75746 2.22815 2.23001C2.7556 1.70257 3.47097 1.40625 4.21689 1.40625H21.0919C21.8378 1.40625 22.5532 1.70257 23.0806 2.23001C23.6081 2.75746 23.9044 3.47283 23.9044 4.21875V12.6562C23.9044 13.4022 23.6081 14.1175 23.0806 14.645C22.5532 15.1724 21.8378 15.4687 21.0919 15.4688V15.4688Z" stroke="#006BFF" stroke-width="3" stroke-linecap="round" stroke-linejoin="round"></path>
<path d="M14.0606 5.625H7.02939" stroke="#006BFF" stroke-width="3" stroke-linecap="round" stroke-linejoin="round"></path>
<path d="M18.2794 9.84375H7.02939" stroke="#006BFF" stroke-width="3" stroke-linecap="round" stroke-linejoin="round"></path>
</svg>