<svg width="53" height="49" viewBox="0 0 53 49" fill="none" xmlns="http://www.w3.org/2000/svg">
<path d="M23.1194 25.5835L36.8471 25.5835" stroke="#006BFF" stroke-width="3" stroke-linecap="round" stroke-linejoin="round"></path>
<path d="M42.2356 5.33293C42.2356 5.77061 42.3218 6.20401 42.4893 6.60838C42.6568 7.01275 42.9023 7.38017 43.2118 7.68966C43.5213 7.99915 43.8887 8.24465 44.2931 8.41215C44.6974 8.57964 45.1308 8.66585 45.5685 8.66585C46.0062 8.66585 46.4396 8.57964 46.844 8.41215C47.2483 8.24465 47.6158 7.99915 47.9253 7.68966C48.2347 7.38017 48.4802 7.01275 48.6477 6.60838C48.8152 6.20401 48.9014 5.77061 48.9014 5.33293C48.9014 4.89524 48.8152 4.46184 48.6477 4.05747C48.4802 3.6531 48.2347 3.28568 47.9253 2.97619C47.6158 2.6667 47.2483 2.4212 46.844 2.2537C46.4396 2.08621 46.0062 2 45.5685 2C45.1308 2 44.6974 2.08621 44.2931 2.2537C43.8887 2.4212 43.5213 2.6667 43.2118 2.97619C42.9023 3.28568 42.6568 3.6531 42.4893 4.05747C42.3218 4.46184 42.2356 4.89524 42.2356 5.33293V5.33293Z" stroke="#006BFF" stroke-width="3" stroke-linecap="round" stroke-linejoin="round"></path>
<path d="M51.1235 14.2208C50.7934 12.9843 50.0763 11.8859 49.0771 11.0862C48.0778 10.2866 46.8489 9.82779 45.5701 9.77686C44.2911 9.82748 43.0618 10.2862 42.0623 11.0858C41.0628 11.8855 40.3454 12.984 40.0153 14.2208H51.1235Z" stroke="#006BFF" stroke-width="3" stroke-linecap="round" stroke-linejoin="round"></path>
<path d="M42.2356 21.8766C42.2356 22.3143 42.3218 22.7477 42.4893 23.1521C42.6568 23.5565 42.9023 23.9239 43.2118 24.2334C43.5213 24.5429 43.8887 24.7884 44.2931 24.9558C44.6974 25.1233 45.1308 25.2096 45.5685 25.2096C46.0062 25.2096 46.4396 25.1233 46.844 24.9558C47.2483 24.7884 47.6158 24.5429 47.9253 24.2334C48.2347 23.9239 48.4802 23.5565 48.6477 23.1521C48.8152 22.7477 48.9014 22.3143 48.9014 21.8766C48.9014 21.4389 48.8152 21.0055 48.6477 20.6012C48.4802 20.1968 48.2347 19.8294 47.9253 19.5199C47.6158 19.2104 47.2483 18.9649 46.844 18.7974C46.4396 18.6299 46.0062 18.5437 45.5685 18.5437C45.1308 18.5437 44.6974 18.6299 44.2931 18.7974C43.8887 18.9649 43.5213 19.2104 43.2118 19.5199C42.9023 19.8294 42.6568 20.1968 42.4893 20.6012C42.3218 21.0055 42.2356 21.4389 42.2356 21.8766V21.8766Z" stroke="#006BFF" stroke-width="3" stroke-linecap="round" stroke-linejoin="round"></path>
<path d="M51.1235 30.7645C50.7934 29.528 50.0763 28.4296 49.0771 27.6299C48.0778 26.8303 46.8489 26.3715 45.5701 26.3206C44.2911 26.3712 43.0618 26.8299 42.0623 27.6295C41.0628 28.4292 40.3454 29.5277 40.0153 30.7645H51.1235Z" stroke="#006BFF" stroke-width="3" stroke-linecap="round" stroke-linejoin="round"></path>
<path d="M42.3345 38.1122C42.3345 38.5499 42.4207 38.9833 42.5882 39.3877C42.7557 39.792 43.0012 40.1595 43.3107 40.469C43.6202 40.7784 43.9876 41.024 44.3919 41.1914C44.7963 41.3589 45.2297 41.4451 45.6674 41.4451C46.1051 41.4451 46.5385 41.3589 46.9429 41.1914C47.3472 41.024 47.7146 40.7784 48.0241 40.469C48.3336 40.1595 48.5791 39.792 48.7466 39.3877C48.9141 38.9833 49.0003 38.5499 49.0003 38.1122C49.0003 37.6745 48.9141 37.2411 48.7466 36.8368C48.5791 36.4324 48.3336 36.065 48.0241 35.7555C47.7146 35.446 47.3472 35.2005 46.9429 35.033C46.5385 34.8655 46.1051 34.7793 45.6674 34.7793C45.2297 34.7793 44.7963 34.8655 44.3919 35.033C43.9876 35.2005 43.6202 35.446 43.3107 35.7555C43.0012 36.065 42.7557 36.4324 42.5882 36.8368C42.4207 37.2411 42.3345 37.6745 42.3345 38.1122V38.1122Z" stroke="#006BFF" stroke-width="3" stroke-linecap="round" stroke-linejoin="round"></path>
<path d="M51.2225 47.0001C50.8924 45.7633 50.175 44.6647 49.1755 43.8651C48.176 43.0655 46.9467 42.6068 45.6677 42.5562C44.3886 42.6068 43.1594 43.0655 42.1598 43.8651C41.1603 44.6647 40.443 45.7633 40.1128 47.0001H51.2225Z" stroke="#006BFF" stroke-width="3" stroke-linecap="round" stroke-linejoin="round"></path>
<path d="M6.22388 14.6716C7.73841 16.1871 9.69477 17.2212 11.8327 17.6363C13.9705 18.0513 16.1886 17.8276 18.1916 16.995" stroke="#006BFF" stroke-width="3" stroke-linecap="round" stroke-linejoin="round"></path>
<path d="M5.16809 18.0155C5.16809 18.8707 5.33652 19.7174 5.66378 20.5075C5.99103 21.2976 6.47069 22.0154 7.07537 22.6201C7.68005 23.2248 8.39791 23.7044 9.18797 24.0317C9.97802 24.3589 10.8248 24.5274 11.6799 24.5274C12.5351 24.5274 13.3819 24.3589 14.1719 24.0317C14.962 23.7044 15.6798 23.2248 16.2845 22.6201C16.8892 22.0154 17.3689 21.2976 17.6961 20.5075C18.0234 19.7174 18.1918 18.8707 18.1918 18.0155C18.1918 17.1604 18.0234 16.3136 17.6961 15.5235C17.3689 14.7335 16.8892 14.0156 16.2845 13.4109C15.6798 12.8063 14.962 12.3266 14.1719 11.9993C13.3819 11.6721 12.5351 11.5037 11.6799 11.5037C10.8248 11.5037 9.97802 11.6721 9.18797 11.9993C8.39791 12.3266 7.68005 12.8063 7.07537 13.4109C6.47069 14.0156 5.99103 14.7335 5.66378 15.5235C5.33652 16.3136 5.16809 17.1604 5.16809 18.0155V18.0155Z" stroke="#006BFF" stroke-width="3" stroke-linecap="round" stroke-linejoin="round"></path>
<path d="M2 37.5511C2 34.9372 3.01983 32.4303 4.83514 30.582C6.65046 28.7337 9.11255 27.6953 11.6798 27.6953C14.247 27.6953 16.7091 28.7337 18.5244 30.582C20.3397 32.4303 21.3596 34.9372 21.3596 37.5511H2Z" stroke="#006BFF" stroke-width="3" stroke-linecap="round" stroke-linejoin="round"></path>
<path d="M38.9591 42.479L29.4553 42.479L29.4553 8.68776L38.9591 8.68776" stroke="#006BFF" stroke-width="3" stroke-dasharray="5 5"></path>
<path d="M38.8617 25.4575L35.6303 27.9451L35.6303 22.97L38.8617 25.4575Z" fill="#006BFF"></path>
</svg>