<svg width="196" height="59" viewBox="0 0 196 59" fill="none" xmlns="http://www.w3.org/2000/svg">
<path d="M138.686 12.036V18.054C138.686 18.29 138.45 18.526 138.214 18.526H127.836C127.6 18.526 127.365 18.29 127.365 18.054V12.036C127.365 11.8 127.6 11.564 127.836 11.564H138.214C138.45 11.564 138.686 11.8 138.686 12.036ZM137.978 20.532H117.93C117.694 20.532 117.341 20.768 117.223 21.004L114.628 30.798L114.51 31.27L111.444 20.768C111.326 20.532 111.09 20.296 110.736 20.296H102.953C102.717 20.296 102.363 20.532 102.245 20.768L99.2972 30.562L99.1793 31.034L99.0614 30.562L97.7641 25.724L96.4669 20.886C96.349 20.65 96.1131 20.414 95.7593 20.414H80.0746V11.918C80.0746 11.682 79.7208 11.328 79.367 11.446L69.4609 14.514C69.1071 14.632 68.9892 14.75 68.9892 14.986V20.296H66.3947C66.1588 20.296 65.923 20.532 65.923 20.768V28.32C65.923 28.556 66.1588 28.792 66.3947 28.792H68.9892V37.996C68.9892 44.486 72.5271 47.554 79.0132 47.554C81.7256 47.554 84.3201 46.964 86.0891 46.02V38.232C86.0891 37.878 85.7353 37.76 85.4994 37.76C84.438 38.232 83.6125 38.35 82.6691 38.35C80.9001 38.35 79.9567 37.642 79.9567 35.636V28.91H85.6173C85.8532 28.91 86.0891 28.674 86.0891 28.438V22.066L93.5187 46.728C93.6366 46.964 93.8724 47.2 94.2262 47.2H102.363C102.599 47.2 102.953 46.964 103.071 46.728L106.609 35.754L108.378 41.418L110.029 46.61C110.147 46.846 110.383 47.082 110.736 47.082H118.992C119.227 47.082 119.581 46.846 119.699 46.61L127.247 21.83V46.61C127.247 46.846 127.483 47.082 127.718 47.082H137.742C137.978 47.082 138.214 46.846 138.214 46.61V21.122C138.568 20.768 138.332 20.532 137.978 20.532ZM151.187 11.564H141.162C140.927 11.564 140.691 11.8 140.691 12.036V46.846C140.691 47.082 140.927 47.318 141.162 47.318H151.187C151.422 47.318 151.658 47.082 151.658 46.846V12.036C151.776 11.8 151.54 11.564 151.187 11.564ZM164.631 11.564H154.253C154.017 11.564 153.781 11.8 153.781 12.036V18.054C153.781 18.29 154.017 18.526 154.253 18.526H164.631C164.866 18.526 165.102 18.29 165.102 18.054V12.036C165.102 11.8 164.866 11.564 164.631 11.564ZM164.395 20.532H154.371C154.135 20.532 153.899 20.768 153.899 21.004V46.846C153.899 47.082 154.135 47.318 154.371 47.318H164.395C164.631 47.318 164.866 47.082 164.866 46.846V21.122C164.984 20.768 164.748 20.532 164.395 20.532ZM196 33.748C196 41.418 189.75 47.79 180.905 47.79C172.178 47.79 165.928 41.418 165.928 33.866V33.748C165.928 26.196 172.178 19.706 181.023 19.706C189.75 19.942 196 26.314 196 33.748ZM185.386 33.866C185.386 31.27 183.381 29.146 181.023 29.146C178.546 29.146 176.777 31.27 176.777 33.748V33.866C176.777 36.462 178.782 38.586 181.141 38.586C183.499 38.586 185.386 36.58 185.386 33.866ZM58.9651 29.5C58.9651 45.784 45.7569 59 29.4826 59C13.2082 59 0 45.784 0 29.5C0 13.216 13.2082 0 29.4826 0C45.7569 0 58.9651 13.216 58.9651 29.5ZM51.2996 29.5C51.2996 17.464 41.6294 7.788 29.6005 7.788C17.5716 7.788 7.90132 17.464 7.90132 29.5C7.90132 41.536 17.5716 51.212 29.6005 51.212C41.5114 51.212 51.2996 41.536 51.2996 29.5ZM36.9122 28.32C40.3321 28.32 43.0445 25.606 43.0445 22.184C43.0445 18.762 40.3321 16.048 36.9122 16.048C33.4922 16.048 30.7798 18.762 30.7798 22.184C30.7798 25.606 33.4922 28.32 36.9122 28.32ZM36.9122 42.952C40.3321 42.952 43.0445 40.238 43.0445 36.816C43.0445 33.394 40.3321 30.68 36.9122 30.68C33.4922 30.68 30.7798 33.394 30.7798 36.816C30.7798 40.238 33.4922 42.952 36.9122 42.952ZM22.1709 42.952C25.5909 42.952 28.3033 40.238 28.3033 36.816C28.3033 33.394 25.5909 30.68 22.1709 30.68C18.7509 30.68 16.0385 33.394 16.0385 36.816C16.0385 40.238 18.7509 42.952 22.1709 42.952ZM22.1709 28.32C25.5909 28.32 28.3033 25.606 28.3033 22.184C28.3033 18.762 25.5909 16.048 22.1709 16.048C18.7509 16.048 16.0385 18.762 16.0385 22.184C16.0385 25.488 18.7509 28.32 22.1709 28.32Z" fill="#1A1A1A"/>
</svg>
